<svg width="25" height="25" viewBox="0 0 25 25" fill="none" xmlns="http://www.w3.org/2000/svg">
<g id="icon-bell">
<g id="Shape">
<path fill-rule="evenodd" clip-rule="evenodd" d="M12.5002 1.04163C10.5664 1.04163 8.71171 1.80985 7.34426 3.17731C5.9768 4.54476 5.20858 6.39942 5.20858 8.33329C5.20858 11.8256 4.46163 13.9944 3.77327 15.2564C3.42765 15.89 3.0911 16.3057 2.85732 16.5524C2.74016 16.6761 2.6481 16.7581 2.59266 16.8043C2.56493 16.8274 2.54633 16.8416 2.53831 16.8476L2.53534 16.8498C2.16192 17.1063 1.99667 17.5755 2.12827 18.0101C2.26129 18.4495 2.66622 18.75 3.12524 18.75H21.8752C22.3343 18.75 22.7392 18.4495 22.8722 18.0101C23.0038 17.5755 22.8386 17.1063 22.4651 16.8498L22.4622 16.8476C22.4542 16.8416 22.4356 16.8274 22.4078 16.8043C22.3524 16.7581 22.2603 16.6761 22.1432 16.5524C21.9094 16.3057 21.5728 15.89 21.2272 15.2564C20.5389 13.9944 19.7919 11.8256 19.7919 8.33329C19.7919 6.39942 19.0237 4.54476 17.6562 3.17731C16.2888 1.80985 14.4341 1.04163 12.5002 1.04163ZM19.3983 16.254C19.4775 16.3993 19.5571 16.5368 19.6364 16.6666H5.36412C5.44338 16.5368 5.52295 16.3993 5.60222 16.254C6.47636 14.6514 7.29191 12.1326 7.29191 8.33329C7.29191 6.95196 7.84064 5.6272 8.8174 4.65044C9.79415 3.67369 11.1189 3.12496 12.5002 3.12496C13.8816 3.12496 15.2063 3.67369 16.1831 4.65044C17.1598 5.6272 17.7086 6.95196 17.7086 8.33329C17.7086 12.1326 18.5241 14.6514 19.3983 16.254Z" fill="#6D6E71"/>
<path d="M11.5992 21.3523C11.3106 20.8546 10.6731 20.6852 10.1755 20.9739C9.67787 21.2626 9.50847 21.9 9.79714 22.3976C10.0718 22.8712 10.4661 23.2643 10.9405 23.5375C11.4149 23.8108 11.9528 23.9546 12.5003 23.9546C13.0477 23.9546 13.5856 23.8108 14.06 23.5375C14.5344 23.2643 14.9287 22.8712 15.2034 22.3976C15.4921 21.9 15.3227 21.2626 14.825 20.9739C14.3274 20.6852 13.69 20.8546 13.4013 21.3523C13.3097 21.5101 13.1783 21.6412 13.0202 21.7322C12.862 21.8233 12.6828 21.8713 12.5003 21.8713C12.3178 21.8713 12.1385 21.8233 11.9804 21.7322C11.8222 21.6412 11.6908 21.5101 11.5992 21.3523Z" fill="#6D6E71"/>
</g>
</g>
</svg>
