<svg width="25" height="25" viewBox="0 0 25 25" fill="none" xmlns="http://www.w3.org/2000/svg">
<g id="icon-align-left">
<g id="Shape">
<path d="M21.8748 5.20837C22.4501 5.20837 22.9165 5.67474 22.9165 6.25004C22.9165 6.82534 22.4501 7.29171 21.8748 7.29171H3.12484C2.54954 7.29171 2.08317 6.82534 2.08317 6.25004C2.08317 5.67474 2.54954 5.20837 3.12484 5.20837H21.8748Z" fill="#6D6E71"/>
<path d="M21.8748 9.37504C22.4501 9.37504 22.9165 9.84141 22.9165 10.4167C22.9165 10.992 22.4501 11.4584 21.8748 11.4584H7.2915C6.71621 11.4584 6.24984 10.992 6.24984 10.4167C6.24984 9.84141 6.71621 9.37504 7.2915 9.37504H21.8748Z" fill="#6D6E71"/>
<path d="M22.9165 14.5834C22.9165 14.0081 22.4501 13.5417 21.8748 13.5417H3.12484C2.54954 13.5417 2.08317 14.0081 2.08317 14.5834C2.08317 15.1587 2.54954 15.625 3.12484 15.625H21.8748C22.4501 15.625 22.9165 15.1587 22.9165 14.5834Z" fill="#6D6E71"/>
<path d="M21.8748 17.7084C22.4501 17.7084 22.9165 18.1747 22.9165 18.75C22.9165 19.3253 22.4501 19.7917 21.8748 19.7917H7.2915C6.71621 19.7917 6.24984 19.3253 6.24984 18.75C6.24984 18.1747 6.71621 17.7084 7.2915 17.7084H21.8748Z" fill="#6D6E71"/>
</g>
</g>
</svg>
