<svg width="338" height="362" viewBox="0 0 338 362" fill="none" xmlns="http://www.w3.org/2000/svg">
<path d="M62.1002 231.709H56.2972V250.518H62.1002V231.709Z" fill="white"/>
<path d="M62.2815 250.698H56.1158V231.528H62.2815V250.698ZM56.4785 250.337H61.9188V231.89H56.4785V250.337Z" fill="#002346"/>
<path d="M54.4838 238.582H48.6808V250.518H54.4838V238.582Z" fill="white"/>
<path d="M54.6651 250.698H48.4994V238.401H54.6651V250.698ZM48.8621 250.337H54.3024V238.762H48.8621V250.337Z" fill="#002346"/>
<path d="M69.7167 234.241H63.9137V250.518H69.7167V234.241Z" fill="white"/>
<path d="M69.898 250.699H63.7323V234.06H69.898V250.699ZM64.095 250.337H69.5353V234.422H64.095V250.337Z" fill="#002346"/>
<path d="M76.9704 227.369H71.1674V250.518H76.9704V227.369Z" fill="white"/>
<path d="M77.1516 250.698H70.986V227.188H77.1516V250.698ZM71.3486 250.337H76.789V227.55H71.3486V250.337Z" fill="#002346"/>
<path d="M84.5868 224.114H78.7838V250.518H84.5868V224.114Z" fill="white"/>
<path d="M84.7681 250.699H78.6024V223.933H84.7681V250.699ZM78.9651 250.337H84.4054V224.295H78.9651V250.337Z" fill="#002346"/>
<path d="M218.781 170.763C228.696 170.763 236.734 162.747 236.734 152.859C236.734 142.971 228.696 134.955 218.781 134.955C208.866 134.955 200.828 142.971 200.828 152.859C200.828 162.747 208.866 170.763 218.781 170.763Z" fill="#74BBFD"/>
<path d="M218.781 170.944C208.782 170.944 200.647 162.831 200.647 152.859C200.647 142.887 208.782 134.774 218.781 134.774C228.78 134.774 236.915 142.887 236.915 152.859C236.915 162.831 228.78 170.944 218.781 170.944ZM218.781 135.136C208.981 135.136 201.009 143.086 201.009 152.859C201.009 162.632 208.981 170.582 218.781 170.582C228.581 170.582 236.553 162.632 236.553 152.859C236.553 143.086 228.581 135.136 218.781 135.136Z" fill="#002346"/>
<path d="M218.781 166.061C226.092 166.061 232.019 160.15 232.019 152.859C232.019 145.568 226.092 139.657 218.781 139.657C211.47 139.657 205.543 145.568 205.543 152.859C205.543 160.15 211.47 166.061 218.781 166.061Z" fill="white"/>
<path d="M218.781 166.242C211.382 166.242 205.362 160.238 205.362 152.859C205.362 145.481 211.382 139.476 218.781 139.476C226.18 139.476 232.2 145.481 232.2 152.859C232.2 160.238 226.18 166.242 218.781 166.242ZM218.781 139.838C211.582 139.838 205.724 145.679 205.724 152.859C205.724 160.039 211.582 165.88 218.781 165.88C225.98 165.88 231.838 160.039 231.838 152.859C231.838 145.679 225.98 139.838 218.781 139.838Z" fill="#002346"/>
<path d="M218.781 161.54C223.588 161.54 227.485 157.653 227.485 152.859C227.485 148.065 223.588 144.178 218.781 144.178C213.974 144.178 210.076 148.065 210.076 152.859C210.076 157.653 213.974 161.54 218.781 161.54Z" fill="#74BBFD"/>
<path d="M218.781 161.721C213.881 161.721 209.895 157.746 209.895 152.859C209.895 147.973 213.881 143.998 218.781 143.998C223.681 143.998 227.667 147.973 227.667 152.859C227.667 157.746 223.681 161.721 218.781 161.721ZM218.781 144.359C214.081 144.359 210.258 148.172 210.258 152.859C210.258 157.547 214.081 161.359 218.781 161.359C223.481 161.359 227.304 157.547 227.304 152.859C227.304 148.172 223.481 144.359 218.781 144.359Z" fill="#002346"/>
<path d="M218.962 157.38C221.566 157.38 223.677 155.275 223.677 152.678C223.677 150.082 221.566 147.976 218.962 147.976C216.358 147.976 214.247 150.082 214.247 152.678C214.247 155.275 216.358 157.38 218.962 157.38Z" fill="white"/>
<path d="M218.962 157.561C216.264 157.561 214.066 155.369 214.066 152.678C214.066 149.987 216.264 147.795 218.962 147.795C221.661 147.795 223.859 149.987 223.859 152.678C223.859 155.369 221.661 157.561 218.962 157.561ZM218.962 148.157C216.463 148.157 214.429 150.186 214.429 152.678C214.429 155.17 216.463 157.2 218.962 157.2C221.461 157.2 223.496 155.17 223.496 152.678C223.496 150.186 221.461 148.157 218.962 148.157Z" fill="#002346"/>
<path d="M85.8562 167.87H55.3905V190.657H85.8562V167.87Z" fill="white"/>
<path d="M86.0375 190.838H55.2091V167.689H86.0375V190.838ZM55.5718 190.476H85.6748V168.051H55.5718V190.476Z" fill="#002346"/>
<path d="M128.617 238.773H115.709V240.676H128.617V238.773Z" fill="#74BBFD"/>
<path d="M128.798 240.857H115.528V238.596H128.798V240.857ZM115.89 240.495H128.436V238.958H115.89V240.495Z" fill="#002346"/>
<path d="M145.638 240.936H131.7V242.727H145.638V240.936Z" fill="#FFF1C2"/>
<path d="M145.819 242.907H131.518V240.755H145.819V242.907ZM131.881 242.546H145.456V241.117H131.881V242.546Z" fill="#002346"/>
<path d="M127.141 240.763H112.847V244.116H127.141V240.763Z" fill="white"/>
<path d="M127.326 244.296H112.67V240.582H127.326V244.296ZM113.032 243.935H126.963V240.943H113.032V243.935Z" fill="#002346"/>
<path d="M143.124 244.232L142.762 244.255L149.405 348.398L149.767 348.375L143.124 244.232Z" fill="#002346"/>
<path d="M184.068 346.928C184.043 346.928 184.017 346.921 183.992 346.91C183.901 346.867 183.861 346.762 183.905 346.671C186.146 341.897 192.127 340.96 197.908 340.06C204.796 338.982 211.306 337.965 211.781 330.938C213.083 322.973 211.306 309.547 211.288 309.413C210.874 303.865 209.986 299.184 208.644 295.498C206.743 289.737 201.952 288.257 197.727 286.951C194.583 285.982 191.612 285.063 190.241 282.542C190.194 282.456 190.227 282.343 190.314 282.296C190.401 282.249 190.513 282.282 190.56 282.369C191.862 284.76 194.764 285.657 197.836 286.604C202.148 287.935 207.034 289.444 208.988 295.375C210.338 299.086 211.233 303.799 211.651 309.37C211.669 309.493 213.453 322.973 212.144 330.974C211.651 338.273 204.694 339.362 197.966 340.41C192.279 341.3 186.397 342.219 184.235 346.82C184.206 346.885 184.137 346.925 184.072 346.925L184.068 346.928Z" fill="#002346"/>
<path d="M247.263 345.449C247.165 345.449 247.085 345.373 247.081 345.275C247.02 343.188 243.839 340.262 229.056 338.193C228.378 338.099 228.171 338.067 228.08 338.041C225.349 337.759 223.166 336.613 221.603 334.638C217.098 328.959 218.574 317.739 219.369 311.713C219.612 309.854 219.807 308.386 219.695 307.955C219.691 307.937 219.688 307.919 219.688 307.901C220.816 288.333 227.58 286.637 233.546 285.143C237.293 284.206 240.528 283.392 241.619 278.043C241.641 277.945 241.735 277.884 241.833 277.902C241.931 277.924 241.993 278.018 241.975 278.115C240.836 283.689 237.336 284.564 233.633 285.494C227.79 286.959 221.167 288.619 220.05 307.894C220.166 308.415 219.989 309.753 219.728 311.76C218.941 317.736 217.479 328.854 221.889 334.414C223.398 336.312 225.502 337.416 228.142 337.683C228.164 337.683 228.185 337.691 228.204 337.701C228.251 337.712 228.65 337.77 229.11 337.835C241.181 339.524 247.35 342.024 247.448 345.264C247.448 345.366 247.372 345.449 247.274 345.453H247.266L247.263 345.449Z" fill="#002346"/>
<path d="M249.954 347.561C250.005 351.146 244.358 351.146 244.412 347.561C244.361 343.977 250.008 343.977 249.954 347.561Z" fill="white"/>
<path d="M247.183 350.433C246.614 350.433 246.041 350.292 245.555 350.006C244.684 349.5 244.213 348.628 244.231 347.558C244.216 346.491 244.684 345.622 245.555 345.116C246.527 344.548 247.836 344.548 248.808 345.116C249.678 345.622 250.146 346.491 250.132 347.561C250.146 348.632 249.675 349.5 248.808 350.006C248.322 350.288 247.752 350.429 247.179 350.433H247.183ZM247.183 345.051C246.675 345.051 246.171 345.178 245.74 345.427C244.989 345.865 244.579 346.621 244.593 347.558C244.579 348.498 244.985 349.254 245.74 349.695C246.603 350.198 247.763 350.198 248.63 349.695C249.381 349.258 249.791 348.502 249.776 347.565C249.791 346.624 249.385 345.868 248.63 345.427C248.199 345.174 247.691 345.051 247.187 345.051H247.183Z" fill="#002346"/>
<path d="M186.614 347.659C186.665 351.243 181.018 351.243 181.073 347.659C181.022 344.074 186.669 344.074 186.614 347.659Z" fill="white"/>
<path d="M183.843 350.531C183.274 350.531 182.701 350.39 182.215 350.104C181.344 349.598 180.873 348.726 180.891 347.655C180.877 346.588 181.344 345.72 182.215 345.214C183.191 344.646 184.496 344.646 185.472 345.214C186.342 345.72 186.81 346.588 186.796 347.659C186.81 348.729 186.339 349.598 185.472 350.104C184.986 350.386 184.416 350.527 183.843 350.531ZM183.843 345.149C183.336 345.149 182.832 345.275 182.4 345.525C181.649 345.962 181.239 346.718 181.254 347.655C181.239 348.596 181.646 349.352 182.4 349.793C183.263 350.296 184.424 350.296 185.291 349.793C186.041 349.355 186.451 348.599 186.437 347.662C186.451 346.722 186.045 345.966 185.291 345.525C184.859 345.272 184.351 345.149 183.847 345.149H183.843Z" fill="#002346"/>
<path d="M163.769 326.341L165.419 333.253C165.419 333.253 175.817 334.24 180.271 331.607L177.776 322.738L163.765 326.341H163.769Z" fill="#F2B3C1"/>
<path d="M169.905 333.621C167.457 333.621 165.582 333.448 165.404 333.433L165.274 333.423L163.551 326.21L177.906 322.517L180.485 331.694L180.365 331.766C177.779 333.296 173.293 333.625 169.902 333.625L169.905 333.621ZM165.568 333.083C166.761 333.18 175.915 333.853 180.061 331.52L177.652 322.955L163.986 326.471L165.564 333.083H165.568Z" fill="#002346"/>
<path d="M138.758 320.81L135.218 329.136C135.218 329.136 145.286 330.782 148.917 334.24L152.054 326.011L138.761 320.81H138.758Z" fill="#F2B3C1"/>
<path d="M148.989 334.558L148.793 334.37C145.246 330.992 135.29 329.332 135.192 329.317L134.964 329.281L138.663 320.582L152.29 325.91L148.993 334.562L148.989 334.558ZM135.475 328.999C136.999 329.267 145.344 330.84 148.844 333.929L151.822 326.116L138.859 321.045L135.479 328.999H135.475Z" fill="#002346"/>
<path d="M109.144 338.19C109.144 338.19 109.311 340.002 114.425 341.977C122.437 343.832 138.968 352.473 147.433 349.547L146.773 346.914L133.404 344.114L121.853 339.835C119.597 339.459 110.385 334.388 109.144 338.19Z" fill="#002346"/>
<path d="M143.386 350.321C137.488 350.321 129.799 347.493 123.362 345.127C119.967 343.879 116.761 342.7 114.382 342.15C109.195 340.15 108.967 338.284 108.959 338.204V338.168L108.967 338.132C109.152 337.56 109.518 337.144 110.051 336.891C112.06 335.947 116.112 337.528 119.067 338.682C120.275 339.152 121.316 339.561 121.875 339.655L133.459 343.944L146.911 346.758L147.64 349.663L147.484 349.717C146.265 350.137 144.88 350.321 143.378 350.321H143.386ZM109.329 338.201C109.391 338.446 109.957 340.056 114.49 341.803C116.866 342.353 120.083 343.532 123.489 344.787C131.439 347.71 141.318 351.341 147.216 349.428L146.624 347.066L133.368 344.292L121.791 340.005C121.229 339.915 120.221 339.521 118.944 339.022C116.05 337.889 112.082 336.341 110.214 337.22C109.783 337.423 109.493 337.745 109.333 338.201H109.329Z" fill="#002346"/>
<path d="M148.093 337.369L147.763 346.585C143.067 343.644 136.937 344.295 132.806 343.17C129.647 342.299 111.792 334.753 110.135 336.215C112.115 334.074 117.396 334.898 117.396 334.898C126.307 335.065 133.735 331.278 133.735 331.278H134.725L139.345 333.911L148.093 337.369Z" fill="#74BBFD"/>
<path d="M147.93 346.903L147.665 346.737C144.63 344.838 140.927 344.447 137.659 344.1C135.882 343.912 134.206 343.735 132.759 343.344C131.863 343.098 129.839 342.335 127.279 341.369C121.327 339.126 111.364 335.368 110.258 336.352L110.004 336.095C112.028 333.911 117.207 334.688 117.428 334.725C126.169 334.884 133.582 331.158 133.655 331.122L133.695 331.104H134.775L139.44 333.762L148.282 337.253L147.937 346.91L147.93 346.903ZM110.94 335.849C113.431 335.849 119.902 338.201 127.402 341.029C129.955 341.991 131.972 342.751 132.853 342.993C134.271 343.38 135.936 343.554 137.695 343.738C140.908 344.078 144.539 344.462 147.593 346.266L147.908 337.488L139.28 334.077L134.678 331.455H133.778C133.176 331.751 125.911 335.235 117.392 335.075C117.323 335.065 113.043 334.424 110.849 335.849C110.878 335.849 110.911 335.849 110.943 335.849H110.94Z" fill="#002346"/>
<path d="M147.763 346.584L147.433 349.547C145.783 346.584 134.891 345.268 134.891 345.268C134.891 345.268 115.252 338.356 115.089 338.189C110.66 336.45 109.507 337.538 109.228 338.009C109.199 338.056 109.13 338.034 109.13 337.98C109.123 336.942 110.134 336.218 110.134 336.218C111.77 334.75 129.669 342.309 132.806 343.174C136.933 344.299 143.077 343.647 147.763 346.588V346.584Z" fill="white"/>
<path d="M147.549 350.129L147.274 349.634C145.685 346.784 134.975 345.46 134.866 345.445L134.826 345.438C126.194 342.4 115.934 338.768 115.02 338.352V338.36C110.657 336.645 109.601 337.727 109.38 338.099C109.326 338.19 109.22 338.233 109.119 338.204C109.017 338.175 108.945 338.085 108.945 337.976C108.934 336.855 109.982 336.095 110.026 336.066C111.172 335.032 118.578 337.705 127.413 341.033C129.962 341.995 131.979 342.754 132.849 342.993C134.268 343.38 135.932 343.554 137.695 343.742C141.006 344.092 144.757 344.487 147.857 346.429L147.955 346.491L147.549 350.129ZM134.931 345.091C135.573 345.17 144.992 346.368 147.306 349.055L147.571 346.679C144.561 344.83 140.898 344.443 137.662 344.103C135.885 343.915 134.206 343.738 132.759 343.344C131.87 343.098 129.846 342.338 127.289 341.373C121.331 339.126 111.353 335.368 110.258 336.349C110.236 336.367 109.565 336.855 109.366 337.567C109.978 337.043 111.491 336.58 115.154 338.02L115.198 338.041C115.85 338.352 129.614 343.214 134.931 345.087V345.091Z" fill="#002346"/>
<path d="M209.572 201.432C209.572 201.432 216.3 190.201 240.6 194.19C259.387 197.276 283.455 270.69 238.787 278.954C242.345 278.296 192.051 286.782 168.15 280.105L179.146 245.389C179.146 245.389 209.242 200.611 209.572 201.432Z" fill="white"/>
<path d="M193.219 282.875C183.869 282.875 174.932 282.184 168.099 280.278L167.918 280.228L178.994 245.288C179.067 245.179 186.484 234.147 193.901 223.271C207.102 203.909 209.028 201.547 209.456 201.272C209.746 200.824 211.52 198.292 215.894 196.151C220.224 194.031 228.029 191.941 240.629 194.01C245.827 194.863 251.764 201.207 256.515 210.984C261.389 221.014 264.247 232.867 264.356 243.493C264.472 255.014 261.313 274.954 238.841 279.124C238.834 279.124 238.827 279.124 238.819 279.128V279.114C238.682 279.132 238.475 279.164 238.221 279.2C228.755 280.571 210.301 282.875 193.219 282.875ZM168.378 279.978C187.673 285.28 223.587 280.955 238.167 278.842C238.518 278.792 238.74 278.759 238.881 278.748C238.896 278.748 238.906 278.745 238.91 278.741C260.998 274.567 264.106 254.88 263.99 243.497C263.881 232.917 261.038 221.126 256.185 211.14C251.484 201.471 245.645 195.2 240.568 194.364C216.692 190.443 209.794 201.41 209.725 201.522L209.536 201.833L209.482 201.699C207.385 203.888 187.158 233.778 179.306 245.461L168.371 279.974L168.378 279.978Z" fill="#002346"/>
<path d="M219.996 254.247C203.94 256.102 182.715 256.388 181.961 266.913L177.304 267.257L190.343 319.595L163.772 326.344L158.655 306.429L152.054 326.015L128.951 316.962C130.72 314.028 143.694 258.764 148.231 254.42C155.731 247.237 180.514 244.777 180.935 244.217H222.194C223.452 246.926 224.711 250.684 224.577 253.306C224.577 253.306 223.485 253.701 219.996 254.25V254.247Z" fill="#FFF1C2"/>
<path d="M163.638 326.561L158.629 307.062L152.163 326.246L128.679 317.045L128.791 316.86C129.4 315.851 131.395 308.4 133.919 298.963C138.645 281.313 145.116 257.14 148.1 254.283C153.965 248.666 170.413 245.902 177.435 244.723C179.15 244.434 180.634 244.184 180.808 244.076L180.862 244.003L180.927 244.029H222.303L222.35 244.134C223.601 246.825 224.885 250.648 224.747 253.31L224.74 253.429L224.627 253.469C224.584 253.484 223.478 253.878 220.014 254.42H220.007C217.678 254.692 215.299 254.919 212.778 255.165C198.024 256.594 182.766 258.073 182.135 266.921L182.124 267.076L177.525 267.413L190.553 319.718L163.631 326.554L163.638 326.561ZM158.676 305.789L163.899 326.12L190.121 319.461L177.076 267.091L181.794 266.743C182.61 257.73 197.934 256.247 212.753 254.811C215.27 254.569 217.649 254.337 219.971 254.069C222.785 253.628 224.04 253.281 224.399 253.172C224.486 250.615 223.275 246.998 222.078 244.394H180.989C180.731 244.532 179.952 244.673 177.5 245.081C170.511 246.257 154.139 249.006 148.354 254.547C145.446 257.336 138.986 281.45 134.271 299.061C131.856 308.085 129.923 315.301 129.197 316.864L151.938 325.772L158.673 305.789H158.676Z" fill="#002346"/>
<path d="M178.508 272.068C178.428 272.068 178.356 272.013 178.334 271.934C178.309 271.836 178.363 271.738 178.461 271.713L181.399 270.906C181.094 267.572 181.816 264.891 183.608 262.718C188.199 257.147 199.279 256.091 209.993 255.071C221.962 253.932 234.34 252.753 238.203 245.447C238.25 245.36 238.359 245.324 238.449 245.371C238.537 245.418 238.573 245.526 238.526 245.617C234.572 253.096 222.096 254.283 210.029 255.433C199.388 256.446 188.381 257.495 183.887 262.949C182.131 265.08 181.442 267.72 181.772 271.026C181.78 271.113 181.725 271.196 181.638 271.218L178.552 272.064C178.552 272.064 178.519 272.071 178.505 272.071L178.508 272.068Z" fill="#002346"/>
<path d="M186.378 279.121C186.299 279.121 186.226 279.07 186.204 278.991C186.183 278.918 184.199 271.778 187.818 266.798C189.998 263.796 193.734 262.172 198.917 261.973L229.263 257.531C229.393 257.517 241.841 255.824 243.465 236.317C243.143 233.71 243.527 229.933 243.97 225.561C245.243 213.028 246.824 197.431 233.56 196.003C233.463 195.992 233.39 195.901 233.401 195.804C233.412 195.706 233.495 195.63 233.6 195.644C247.223 197.109 245.551 213.574 244.332 225.597C243.89 229.955 243.509 233.72 243.828 236.288C243.828 236.299 243.828 236.314 243.828 236.325C242.972 246.673 239.081 251.983 235.965 254.612C232.578 257.473 229.44 257.867 229.31 257.882L198.949 262.324C193.864 262.519 190.227 264.092 188.112 267C184.594 271.84 186.534 278.813 186.553 278.886C186.582 278.983 186.524 279.081 186.429 279.11C186.411 279.114 186.397 279.117 186.378 279.117V279.121Z" fill="#002346"/>
<path d="M171.994 224.79C171.505 224.946 170.558 225.022 169.455 223.973C169.455 223.973 171.196 222.211 171.856 221.224C171.856 221.224 172.415 222.334 172.364 224.291C172.357 224.519 172.208 224.721 171.991 224.79H171.994Z" fill="#74BBFD"/>
<path d="M171.4 225.061C170.855 225.061 170.126 224.862 169.332 224.103L169.198 223.976L169.329 223.846C169.329 223.846 171.066 222.088 171.708 221.126L171.882 220.866L172.023 221.144C172.049 221.191 172.604 222.32 172.553 224.295C172.546 224.602 172.342 224.87 172.052 224.96C171.886 225.014 171.664 225.058 171.403 225.058L171.4 225.061ZM169.717 223.965C170.7 224.83 171.526 224.75 171.94 224.616C172.085 224.569 172.183 224.439 172.187 224.284C172.219 222.971 171.969 222.041 171.813 221.596C171.186 222.435 170.094 223.575 169.717 223.962V223.965Z" fill="#002346"/>
<path d="M171.857 221.336C171.857 221.336 172.176 222.287 172.201 224.407C172.201 224.497 172.314 224.541 172.372 224.472L176.97 219.032C176.97 219.032 177.351 220.544 179.103 222.023C180.296 223.029 181.341 224.201 182.095 225.568C184.471 229.868 186.622 237.743 180.931 244.213C182.708 245.584 184.899 247.646 187.351 247.158C195.148 245.761 202.243 249.516 213.279 250.138L213.446 244.213L215.524 244.325L216.913 249.809C216.913 249.809 222.524 248.821 225.164 246.517L219.224 234.831L217.573 223.803L217.406 212.116C217.406 212.116 219.3 211.957 220.776 212.724C220.794 212.731 220.805 212.713 220.79 212.702C211.034 203.681 213.326 192.74 189.349 189.242C188.232 187.644 185.998 186.128 182.581 186.776L171.69 191.879L166.242 214.757L168.719 222.327L171.857 221.34V221.336Z" fill="#74BBFD"/>
<path d="M213.457 250.33L213.272 250.319C208.539 250.051 204.473 249.197 200.886 248.445C196.019 247.425 191.815 246.543 187.387 247.335C185.138 247.78 183.096 246.156 181.453 244.85C181.239 244.68 181.029 244.513 180.826 244.354L180.673 244.235L180.8 244.09C187.256 236.751 183.307 228.121 181.943 225.651C181.257 224.407 180.264 223.231 178.991 222.157C177.674 221.047 177.116 219.922 176.905 219.39L172.513 224.584C172.437 224.674 172.317 224.707 172.208 224.667C172.096 224.627 172.023 224.526 172.023 224.407C172.005 222.844 171.82 221.922 171.733 221.564L168.607 222.548L166.061 214.757L166.072 214.706L171.537 191.745L177.061 189.156C181.261 187.188 182.277 186.714 182.556 186.624L182.549 186.591C186.589 185.828 188.696 188.016 189.45 189.069C206.257 191.539 210.207 197.703 214.385 204.224C216.166 207.002 218.005 209.877 220.91 212.565L221.026 212.673L220.845 212.952L220.685 212.883C219.528 212.283 218.074 212.272 217.584 212.29L217.747 223.803L219.39 234.777L225.382 246.561L225.277 246.655C222.629 248.966 217.167 249.946 216.939 249.99L216.772 250.019L215.375 244.499L213.616 244.405L213.449 250.33H213.457ZM190.945 246.669C194.169 246.669 197.386 247.346 200.959 248.094C204.487 248.836 208.477 249.671 213.105 249.95L213.272 244.025L215.669 244.152L217.047 249.599C217.976 249.418 222.582 248.434 224.939 246.47L219.046 234.856L217.396 223.828L217.225 211.95L217.392 211.935C217.457 211.928 218.745 211.83 220.036 212.228C217.454 209.686 215.742 207.013 214.081 204.419C209.942 197.956 206.033 191.854 189.324 189.416L189.247 189.405L189.204 189.34C188.529 188.374 186.542 186.215 182.643 186.942C182.15 187.173 172.814 191.546 171.849 191.999L166.434 214.742L168.839 222.095L171.973 221.108L172.031 221.278C172.045 221.318 172.339 222.211 172.382 224.182L177.065 218.648L177.152 218.988C177.152 218.988 177.543 220.468 179.226 221.886C180.532 222.989 181.551 224.197 182.262 225.481C183.647 227.987 187.633 236.704 181.203 244.188C181.359 244.311 181.522 244.438 181.685 244.568C183.35 245.892 185.236 247.396 187.325 246.98C188.547 246.76 189.752 246.666 190.956 246.666L190.945 246.669Z" fill="#002346"/>
<path d="M219.878 234.145L219.516 234.169L227.275 350.665L227.637 350.641L219.878 234.145Z" fill="#002346"/>
<path d="M110.748 234.118L102.518 350.611L102.88 350.636L111.11 234.144L110.748 234.118Z" fill="#002346"/>
<path d="M109.638 199.279L113.598 226.765H159.808V225.448H145.123L140.499 199.117L109.638 199.279Z" fill="#74BBFD"/>
<path d="M159.989 226.946H113.442L113.42 226.79L109.431 199.099L140.655 198.932L145.275 225.267H159.993V226.946H159.989ZM113.754 226.584H159.627V225.629H144.967L144.941 225.481L140.346 199.298L109.848 199.46L113.758 226.584H113.754Z" fill="#002346"/>
<path d="M143.799 225.958C143.712 225.958 143.636 225.897 143.621 225.81L139.001 199.97C138.983 199.873 139.048 199.779 139.146 199.761C139.247 199.743 139.338 199.808 139.356 199.905L143.977 225.745C143.995 225.843 143.93 225.937 143.832 225.955C143.821 225.955 143.81 225.955 143.799 225.955V225.958Z" fill="#002346"/>
<path d="M166.166 194.896C166.688 188.038 162.024 187.456 165.179 182.244C166.452 185.195 165.963 190.968 175.074 191.319L172.658 195.167C172.455 195.489 172.317 195.847 172.248 196.223L168.389 217.382C168.389 217.382 170.7 219.357 171.857 221.332C170.743 225.351 151.927 235.225 155.953 217.722C157.523 212.25 161.288 204.13 165.43 196.95C165.745 196.346 166.144 195.594 166.166 194.892V194.896Z" fill="#F2B3C1"/>
<path d="M160.305 227.94C159.754 227.94 159.228 227.883 158.731 227.756C156.457 227.185 154.099 224.971 155.775 217.683C157.313 212.326 160.95 204.351 165.27 196.86C165.582 196.263 165.963 195.54 165.981 194.889V194.881C166.209 191.865 165.437 190.11 164.751 188.566C163.899 186.638 163.225 185.115 165.02 182.153L165.201 181.853L165.339 182.175C165.582 182.735 165.76 183.39 165.948 184.085C166.768 187.105 167.791 190.859 175.074 191.141L175.385 191.152L172.803 195.265C172.611 195.568 172.48 195.905 172.419 196.256L168.581 217.314C169.002 217.683 170.957 219.444 172.005 221.242L172.045 221.307L172.023 221.379C171.403 223.622 165.056 227.937 160.298 227.937L160.305 227.94ZM166.347 194.907C166.326 195.641 165.923 196.404 165.604 197.015C161.281 204.51 157.657 212.453 156.13 217.777C154.857 223.311 155.786 226.642 158.822 227.409C159.304 227.532 159.819 227.586 160.356 227.586C164.907 227.586 170.95 223.535 171.661 221.358C170.522 219.455 168.295 217.542 168.273 217.52L168.193 217.451L168.211 217.35L172.067 196.191C172.139 195.793 172.284 195.417 172.502 195.069L174.754 191.481C167.482 191.091 166.398 187.098 165.604 184.171C165.455 183.629 165.317 183.112 165.147 182.652C163.682 185.242 164.276 186.584 165.085 188.414C165.752 189.922 166.579 191.796 166.344 194.899L166.347 194.907Z" fill="#002346"/>
<path d="M176.974 219.213C176.923 219.213 176.869 219.191 176.836 219.148C175.995 218.138 175.498 216.033 175.48 215.947C174.671 212.717 172.709 208.951 172.691 208.912C172.644 208.821 172.68 208.713 172.767 208.669C172.858 208.622 172.966 208.658 173.01 208.745C173.028 208.785 175.008 212.586 175.832 215.863C175.839 215.889 176.328 217.976 177.116 218.92C177.181 218.996 177.17 219.111 177.094 219.173C177.061 219.202 177.018 219.216 176.978 219.216L176.974 219.213Z" fill="#002346"/>
<path d="M174.994 221.517C174.918 221.517 174.849 221.47 174.823 221.397C173.053 216.42 169.035 213.979 168.995 213.957C168.908 213.907 168.883 213.794 168.933 213.708C168.984 213.621 169.097 213.595 169.184 213.646C169.223 213.671 173.351 216.171 175.168 221.278C175.201 221.372 175.153 221.477 175.059 221.509C175.037 221.517 175.019 221.52 174.997 221.52L174.994 221.517Z" fill="#002346"/>
<path d="M177.964 209.501C177.895 209.501 177.83 209.461 177.797 209.396C177.217 208.109 176.009 206.712 174.947 205.479C173.583 203.898 172.404 202.535 172.546 201.536L173.83 197.258C173.859 197.164 173.96 197.109 174.054 197.135C174.149 197.164 174.203 197.265 174.178 197.359L172.897 201.612C172.789 202.423 173.971 203.793 175.222 205.244C176.303 206.495 177.525 207.913 178.131 209.248C178.171 209.338 178.131 209.447 178.04 209.487C178.015 209.497 177.99 209.501 177.968 209.501H177.964Z" fill="#002346"/>
<path d="M173.177 199.79C173.137 199.79 173.097 199.775 173.061 199.75L171.755 198.679C171.679 198.614 171.668 198.502 171.73 198.426C171.795 198.35 171.907 198.339 171.983 198.401L173.289 199.471C173.365 199.536 173.376 199.648 173.315 199.724C173.278 199.768 173.227 199.79 173.173 199.79H173.177Z" fill="#002346"/>
<path d="M185.885 205.385C185.885 205.385 185.86 205.385 185.849 205.385C185.751 205.367 185.686 205.269 185.708 205.172C186.451 201.504 187.619 199.931 188.319 198.99C189.298 197.67 189.425 197.5 186.244 193.803C186.179 193.727 186.186 193.612 186.262 193.547C186.339 193.481 186.451 193.489 186.52 193.565C189.766 197.337 189.748 197.677 188.613 199.204C187.887 200.18 186.792 201.652 186.067 205.24C186.048 205.327 185.972 205.385 185.889 205.385H185.885Z" fill="#002346"/>
<path d="M188.446 196.285C188.395 196.285 188.348 196.263 188.312 196.223C188.243 196.151 188.25 196.035 188.326 195.966L191.271 193.311L189.189 189.322C189.142 189.235 189.178 189.123 189.265 189.08C189.356 189.033 189.465 189.069 189.508 189.156L191.656 193.272C191.692 193.344 191.677 193.434 191.616 193.489L188.565 196.238C188.529 196.27 188.486 196.285 188.446 196.285Z" fill="#002346"/>
<path d="M186.048 190.23C186.048 190.23 187.18 188.15 185.787 186.721C185.787 186.721 184.725 186.443 182.581 186.772C182.581 186.772 183.738 189.734 186.048 190.23Z" fill="#74BBFD"/>
<path d="M186.143 190.432L186.009 190.403C183.629 189.893 182.461 186.96 182.411 186.837L182.327 186.627L182.552 186.595C184.71 186.262 185.787 186.537 185.831 186.548L185.878 186.562L185.914 186.598C187.38 188.107 186.215 190.295 186.204 190.32L186.139 190.44L186.143 190.432ZM182.842 186.917C183.147 187.571 184.195 189.553 185.947 190.02C186.15 189.572 186.738 188.009 185.693 186.888C185.475 186.844 184.522 186.689 182.842 186.92V186.917Z" fill="#002346"/>
<path d="M198.92 203.768C198.822 203.768 198.743 203.692 198.739 203.594C198.572 199.182 201.753 193.04 201.891 192.783C201.938 192.697 202.047 192.66 202.134 192.707C202.224 192.754 202.257 192.863 202.21 192.95C202.177 193.011 198.938 199.265 199.098 203.58C199.102 203.681 199.025 203.764 198.924 203.768C198.924 203.768 198.92 203.768 198.917 203.768H198.92Z" fill="#002346"/>
<path d="M208.716 210.984C208.662 210.984 208.608 210.959 208.571 210.912C208.51 210.832 208.528 210.72 208.608 210.659C208.647 210.63 212.525 207.74 217.051 208.752C217.149 208.774 217.21 208.872 217.189 208.969C217.167 209.067 217.073 209.129 216.971 209.107C212.612 208.134 208.865 210.919 208.829 210.948C208.796 210.973 208.756 210.984 208.72 210.984H208.716Z" fill="#002346"/>
<path d="M220.874 212.778C220.874 212.778 222.898 214.583 219.887 217.129L217.406 212.12C217.406 212.12 219.554 211.953 220.874 212.778Z" fill="#74BBFD"/>
<path d="M219.829 217.415L217.127 211.957L217.396 211.935C217.486 211.928 219.615 211.776 220.972 212.619L220.997 212.637C221.026 212.662 221.737 213.31 221.722 214.384C221.712 215.342 221.135 216.308 220.007 217.263L219.829 217.411V217.415ZM217.693 212.286L219.945 216.836C220.87 216.008 221.345 215.187 221.356 214.388C221.371 213.545 220.841 212.999 220.761 212.919C219.778 212.315 218.299 212.275 217.693 212.286Z" fill="#002346"/>
<path d="M154.02 320.47C154.001 320.47 153.98 320.47 153.962 320.459L130.253 312.379C130.158 312.346 130.108 312.245 130.14 312.151C130.173 312.057 130.274 312.006 130.369 312.039L154.078 320.119C154.172 320.152 154.223 320.253 154.19 320.347C154.165 320.423 154.092 320.47 154.02 320.47Z" fill="#002346"/>
<path d="M146.769 317.916C146.769 317.916 146.744 317.916 146.73 317.913C146.632 317.891 146.57 317.793 146.592 317.696L154.02 283.671C154.041 283.573 154.136 283.512 154.237 283.533C154.335 283.555 154.397 283.653 154.375 283.75L146.947 317.775C146.929 317.859 146.853 317.916 146.769 317.916Z" fill="#002346"/>
<path d="M158.655 306.606C158.604 306.606 158.553 306.584 158.517 306.545C158.466 306.487 158.459 306.4 158.495 306.335C158.531 306.02 158.056 303.959 157.501 301.571C154.836 290.066 148.597 263.119 156.399 257.393C156.41 257.386 156.421 257.379 156.428 257.375C157.719 256.757 169.285 251.299 182.211 248.311C182.309 248.29 182.407 248.351 182.429 248.445C182.451 248.543 182.389 248.64 182.295 248.662C169.412 251.639 157.886 257.075 156.602 257.694C149.014 263.3 155.213 290.058 157.857 301.488C158.883 305.915 158.967 306.389 158.774 306.559C158.742 306.588 158.698 306.603 158.655 306.603V306.606Z" fill="#002346"/>
<path d="M162.539 322.155C162.459 322.155 162.387 322.105 162.365 322.025C162.34 321.928 162.394 321.83 162.492 321.801L189.168 314.336C189.265 314.31 189.363 314.364 189.392 314.462C189.418 314.56 189.363 314.657 189.265 314.686L162.59 322.152C162.59 322.152 162.557 322.159 162.539 322.159V322.155Z" fill="#002346"/>
<path d="M148.093 337.369L148.92 334.24C148.92 334.24 146.443 331.278 135.222 329.136L133.735 331.278C133.735 331.278 135.552 333.09 133.238 335.557C132.374 338.443 139.976 341.734 148.09 337.369H148.093Z" fill="#E6E7E8"/>
<path d="M140.063 339.673C137.539 339.673 135.406 339.011 134.108 337.955C133.187 337.21 132.817 336.338 133.067 335.506L133.078 335.466L133.107 335.434C135.265 333.13 133.676 331.473 133.608 331.404L133.502 331.299L135.142 328.938L135.258 328.959C146.414 331.086 148.956 334.001 149.062 334.124L149.123 334.197L148.253 337.488L148.184 337.524C145.37 339.04 142.53 339.669 140.067 339.669L140.063 339.673ZM133.401 335.651C133.219 336.323 133.553 337.04 134.337 337.676C136.306 339.271 141.728 340.559 147.937 337.249L148.717 334.294C148.271 333.853 145.29 331.26 135.301 329.339L133.963 331.267C134.326 331.719 135.428 333.455 133.401 335.647V335.651Z" fill="#002346"/>
<path d="M176.495 191.015C172.071 192.32 167.421 189.799 166.115 185.387C164.019 178.872 160.642 170.521 169.514 167.457C173.938 166.151 178.588 168.673 179.894 173.085C181.99 179.599 185.367 187.951 176.495 191.015Z" fill="#F2B3C1"/>
<path d="M174.131 191.539C170.446 191.539 167.036 189.137 165.941 185.437C165.814 185.047 165.684 184.645 165.549 184.24C163.5 177.994 160.951 170.224 169.452 167.284C171.646 166.636 173.953 166.879 175.959 167.967C177.961 169.052 179.422 170.854 180.068 173.035C180.195 173.425 180.325 173.827 180.46 174.232C182.509 180.478 185.058 188.248 176.557 191.185H176.55C175.745 191.423 174.932 191.539 174.134 191.539H174.131ZM171.893 167.295C171.113 167.295 170.33 167.407 169.564 167.635C161.408 170.452 163.79 177.719 165.894 184.132C166.028 184.537 166.159 184.938 166.286 185.336C167.566 189.647 172.118 192.118 176.441 190.848C184.601 188.027 182.219 180.761 180.115 174.351C179.981 173.946 179.85 173.545 179.723 173.147C179.103 171.056 177.707 169.331 175.788 168.293C174.573 167.635 173.242 167.298 171.896 167.298L171.893 167.295Z" fill="#002346"/>
<path d="M180.971 176.767C179.934 176.919 178.465 174.558 176.956 173.588C175.012 172.344 173.801 171.089 171.08 171.324C169.546 171.006 168.146 168.492 166.006 170.257C164.324 172.789 164.16 175.024 165.02 181.665C165.02 181.665 155.521 170.474 166.743 166.524C166.91 166.524 170.87 159.612 177.801 163.396C177.801 163.396 186.879 164.549 188.859 173.436C189.026 173.603 196.581 177.397 195.921 190.396L189.353 189.235C187.989 187.557 186.121 186.139 182.585 186.765L182.135 185.43C183.053 183.973 181.918 179.336 180.971 176.76" fill="#002346"/>
<path d="M196.088 190.617L189.251 189.409L189.207 189.355C187.953 187.81 186.186 186.316 182.614 186.949L182.461 186.978L181.936 185.416L181.983 185.343C182.821 184.012 181.834 179.686 180.848 176.956C180.184 176.937 179.466 176.192 178.639 175.342C178.058 174.746 177.46 174.131 176.858 173.744C176.528 173.534 176.22 173.324 175.922 173.118C174.453 172.112 173.293 171.317 171.095 171.508H171.069H171.044C170.515 171.396 170.021 171.06 169.503 170.702C168.462 169.982 167.475 169.302 166.144 170.387C164.512 172.854 164.338 174.97 165.201 181.65L165.281 182.258L164.886 181.791C164.686 181.556 160.026 175.993 161.31 171.266C161.908 169.067 163.707 167.421 166.656 166.376C166.688 166.34 166.735 166.271 166.808 166.181C170.772 160.943 175.001 161.681 177.863 163.236C178.486 163.33 187.071 164.777 189.022 173.342C189.037 173.349 189.055 173.36 189.073 173.375C191.373 174.807 196.664 179.336 196.102 190.422L196.091 190.628L196.088 190.617ZM189.447 189.076L195.743 190.19C196.222 179.444 191.108 175.064 188.874 173.671C188.78 173.613 188.75 173.595 188.725 173.57L188.689 173.534L188.678 173.483C186.748 164.828 177.863 163.594 177.776 163.584L177.71 163.562C174.976 162.068 170.91 161.345 167.091 166.394C166.913 166.629 166.862 166.698 166.779 166.709C163.943 167.711 162.216 169.273 161.654 171.353C160.639 175.096 163.638 179.553 164.755 181.039C163.983 174.811 164.222 172.612 165.854 170.159L165.89 170.119C167.443 168.839 168.647 169.667 169.706 170.402C170.185 170.731 170.638 171.045 171.088 171.147C173.394 170.955 174.664 171.819 176.125 172.821C176.419 173.024 176.724 173.23 177.05 173.44C177.689 173.849 178.301 174.482 178.896 175.093C179.647 175.867 180.427 176.666 180.942 176.594L181.087 176.572L181.138 176.71C182.081 179.267 183.216 183.853 182.331 185.463L182.704 186.573C186.339 185.98 188.217 187.582 189.447 189.08V189.076Z" fill="#002346"/>
<path d="M182.135 185.437C182.135 185.437 183.078 189.568 186.048 190.226C184.656 193.619 182.835 194.212 183.078 199.113C182.451 199.211 176.477 198.827 176.147 199.442L173.423 191.319C173.423 191.319 179.168 192.248 182.135 185.434V185.437Z" fill="#F2B3C1"/>
<path d="M176.107 199.902L175.977 199.5L173.159 191.094L173.456 191.141C173.684 191.178 179.099 191.962 181.972 185.365L182.193 184.859L182.316 185.398C182.327 185.437 183.27 189.427 186.092 190.053L186.302 190.1L186.223 190.299C185.78 191.373 185.29 192.183 184.855 192.903C183.876 194.52 183.103 195.796 183.267 199.11L183.274 199.272L183.114 199.298C182.922 199.327 182.36 199.319 181.388 199.298C179.952 199.269 176.593 199.2 176.31 199.536L176.111 199.905L176.107 199.902ZM173.688 191.525L176.249 199.16C176.872 198.896 178.526 198.874 181.395 198.932C182.037 198.947 182.607 198.958 182.897 198.947C182.766 195.648 183.593 194.284 184.547 192.711C184.968 192.017 185.403 191.3 185.809 190.349C183.499 189.698 182.447 187.069 182.102 185.962C179.458 191.496 174.885 191.601 173.692 191.525H173.688Z" fill="#002346"/>
<path d="M185.715 178.135C185.475 182.294 180.445 181.954 180.775 177.798C181.014 173.639 186.045 173.979 185.715 178.135Z" fill="#F2B3C1"/>
<path d="M183.187 181.267C182.708 181.267 182.229 181.126 181.82 180.851C180.935 180.254 180.488 179.137 180.594 177.784C180.67 176.435 181.265 175.389 182.226 174.916C183.009 174.529 183.948 174.594 184.674 175.082C185.559 175.679 186.005 176.796 185.9 178.146C185.82 179.498 185.229 180.544 184.268 181.017C183.927 181.184 183.557 181.267 183.19 181.267H183.187ZM183.303 175.024C182.991 175.024 182.675 175.096 182.385 175.237C181.548 175.65 181.025 176.587 180.956 177.806C180.858 179.028 181.246 180.026 182.023 180.547C182.639 180.963 183.437 181.017 184.104 180.688C184.942 180.276 185.465 179.339 185.533 178.12C185.631 176.898 185.24 175.899 184.467 175.379C184.119 175.143 183.713 175.024 183.303 175.024Z" fill="#002346"/>
<path d="M167.784 222.092C167.784 222.092 167.769 222.092 167.758 222.092C167.66 222.077 167.588 221.987 167.602 221.889L168.212 217.361C168.226 217.263 168.317 217.191 168.415 217.205C168.513 217.22 168.585 217.31 168.571 217.408L167.961 221.936C167.95 222.027 167.871 222.092 167.78 222.092H167.784Z" fill="#002346"/>
<path d="M175.302 200.979C175.327 200.104 176.125 199.033 177.232 199.117H185.885C185.885 199.117 188.46 198.665 188.239 201.088C188.221 201.28 188.181 201.464 188.134 201.649L185.537 211.425C185.352 212.123 184.717 212.612 183.992 212.612C182.719 212.376 178.505 213.382 178.117 211.472C177.917 210.441 174.958 201.858 175.298 200.979H175.302Z" fill="#FFF1C2"/>
<path d="M180.909 212.85C179.52 212.85 178.171 212.63 177.942 211.508C177.881 211.197 177.558 210.163 177.148 208.85C175.926 204.94 174.929 201.641 175.121 200.947C175.146 200.401 175.429 199.818 175.872 199.424C176.27 199.066 176.746 198.9 177.246 198.936V198.958C177.438 198.936 177.819 198.936 178.584 198.936H185.889C185.911 198.929 187.151 198.719 187.902 199.406C188.315 199.786 188.493 200.357 188.424 201.102C188.406 201.283 188.373 201.471 188.312 201.696L185.715 211.472C185.508 212.25 184.801 212.792 183.996 212.792C183.622 212.727 183.035 212.76 182.356 212.796C181.903 212.821 181.402 212.85 180.909 212.85ZM177.119 199.294C176.659 199.294 176.321 199.507 176.115 199.695C175.745 200.028 175.498 200.535 175.483 200.987L175.473 201.048C175.262 201.594 176.717 206.246 177.496 208.745C177.91 210.065 178.236 211.111 178.298 211.44C178.545 212.651 180.735 212.528 182.335 212.438C183.038 212.398 183.644 212.366 184.028 212.438C184.638 212.438 185.2 212.004 185.363 211.385L187.96 201.609C188.014 201.406 188.047 201.236 188.061 201.077C188.119 200.451 187.982 199.981 187.655 199.681C187.035 199.113 185.929 199.301 185.918 199.301C185.885 199.301 177.29 199.301 177.232 199.301C177.195 199.301 177.155 199.298 177.119 199.298V199.294Z" fill="#002346"/>
<path d="M184.068 346.747L184.565 349.71C183.894 350.867 157.364 350.165 153.044 350.202C153.044 350.202 144.793 350.697 146.773 346.91C156.174 347.33 172.527 346.462 181.925 345.594L184.072 346.747H184.068Z" fill="white"/>
<path d="M172.183 350.56C168.465 350.56 163.979 350.516 158.792 350.444C156.123 350.408 154.016 350.379 153.044 350.386V350.375C152.271 350.549 148.648 350.426 147.157 349.446C146.505 349.019 145.884 348.216 146.61 346.827L146.664 346.726H146.78C156.482 347.163 173.162 346.223 181.907 345.416H181.961L184.231 346.632L184.75 349.746L184.717 349.8C184.395 350.361 179.981 350.556 172.176 350.556L172.183 350.56ZM153.465 350.024C154.567 350.024 156.471 350.05 158.8 350.082C166.753 350.191 183.18 350.415 184.373 349.648L183.909 346.867L181.888 345.782C173.155 346.585 156.598 347.518 146.882 347.098C146.581 347.72 146.566 348.23 146.842 348.65C147.745 350.035 151.619 350.111 153.033 350.024C153.16 350.024 153.301 350.024 153.465 350.024Z" fill="#002346"/>
<path d="M162.118 336.71C159.997 338.121 153.153 344.215 150.665 344.657C148.811 345.17 146.073 346.179 146.987 347.474C151.132 349.142 171.962 350.274 184.068 346.751L182.251 338.685L177.464 336.71C177.464 336.71 165.252 334.898 162.115 336.71H162.118Z" fill="#74BBFD"/>
<path d="M163.526 349.236C155.786 349.236 149.022 348.484 146.922 347.641L146.871 347.619L146.838 347.576C146.621 347.268 146.566 346.95 146.682 346.635C146.962 345.85 148.285 345.127 150.618 344.48C152.337 344.172 156.239 341.069 159.094 338.801C160.323 337.824 161.382 336.982 162.02 336.558L162.031 336.551C165.187 334.732 176.996 336.453 177.496 336.529L177.54 336.54L182.414 338.551L184.289 346.874L184.126 346.921C178.276 348.625 170.507 349.232 163.533 349.232L163.526 349.236ZM147.107 347.326C151.176 348.903 171.61 350.122 183.854 346.624L182.095 338.819L177.416 336.887C176.833 336.804 165.205 335.148 162.213 336.866C161.585 337.282 160.533 338.121 159.315 339.087C156.272 341.506 152.485 344.516 150.694 344.834C148.565 345.427 147.252 346.111 147.02 346.758C146.954 346.946 146.98 347.131 147.103 347.326H147.107Z" fill="#002346"/>
<path d="M182.255 338.685L180.275 331.607C180.275 331.607 176.974 334.24 165.423 333.252L162.122 336.71C171.523 335.126 167.903 349.608 182.255 338.685Z" fill="#E6E7E8"/>
<path d="M173.768 342.978C171.545 342.978 170.304 341.521 169.028 340.02C167.457 338.175 165.832 336.265 162.151 336.887L161.614 336.978L165.35 333.064L165.437 333.072C176.785 334.041 180.129 331.491 180.162 331.466L180.376 331.296L182.462 338.754L182.364 338.83C178.331 341.897 175.683 342.978 173.768 342.978ZM163.489 336.406C166.427 336.406 167.943 338.19 169.303 339.785C171.657 342.552 173.688 344.943 182.044 338.613L180.166 331.896C179.263 332.449 175.451 334.276 165.491 333.441L162.608 336.457C162.916 336.425 163.21 336.406 163.489 336.406Z" fill="#002346"/>
<path d="M174.635 234.327L167.237 350.295L167.599 350.318L174.996 234.35L174.635 234.327Z" fill="#002346"/>
<path d="M220.315 244.123H110.319V244.485H220.315V244.123Z" fill="#002346"/>
<path d="M183.248 179.032C183.147 179.032 183.067 178.952 183.067 178.851V176.876C183.067 176.775 183.147 176.695 183.248 176.695C183.35 176.695 183.43 176.775 183.43 176.876V178.851C183.43 178.952 183.35 179.032 183.248 179.032Z" fill="#002346"/>
<path d="M145.638 242.727H128.004V244.202H145.638V242.727Z" fill="#002346"/>
<path d="M145.819 244.38H127.823V242.542H145.819V244.38ZM128.185 244.018H145.457V242.904H128.185V244.018Z" fill="#002346"/>
<path d="M47.1537 318.629C47.1537 318.629 47.1537 321.458 47.6542 324.456C47.6542 324.456 51.0925 313.236 62.3938 314.683L60.1742 309.807L58.339 307.977C53.8017 310.324 49.4459 308.914 47.1537 318.633V318.629Z" fill="#83EBA2"/>
<path d="M47.5998 325.244L47.4729 324.485C46.976 321.508 46.9688 318.658 46.9688 318.629V318.589C48.7387 311.095 51.8215 310.1 55.0821 309.048C56.1121 308.715 57.1784 308.371 58.2483 307.818L58.368 307.756L60.3338 309.735L62.6876 314.907L62.3648 314.867C51.3573 313.457 47.8573 324.402 47.8211 324.514L47.5962 325.248L47.5998 325.244ZM47.3314 318.651C47.3314 318.893 47.3568 321.19 47.7231 323.74C48.6879 321.356 52.623 313.439 62.0928 314.466L60.0182 309.912L58.2991 308.198C57.2437 308.729 56.2028 309.066 55.1945 309.391C51.8977 310.455 49.0506 311.373 47.3314 318.651Z" fill="#002346"/>
<path d="M79.1681 310.939C68.9693 310.95 67.446 295.961 77.75 283.486C77.7826 283.447 77.8479 283.472 77.8443 283.526C77.438 287.78 89.958 303.022 81.754 309.999C81.0323 310.61 80.1183 310.939 79.1717 310.939H79.1681Z" fill="#83EBA2"/>
<path d="M79.1572 311.12C75.777 311.12 73.133 309.464 71.7076 306.458C68.8823 300.493 71.3087 291.002 77.6086 283.371C77.6739 283.291 77.7827 283.262 77.877 283.302C77.9749 283.342 78.0293 283.439 78.022 283.541C77.8987 284.828 79.0629 287.281 80.4121 290.12C83.4442 296.511 87.6006 305.261 81.8665 310.133C81.123 310.766 80.1619 311.116 79.1681 311.116H79.1572V311.12ZM77.6557 283.884C70.6196 292.579 69.7963 301.575 72.0341 306.299C73.3978 309.174 75.9257 310.755 79.1572 310.755H79.1681C80.0785 310.755 80.9525 310.437 81.6344 309.858C87.1545 305.163 83.0706 296.558 80.0857 290.272C78.78 287.523 77.7246 285.302 77.6557 283.881V283.884Z" fill="#002346"/>
<path d="M78.5516 305.34C72.1175 301.531 73.5683 290.113 92.6347 283.374C92.671 283.363 92.7073 283.396 92.6928 283.428C92.4752 284.047 91.213 288.087 90.5493 299.488C90.3716 302.526 86.0193 309.76 78.5516 305.337V305.34Z" fill="#83EBA2"/>
<path d="M83.0852 306.91C81.7759 306.91 80.2273 306.541 78.461 305.496C75.9512 304.009 74.6781 301.485 74.9647 298.562C75.545 292.637 82.1314 286.897 92.5767 283.204C92.6602 283.175 92.7508 283.197 92.8125 283.259C92.8741 283.32 92.8959 283.41 92.8669 283.49C92.6275 284.181 91.3908 288.199 90.7343 299.499C90.6327 301.264 89.1276 304.592 86.2225 306.132C85.4246 306.556 84.3728 306.91 83.0888 306.91H83.0852ZM92.4353 283.638C82.2764 287.284 75.8859 292.865 75.3237 298.598C75.0517 301.372 76.2631 303.774 78.6423 305.185C81.2972 306.758 83.8577 306.975 86.0484 305.814C88.7105 304.403 90.2664 301.228 90.368 299.481C90.97 289.136 92.0617 284.846 92.4353 283.638Z" fill="#002346"/>
<path d="M85.2105 330.366C85.5006 332.612 70.2315 332.612 70.5217 330.366C70.2315 328.12 85.5006 328.12 85.2105 330.366Z" fill="#002346"/>
<path d="M77.8661 332.24C74.9175 332.24 71.9688 331.885 70.8517 331.18C70.4818 330.945 70.3077 330.67 70.3367 330.366C70.3077 330.062 70.4818 329.787 70.8517 329.552C73.0823 328.142 82.65 328.142 84.8769 329.552C85.2468 329.787 85.4209 330.062 85.3919 330.366C85.4209 330.67 85.2468 330.945 84.8769 331.18C83.7634 331.885 80.8148 332.24 77.8661 332.24ZM77.8661 328.858C74.9828 328.858 72.0994 329.191 71.0476 329.856C70.7973 330.015 70.6777 330.178 70.6994 330.341V330.363V330.384C70.6777 330.547 70.7937 330.71 71.0476 330.869C73.1512 332.2 82.581 332.204 84.681 330.869C84.9313 330.71 85.0509 330.547 85.0292 330.384V330.363V330.341C85.0509 330.178 84.9349 330.015 84.681 329.856C83.6292 329.191 80.7458 328.858 77.8625 328.858H77.8661Z" fill="#002346"/>
<path d="M85.8126 350.26C85.1525 350.162 68.3383 350.545 68.2984 349.949C64.9871 348.382 64.8456 343.268 64.8456 343.268C64.3451 336.443 70.5217 332.782 70.5217 332.782V330.37C70.2315 332.616 85.5007 332.616 85.2105 330.37V332.949C93.2948 338.24 91.6555 349.724 85.8126 350.26Z" fill="#74BBFD"/>
<path d="M75.9765 350.469C70.1336 350.469 68.5813 350.346 68.2186 350.111C64.8492 348.513 64.6715 343.489 64.6643 343.275C64.1964 336.877 69.5787 333.173 70.3403 332.685V330.511C70.3331 330.457 70.3331 330.402 70.3403 330.348L70.703 330.37V330.478C70.7248 330.612 70.8408 330.746 71.0476 330.88C73.1511 332.211 82.581 332.211 84.681 330.88C84.8877 330.75 85.0038 330.616 85.0255 330.478V330.37L85.3882 330.348C85.3955 330.402 85.3955 330.46 85.3882 330.511V332.855C90.3389 336.146 91.5684 341.738 90.6109 345.565C89.9 348.411 88.1084 350.238 85.8271 350.448H85.8053H85.7835C85.6022 350.419 83.8686 350.433 81.8629 350.448C79.5308 350.466 77.5868 350.477 75.9729 350.477L75.9765 350.469ZM68.4761 349.858C69.3357 350.18 77.4562 350.115 81.8629 350.079C84.253 350.061 85.5514 350.05 85.8162 350.079C87.9306 349.876 89.5918 348.155 90.2627 345.471C91.1948 341.745 89.9798 336.284 85.1089 333.097L85.0255 333.043V331.072C84.9784 331.108 84.9312 331.144 84.8732 331.176C82.6463 332.587 73.0786 332.591 70.8481 331.176C70.7937 331.14 70.7429 331.108 70.6958 331.068V332.876L70.6087 332.931C70.5471 332.967 64.5337 336.62 65.0197 343.25C65.0197 343.308 65.201 348.281 68.3709 349.782L68.4652 349.829V349.858H68.4761Z" fill="#002346"/>
<path d="M78.4247 334.262C73.9346 334.262 70.5072 332.97 70.4564 332.949L70.587 332.612C70.6595 332.641 77.9568 335.387 85.1489 332.779L85.2722 333.119C82.9184 333.972 80.5536 334.262 78.4247 334.262Z" fill="#002346"/>
<path d="M85.7111 335.944C85.7292 337.238 83.6873 337.238 83.709 335.944C83.6909 334.649 85.7328 334.649 85.7111 335.944Z" fill="white"/>
<path d="M88.7178 338.938C88.7359 340.233 86.694 340.233 86.7157 338.938C86.6976 337.644 88.7395 337.644 88.7178 338.938Z" fill="white"/>
<path d="M89.2183 343.767C89.2364 345.062 87.1945 345.062 87.2162 343.767C87.1981 342.472 89.24 342.472 89.2183 343.767Z" fill="white"/>
<path d="M86.5452 347.431C86.5633 348.726 84.5214 348.726 84.5431 347.431C84.525 346.136 86.5669 346.136 86.5452 347.431Z" fill="white"/>
<path d="M78.3666 348.429C78.3847 349.724 76.3428 349.724 76.3646 348.429C76.3464 347.135 78.3883 347.135 78.3666 348.429Z" fill="white"/>
<path d="M72.0232 347.431C72.0413 348.726 69.9994 348.726 70.0212 347.431C70.003 346.136 72.045 346.136 72.0232 347.431Z" fill="white"/>
<path d="M68.5197 344.599C68.5378 345.894 66.4959 345.894 66.5176 344.599C66.4995 343.304 68.5414 343.304 68.5197 344.599Z" fill="white"/>
<path d="M69.0202 338.938C69.0383 340.233 66.9964 340.233 67.0181 338.938C67 337.644 69.0419 337.644 69.0202 338.938Z" fill="white"/>
<path d="M72.6906 335.611C72.7087 336.906 70.6668 336.906 70.6885 335.611C70.6704 334.316 72.7123 334.316 72.6906 335.611Z" fill="white"/>
<path d="M76.0309 338.606C76.049 339.901 74.0071 339.901 74.0289 338.606C74.0107 337.311 76.0526 337.311 76.0309 338.606Z" fill="white"/>
<path d="M72.1901 341.271C72.2082 342.566 70.1663 342.566 70.188 341.271C70.1699 339.976 72.2118 339.976 72.1901 341.271Z" fill="white"/>
<path d="M75.5304 344.599C75.5485 345.894 73.5066 345.894 73.5284 344.599C73.5102 343.304 75.5522 343.304 75.5304 344.599Z" fill="white"/>
<path d="M79.2008 341.77C79.2189 343.065 77.177 343.065 77.1988 341.77C77.1806 340.476 79.2226 340.476 79.2008 341.77Z" fill="white"/>
<path d="M79.8682 336.11C79.8863 337.405 77.8444 337.405 77.8661 336.11C77.848 334.815 79.8899 334.815 79.8682 336.11Z" fill="white"/>
<path d="M82.8749 339.604C82.893 340.899 80.8511 340.899 80.8729 339.604C80.8547 338.309 82.8966 338.309 82.8749 339.604Z" fill="white"/>
<path d="M85.2106 341.937C85.2287 343.232 83.1868 343.232 83.2085 341.937C83.1904 340.642 85.2323 340.642 85.2106 341.937Z" fill="white"/>
<path d="M81.8738 345.264C81.8919 346.559 79.85 346.559 79.8718 345.264C79.8536 343.969 81.8955 343.969 81.8738 345.264Z" fill="white"/>
<path d="M79.5345 330.131C79.4366 330.131 79.3568 330.051 79.3532 329.954C78.9216 311.431 82.349 299.933 85.3012 293.552C88.511 286.615 91.7752 284.108 91.913 284.004C91.9928 283.942 92.1052 283.96 92.1669 284.04C92.2286 284.119 92.2104 284.231 92.1306 284.293C92.098 284.318 88.783 286.868 85.6131 293.737C82.6863 300.081 79.2843 311.518 79.7158 329.946C79.7158 330.048 79.6397 330.131 79.5381 330.131H79.5345Z" fill="#002346"/>
<path d="M94.2233 319.132C88.7177 314.661 80.8909 320.799 88.7141 328.453C88.7141 328.453 92.7218 332.113 94.3902 335.944C94.3902 335.944 102.068 330.449 102.235 322.959C102.235 322.959 102.235 315.301 94.2233 319.128V319.132Z" fill="#83EBA2"/>
<path d="M94.314 336.222L94.2233 336.016C92.5912 332.272 88.6307 328.623 88.5944 328.587C84.3691 324.452 84.768 320.872 86.3929 319.059C88.0177 317.247 91.3109 316.596 94.2487 318.918C96.8238 317.707 98.8584 317.551 100.295 318.455C102.391 319.772 102.416 322.832 102.416 322.962C102.25 330.46 94.5715 336.038 94.4953 336.092L94.314 336.222ZM88.8265 328.341C89.4975 328.854 92.9104 332.283 94.4627 335.665C95.6124 334.782 101.905 329.636 102.054 322.959C102.054 322.933 102.028 319.971 100.099 318.763C98.7569 317.92 96.8056 318.101 94.2995 319.298L94.1943 319.349L94.1036 319.276C91.3145 317.012 88.1846 317.602 86.6576 319.305C85.138 320.998 84.8007 324.376 88.8374 328.33L88.8229 328.344L88.8265 328.341Z" fill="#002346"/>
<path d="M94.7384 335.177L94.3793 335.119C95.9643 325.541 94.742 318.076 91.1079 315.153C89.639 313.974 87.8872 313.695 86.1717 314.372C82.9329 315.652 80.4267 320.011 79.6288 325.751L79.2698 325.7C80.0967 319.743 82.6283 315.381 86.0375 314.032C87.88 313.305 89.7587 313.601 91.3327 314.867C95.0721 317.873 96.3415 325.465 94.7348 335.173L94.7384 335.177Z" fill="#002346"/>
<path d="M47.1538 318.629C55.8039 303.423 59.8406 318.633 72.8611 316.466C73.0569 298.985 47.346 300.146 47.1538 318.629Z" fill="#83EBA2"/>
<path d="M46.9652 319.327L46.9724 318.625C47.0305 312.903 49.6382 308.176 54.1174 305.659C58.3354 303.289 63.5762 303.242 67.4643 305.539C71.1129 307.695 73.0932 311.576 73.0387 316.466V316.618L72.8864 316.643C67.6021 317.522 63.8628 315.613 60.5623 313.931C55.8256 311.514 52.4019 309.767 47.3097 318.719L46.9615 319.327H46.9652ZM61.0411 304.212C58.738 304.212 56.3878 304.801 54.2951 305.977C51.8107 307.373 47.6833 310.755 47.3533 317.924C52.4309 309.377 56.1049 311.25 60.7292 313.609C63.9462 315.251 67.5948 317.11 72.6797 316.311C72.6906 311.627 70.7792 307.916 67.2829 305.85C65.4296 304.754 63.2571 304.208 61.0447 304.208L61.0411 304.212Z" fill="#002346"/>
<path d="M75.7118 329.957L75.3491 329.943C75.817 318.502 70.6124 312.733 67.4643 310.31C63.3478 307.141 58.1759 306.078 53.6314 307.467L53.5262 307.12C58.1831 305.695 63.4784 306.78 67.6892 310.021C70.8917 312.484 76.1906 318.351 75.7154 329.954L75.7118 329.957Z" fill="#002346"/>
<path d="M181.997 197.782C181.957 197.782 181.921 197.771 181.888 197.746C181.7 197.612 180.993 194.903 181.468 192.848C181.653 192.053 181.983 191.427 182.458 190.982C182.258 190.718 182.099 190.407 181.994 190.056C181.584 188.722 182.015 186.946 183.894 185.987C183.981 185.94 184.094 185.976 184.137 186.067C184.184 186.157 184.148 186.266 184.057 186.309C182.364 187.177 181.972 188.765 182.338 189.951C182.425 190.233 182.559 190.508 182.741 190.747C183.111 190.483 183.553 190.302 184.065 190.215C184.576 190.179 184.899 190.523 185 190.874C185.12 191.279 184.964 191.68 184.609 191.879C184.587 191.89 184.565 191.897 184.543 191.901C183.843 191.984 183.19 191.742 182.697 191.257C182.465 191.478 182.269 191.753 182.113 192.071C181.188 193.981 181.946 197.08 182.128 197.471C182.135 197.478 182.142 197.489 182.15 197.5C182.2 197.587 182.175 197.695 182.088 197.749C182.059 197.768 182.026 197.775 181.994 197.775L181.997 197.782ZM182.987 191.029C183.361 191.391 183.865 191.611 184.467 191.554C184.688 191.413 184.714 191.17 184.659 190.986C184.598 190.772 184.402 190.563 184.112 190.584C183.684 190.657 183.307 190.809 182.987 191.033V191.029Z" fill="white"/>
<path d="M189.585 209.096C189.585 209.096 189.57 209.096 189.563 209.096L186.299 208.734C186.201 208.723 186.128 208.633 186.139 208.535C186.15 208.438 186.241 208.365 186.339 208.376L189.436 208.72L190.818 201.479L188.109 201.142C188.011 201.131 187.938 201.041 187.953 200.94C187.963 200.842 188.054 200.77 188.156 200.784L191.057 201.146C191.108 201.153 191.151 201.178 191.18 201.218C191.21 201.258 191.22 201.309 191.213 201.359L189.762 208.955C189.744 209.042 189.672 209.103 189.585 209.103V209.096Z" fill="#002346"/>
<path d="M189.186 203.725C189.157 203.699 188.431 202.09 190.288 201.099C190.009 201.139 188.725 201.244 189.019 199.775L192.816 200.271C194.88 199.952 209.112 211.505 211.959 213.603C211.959 213.603 213.609 212.286 217.406 212.12C218.146 214.323 222.578 220.866 221.871 223.307C221.073 228.277 211.937 231.037 205.191 222.656C201.434 217.299 197.894 212.926 196.701 211.48C196.138 210.489 192.011 211.411 191.144 211.281C190.129 211.32 187.089 211.197 188.852 209.653C188.852 209.653 186.872 207.678 188.852 206.524C188.852 206.524 187.862 205.041 189.182 203.725H189.186Z" fill="#F2B3C1"/>
<path d="M215.053 228.186C212.024 228.186 208.281 226.776 205.053 222.765C201.343 217.477 197.883 213.187 196.566 211.588C196.222 210.988 194.046 211.219 192.744 211.357C192.004 211.436 191.416 211.498 191.122 211.454C190.887 211.465 188.522 211.537 188.181 210.687C188.058 210.38 188.196 210.033 188.602 209.639C188.323 209.317 187.699 208.492 187.808 207.642C187.869 207.172 188.141 206.777 188.613 206.459C188.395 206.025 187.934 204.806 188.972 203.685C188.892 203.479 188.816 203.132 188.848 202.759C188.885 202.332 189.073 201.764 189.693 201.269C189.476 201.229 189.244 201.139 189.07 200.954C188.812 200.683 188.736 200.271 188.841 199.735L188.874 199.569L192.816 200.082C194.47 199.902 202.141 205.75 209.202 211.244C210.41 212.185 211.379 212.937 211.959 213.371C212.398 213.071 214.095 212.076 217.396 211.935L217.533 211.928L217.577 212.058C217.809 212.746 218.407 213.87 219.107 215.176C220.642 218.048 222.549 221.618 222.045 223.354C221.704 225.474 219.894 227.224 217.319 227.904C216.63 228.085 215.865 228.19 215.049 228.19L215.053 228.186ZM195.069 210.829C195.979 210.829 196.624 210.966 196.86 211.386C198.162 212.963 201.63 217.26 205.34 222.548C209.322 227.496 214.091 228.378 217.225 227.553C219.659 226.913 221.367 225.271 221.69 223.275C222.158 221.658 220.206 218.012 218.785 215.346C218.121 214.105 217.544 213.024 217.279 212.304C213.692 212.489 212.089 213.726 212.071 213.74L211.962 213.827L211.85 213.744C211.281 213.324 210.265 212.536 208.978 211.534C204.252 207.855 194.408 200.205 192.842 200.448H192.816L189.168 199.978C189.128 200.307 189.182 200.553 189.331 200.708C189.596 200.99 190.111 200.943 190.259 200.922L191.275 200.781L190.372 201.262C189.788 201.573 189.414 201.978 189.269 202.466C189.102 203.023 189.28 203.504 189.327 203.609L189.458 203.71L189.313 203.855C188.116 205.049 188.968 206.369 189.004 206.427L189.11 206.586L188.943 206.683C188.478 206.955 188.214 207.295 188.163 207.693C188.047 208.582 188.972 209.516 188.979 209.526L189.117 209.664L188.972 209.79C188.605 210.112 188.442 210.384 188.511 210.557C188.671 210.959 189.973 211.147 191.137 211.1C191.42 211.14 192.044 211.074 192.7 211.002C193.589 210.908 194.398 210.832 195.065 210.832L195.069 210.829Z" fill="#002346"/>
<path d="M217.736 218.717C217.693 218.717 217.649 218.703 217.617 218.674L212.224 213.925C212.147 213.86 212.14 213.744 212.209 213.668C212.274 213.592 212.39 213.585 212.467 213.653L217.86 218.402C217.936 218.468 217.943 218.583 217.874 218.659C217.838 218.699 217.787 218.721 217.736 218.721V218.717Z" fill="#002346"/>
<path d="M193.817 202.028C193.128 202.028 192.45 201.732 191.87 201.475C191.235 201.196 190.687 200.958 190.419 201.225C190.35 201.298 190.234 201.298 190.161 201.225C190.089 201.157 190.089 201.041 190.161 200.969C190.607 200.524 191.289 200.824 192.015 201.142C192.867 201.515 193.832 201.942 194.706 201.428C194.793 201.377 194.902 201.406 194.952 201.493C195.003 201.58 194.974 201.688 194.887 201.739C194.535 201.945 194.173 202.028 193.814 202.028H193.817Z" fill="#002346"/>
<path d="M192.156 204.564C192.156 204.564 192.131 204.564 192.116 204.56L189.146 203.902C189.048 203.88 188.986 203.783 189.008 203.685C189.03 203.587 189.128 203.526 189.226 203.548L192.196 204.206C192.294 204.228 192.356 204.325 192.334 204.423C192.316 204.506 192.24 204.564 192.156 204.564Z" fill="#002346"/>
<path d="M191.826 207.526C191.826 207.526 191.793 207.526 191.779 207.519L188.809 206.698C188.711 206.673 188.656 206.571 188.682 206.474C188.707 206.376 188.809 206.322 188.906 206.347L191.877 207.168C191.975 207.193 192.029 207.295 192.004 207.392C191.982 207.472 191.91 207.526 191.83 207.526H191.826Z" fill="#002346"/>
<path d="M191.993 210.326C191.485 210.326 188.932 209.848 188.823 209.83C188.725 209.812 188.66 209.718 188.678 209.62C188.696 209.523 188.79 209.458 188.888 209.476C189.617 209.613 191.598 209.968 191.989 209.968C192.091 209.968 192.171 210.047 192.171 210.149C192.171 210.25 192.091 210.329 191.989 210.329L191.993 210.326Z" fill="#002346"/>
<path d="M194.796 211.147C194.695 211.147 194.615 211.067 194.615 210.966C194.615 210.872 194.684 210.796 194.775 210.785C194.88 210.734 195.406 210.196 195.116 209.034C195.094 208.944 195.145 208.85 195.235 208.817C195.243 208.817 195.888 208.593 196.062 208.137C196.142 207.924 196.109 207.696 195.961 207.432C195.917 207.356 195.935 207.262 195.997 207.208C196.001 207.204 196.483 206.774 196.519 206.134C196.545 205.7 196.363 205.262 195.982 204.832C195.917 204.759 195.921 204.651 195.99 204.582C195.99 204.582 196.342 204.155 195.478 203.009C195.417 202.929 195.435 202.817 195.515 202.755C195.594 202.694 195.707 202.712 195.768 202.792C196.566 203.851 196.465 204.441 196.345 204.694C196.733 205.168 196.915 205.66 196.886 206.159C196.849 206.752 196.516 207.19 196.342 207.374C196.49 207.685 196.508 207.986 196.403 208.264C196.229 208.72 195.754 208.984 195.504 209.096C195.707 210.087 195.366 210.662 195.203 210.868C195.137 210.951 194.971 211.14 194.796 211.14V211.147Z" fill="#002346"/>
<path d="M305.826 350.339H31.2717V350.701H305.826V350.339Z" fill="#002346"/>
<path d="M233.321 148.555L237.256 151.123L245.257 148.812L244.26 145.394L233.321 148.555Z" fill="#FFF1C2"/>
<path d="M237.224 151.318L232.89 148.49L244.383 145.166L245.479 148.931L237.22 151.318H237.224ZM233.749 148.616L237.282 150.924L245.029 148.685L244.133 145.614L233.746 148.616H233.749Z" fill="#002346"/>
<path d="M233.252 148.323L235.2 144.055L243.197 141.737L244.194 145.159L233.252 148.323Z" fill="#FFF1C2"/>
<path d="M232.926 148.606L235.069 143.904L243.32 141.513L244.416 145.282L232.922 148.606H232.926ZM235.33 144.204L233.582 148.038L243.97 145.036L243.074 141.961L235.33 144.204Z" fill="#002346"/>
<path d="M219.561 152.762C219.405 152.762 219.26 152.66 219.213 152.501C219.158 152.309 219.267 152.107 219.459 152.053L244.227 144.887C244.419 144.833 244.619 144.942 244.677 145.133C244.731 145.325 244.623 145.528 244.43 145.582L219.662 152.747C219.63 152.758 219.594 152.762 219.561 152.762Z" fill="#002346"/>
<path d="M50.9729 234.285C50.9294 234.285 50.8859 234.27 50.8496 234.238C50.7771 234.169 50.7698 234.057 50.8387 233.981L58.6147 225.503C58.68 225.43 58.7924 225.423 58.865 225.488L66.4923 231.905L73.4232 222.609C73.4232 222.609 73.4523 222.576 73.4704 222.566L78.4791 219.285C78.5625 219.231 78.6749 219.252 78.7294 219.336C78.7838 219.419 78.762 219.531 78.6786 219.585L73.6953 222.848L66.67 232.27C66.641 232.31 66.5938 232.335 66.5467 232.342C66.4959 232.35 66.4488 232.331 66.4089 232.303L58.7671 225.872L51.1107 234.223C51.0745 234.263 51.0273 234.281 50.9765 234.281L50.9729 234.285Z" fill="#002346"/>
<path d="M79.4584 222.323L82.0697 217.144L76.2667 217.48L79.4584 222.323Z" fill="#74BBFD"/>
<path d="M79.4802 222.685L75.944 217.317L82.3744 216.948L79.4838 222.689L79.4802 222.685ZM76.5896 217.639L79.4366 221.962L81.7651 217.343L76.5896 217.639Z" fill="#002346"/>
<path d="M74.4279 176.377L68.3093 172.854C67.4788 172.376 66.4379 172.973 66.4379 173.932V180.981C66.4379 181.94 67.4788 182.54 68.3093 182.059L74.4279 178.532C75.2584 178.051 75.2584 176.854 74.4279 176.377Z" fill="#74BBFD"/>
<path d="M67.6819 182.41C67.4353 182.41 67.1923 182.345 66.9674 182.218C66.5213 181.961 66.2529 181.498 66.2529 180.985V173.935C66.2529 173.418 66.5213 172.959 66.9674 172.702C67.4135 172.445 67.9503 172.445 68.3964 172.702L74.5149 176.225C74.961 176.482 75.2294 176.945 75.2294 177.458C75.2294 177.972 74.961 178.435 74.5149 178.692L68.3964 182.218C68.1715 182.348 67.9285 182.41 67.6819 182.41ZM67.6819 172.868C67.4969 172.868 67.3156 172.915 67.1488 173.013C66.8151 173.205 66.6156 173.548 66.6156 173.935V180.985C66.6156 181.368 66.8151 181.715 67.1488 181.907C67.4824 182.099 67.8814 182.099 68.2151 181.907L74.3336 178.381C74.6673 178.189 74.8667 177.845 74.8667 177.458C74.8667 177.075 74.6673 176.728 74.3336 176.536L68.2151 173.013C68.0482 172.915 67.8633 172.868 67.6819 172.868Z" fill="#002346"/>
<path d="M216.137 321.074L251.372 320.995C252.612 320.987 253.686 321.841 253.962 323.046L258.941 344.903C259.598 347.789 257.4 350.538 254.433 350.542L217.167 350.582L216.133 321.074H216.137Z" fill="#74BBFD"/>
<path d="M216.993 350.762L215.948 320.893L251.372 320.814C252.71 320.814 253.842 321.711 254.139 323.006L259.119 344.863C259.445 346.292 259.104 347.771 258.191 348.918C257.273 350.064 255.906 350.723 254.433 350.726L216.993 350.766V350.762ZM216.322 321.255L217.341 350.401L254.429 350.361C255.79 350.361 257.055 349.75 257.904 348.69C258.753 347.63 259.065 346.263 258.764 344.943L253.784 323.085C253.526 321.96 252.54 321.175 251.383 321.175H251.372L216.322 321.255Z" fill="#002346"/>
<path d="M219.408 350.535H212.76C211.908 350.535 211.074 350.271 210.396 349.761C209.206 348.86 207.926 346.976 208.774 343.131L213.649 322.763C214.149 320.506 217.359 320.434 217.965 322.662L223.387 343.941C223.79 345.427 223.656 347.019 222.948 348.39C222.923 348.437 222.897 348.487 222.872 348.534C222.183 349.782 220.845 350.535 219.416 350.535H219.408Z" fill="#002346"/>
<path d="M219.408 350.719H212.76C211.857 350.719 210.976 350.43 210.287 349.905C209.039 348.961 207.734 347.015 208.597 343.091L213.471 322.72C213.718 321.61 214.617 320.875 215.763 320.85C216.895 320.821 217.842 321.516 218.139 322.615L223.561 343.897C223.986 345.46 223.826 347.088 223.108 348.473C223.082 348.524 223.053 348.574 223.028 348.625C222.314 349.916 220.928 350.719 219.412 350.719H219.408ZM215.814 321.212C215.814 321.212 215.782 321.212 215.767 321.212C215.027 321.23 214.077 321.657 213.823 322.803L208.949 343.174C208.125 346.907 209.34 348.737 210.504 349.619C211.136 350.097 211.937 350.357 212.76 350.357H219.408C220.794 350.357 222.06 349.627 222.709 348.448C222.734 348.401 222.76 348.354 222.785 348.306C223.46 347.001 223.612 345.467 223.209 343.988L217.787 322.706C217.486 321.599 216.55 321.208 215.818 321.208L215.814 321.212Z" fill="#002346"/>
<path d="M221.077 317.49H212.724C212.724 317.49 213.094 316.054 214.672 315.153C217.029 313.808 220.076 314.802 221.022 317.341C221.041 317.392 221.059 317.439 221.073 317.49H221.077Z" fill="#002346"/>
<path d="M221.327 317.671H212.488L212.546 317.446C212.561 317.385 212.956 315.924 214.577 314.998C215.785 314.307 217.221 314.184 218.52 314.65C219.76 315.099 220.736 316.057 221.189 317.28C221.207 317.331 221.226 317.381 221.244 317.435L221.323 317.674L221.327 317.671ZM212.978 317.309H220.816C220.384 316.231 219.506 315.388 218.4 314.99C217.203 314.556 215.876 314.676 214.762 315.312C213.642 315.952 213.152 316.886 212.982 317.312L212.978 317.309Z" fill="#002346"/>
<path d="M216.946 314.535H234.906C234.906 314.535 238.076 316.173 239.813 321.042H221.494C221.494 321.042 222.335 314.806 216.946 314.535Z" fill="white"/>
<path d="M240.071 321.222H221.287L221.316 321.016C221.32 320.987 221.697 318.007 220.163 316.169C219.416 315.276 218.331 314.788 216.938 314.715L216.946 314.354H234.95L234.989 314.375C235.12 314.444 238.243 316.101 239.984 320.98L240.071 321.222ZM221.697 320.861H239.556C237.949 316.585 235.211 314.914 234.862 314.715H218.737C219.416 314.983 219.985 315.388 220.442 315.938C221.857 317.634 221.762 320.126 221.697 320.861Z" fill="#002346"/>
<path d="M231.403 317.222L232.211 320.984L247.129 320.98L246.218 317.132L231.403 317.222Z" fill="#E6E7E8"/>
<path d="M232.063 321.164L231.178 317.041L246.363 316.951L247.357 321.161H232.066L232.063 321.164ZM231.624 317.406L232.353 320.806H246.893L246.07 317.32L231.62 317.406H231.624Z" fill="#002346"/>
<path d="M240.415 338.273C237.347 338.273 234.678 337.459 232.48 335.849C230.191 334.175 228.574 331.69 227.921 328.847L226.205 321.157C226.184 321.06 226.245 320.962 226.343 320.94C226.441 320.919 226.539 320.98 226.561 321.078L228.276 328.767C228.907 331.52 230.478 333.932 232.697 335.556C234.906 337.173 237.615 337.965 240.742 337.908C240.778 337.908 244.046 337.915 246.215 335.774C247.502 334.5 248.155 332.728 248.159 330.507C248.159 329.646 248.05 328.753 247.832 327.845L246.218 321.074C246.197 320.976 246.255 320.879 246.353 320.857C246.451 320.835 246.548 320.893 246.57 320.991L248.184 327.762C248.405 328.695 248.518 329.621 248.518 330.507C248.518 332.833 247.825 334.692 246.465 336.034C244.187 338.28 240.872 338.269 240.742 338.273C240.633 338.273 240.524 338.273 240.419 338.273H240.415Z" fill="#002346"/>
<path d="M210.396 349.941C210.345 349.941 210.294 349.92 210.258 349.88C210.193 349.804 210.2 349.692 210.276 349.623L215.927 344.755C215.992 344.697 216.094 344.697 216.162 344.755L221.984 349.562C222.06 349.627 222.071 349.739 222.009 349.815C221.944 349.891 221.831 349.902 221.755 349.84L216.05 345.131L210.515 349.898C210.483 349.927 210.439 349.941 210.396 349.941Z" fill="white"/>
<path d="M216.046 345.076C215.945 345.076 215.865 344.997 215.865 344.896V321.074C215.865 320.973 215.945 320.893 216.046 320.893C216.148 320.893 216.228 320.973 216.228 321.074V344.896C216.228 344.997 216.148 345.076 216.046 345.076Z" fill="white"/>
<path d="M226.383 226.57H102.707V234.165H226.383V226.57Z" fill="white"/>
<path d="M226.564 234.35H102.525V226.392H226.564V234.35ZM102.888 233.988H226.202V226.754H102.888V233.988Z" fill="#002346"/>
<path d="M85.8562 186.211H55.3905C55.2889 186.211 55.2091 186.132 55.2091 186.03C55.2091 185.929 55.2889 185.85 55.3905 185.85H85.8562C85.9577 185.85 86.0375 185.929 86.0375 186.03C86.0375 186.132 85.9577 186.211 85.8562 186.211Z" fill="#002346"/>
<path d="M71.1673 188.486H57.3852C57.2836 188.486 57.2039 188.407 57.2039 188.306C57.2039 188.204 57.2836 188.125 57.3852 188.125H71.1673C71.2689 188.125 71.3487 188.204 71.3487 188.306C71.3487 188.407 71.2689 188.486 71.1673 188.486Z" fill="#002346"/>
<path d="M72.2554 189.391C72.8563 189.391 73.3435 188.905 73.3435 188.306C73.3435 187.706 72.8563 187.221 72.2554 187.221C71.6545 187.221 71.1674 187.706 71.1674 188.306C71.1674 188.905 71.6545 189.391 72.2554 189.391Z" fill="#FFF1C2"/>
<path d="M72.2554 189.572C71.5554 189.572 70.986 189.004 70.986 188.306C70.986 187.608 71.5554 187.04 72.2554 187.04C72.9554 187.04 73.5248 187.608 73.5248 188.306C73.5248 189.004 72.9554 189.572 72.2554 189.572ZM72.2554 187.401C71.7549 187.401 71.3486 187.806 71.3486 188.306C71.3486 188.805 71.7549 189.21 72.2554 189.21C72.7559 189.21 73.1621 188.805 73.1621 188.306C73.1621 187.806 72.7559 187.401 72.2554 187.401Z" fill="#002346"/>
<path d="M132.099 141.285C143.509 141.285 152.772 150.523 152.772 161.902H111.426C111.426 150.523 120.689 141.285 132.099 141.285Z" fill="white"/>
<path d="M152.953 162.082H111.244V161.902C111.244 150.432 120.598 141.104 132.099 141.104C143.6 141.104 152.953 150.432 152.953 161.902V162.082ZM111.607 161.721H152.591C152.493 150.537 143.338 141.466 132.099 141.466C120.859 141.466 111.705 150.537 111.607 161.721Z" fill="#002346"/>
<path d="M137.535 142.189C137.488 142.189 137.438 142.171 137.405 142.131L132.099 136.514L126.793 142.131C126.724 142.203 126.608 142.207 126.535 142.138C126.463 142.07 126.459 141.954 126.528 141.882L131.965 136.123C132.033 136.051 132.16 136.051 132.229 136.123L137.666 141.882C137.735 141.954 137.731 142.07 137.659 142.138C137.622 142.171 137.579 142.189 137.535 142.189Z" fill="#002346"/>
<path d="M132.099 136.431C131.997 136.431 131.917 136.351 131.917 136.25V125.544C131.917 125.442 131.997 125.363 132.099 125.363C132.2 125.363 132.28 125.442 132.28 125.544V136.25C132.28 136.351 132.2 136.431 132.099 136.431Z" fill="#002346"/>
<path d="M132.28 167.689C135.585 167.689 138.264 165.017 138.264 161.721C138.264 158.425 135.585 155.753 132.28 155.753C128.975 155.753 126.296 158.425 126.296 161.721C126.296 165.017 128.975 167.689 132.28 167.689Z" fill="#74BBFD"/>
<path d="M132.28 167.87C128.882 167.87 126.114 165.11 126.114 161.721C126.114 158.332 128.882 155.572 132.28 155.572C135.678 155.572 138.446 158.332 138.446 161.721C138.446 165.11 135.678 167.87 132.28 167.87ZM132.28 155.934C129.081 155.934 126.477 158.531 126.477 161.721C126.477 164.911 129.081 167.508 132.28 167.508C135.479 167.508 138.083 164.911 138.083 161.721C138.083 158.531 135.479 155.934 132.28 155.934Z" fill="#002346"/>
<path d="M179.611 166.965C182.415 166.965 184.688 164.698 184.688 161.902C184.688 159.105 182.415 156.838 179.611 156.838C176.807 156.838 174.533 159.105 174.533 161.902C174.533 164.698 176.807 166.965 179.611 166.965Z" fill="#002346"/>
<path d="M179.611 167.146C176.709 167.146 174.352 164.795 174.352 161.902C174.352 159.008 176.709 156.657 179.611 156.657C182.512 156.657 184.87 159.008 184.87 161.902C184.87 164.795 182.512 167.146 179.611 167.146ZM179.611 157.019C176.912 157.019 174.714 159.211 174.714 161.902C174.714 164.593 176.912 166.785 179.611 166.785C182.309 166.785 184.507 164.593 184.507 161.902C184.507 159.211 182.309 157.019 179.611 157.019Z" fill="#002346"/>
<path d="M170.906 173.476C174.312 173.476 177.072 172.181 177.072 170.582C177.072 168.984 174.312 167.689 170.906 167.689C167.501 167.689 164.741 168.984 164.741 170.582C164.741 172.181 167.501 173.476 170.906 173.476Z" fill="#002346"/>
<path d="M170.906 173.657C167.348 173.657 164.559 172.308 164.559 170.582C164.559 168.857 167.348 167.508 170.906 167.508C174.464 167.508 177.253 168.857 177.253 170.582C177.253 172.308 174.464 173.657 170.906 173.657ZM170.906 167.87C167.664 167.87 164.922 169.11 164.922 170.582C164.922 172.054 167.664 173.295 170.906 173.295C174.149 173.295 176.891 172.054 176.891 170.582C176.891 169.11 174.149 167.87 170.906 167.87Z" fill="#002346"/>
<path d="M87.5245 250.699H43.984C43.8824 250.699 43.8026 250.619 43.8026 250.518C43.8026 250.416 43.8824 250.337 43.984 250.337H87.5245C87.6261 250.337 87.7059 250.416 87.7059 250.518C87.7059 250.619 87.6261 250.699 87.5245 250.699Z" fill="#002346"/>
<path d="M17.5488 23.9224V26.1824H11.7288V29.7624H16.1888V31.9824H11.7288V37.8824H8.92883V23.9224H17.5488ZM22.3343 23.9224V37.8824H19.5343V23.9224H22.3343ZM37.0407 37.8824H34.2407L27.9007 28.3024V37.8824H25.1007V23.9024H27.9007L34.2407 33.5024V23.9024H37.0407V37.8824ZM44.6877 23.9224C46.1544 23.9224 47.4411 24.2091 48.5477 24.7824C49.6677 25.3558 50.5277 26.1758 51.1277 27.2424C51.7411 28.2958 52.0477 29.5224 52.0477 30.9224C52.0477 32.3224 51.7411 33.5491 51.1277 34.6024C50.5277 35.6424 49.6677 36.4491 48.5477 37.0224C47.4411 37.5958 46.1544 37.8824 44.6877 37.8824H39.8077V23.9224H44.6877ZM44.5877 35.5024C46.0544 35.5024 47.1877 35.1024 47.9877 34.3024C48.7877 33.5024 49.1877 32.3758 49.1877 30.9224C49.1877 29.4691 48.7877 28.3358 47.9877 27.5224C47.1877 26.6958 46.0544 26.2824 44.5877 26.2824H42.6077V35.5024H44.5877ZM182.233 38.0224C180.926 38.0224 179.726 37.7158 178.633 37.1024C177.54 36.4891 176.673 35.6424 176.033 34.5624C175.393 33.4691 175.073 32.2358 175.073 30.8624C175.073 29.5024 175.393 28.2824 176.033 27.2024C176.673 26.1091 177.54 25.2558 178.633 24.6424C179.726 24.0291 180.926 23.7224 182.233 23.7224C183.553 23.7224 184.753 24.0291 185.833 24.6424C186.926 25.2558 187.786 26.1091 188.413 27.2024C189.053 28.2824 189.373 29.5024 189.373 30.8624C189.373 32.2358 189.053 33.4691 188.413 34.5624C187.786 35.6424 186.926 36.4891 185.833 37.1024C184.74 37.7158 183.54 38.0224 182.233 38.0224ZM182.233 35.5224C183.073 35.5224 183.813 35.3358 184.453 34.9624C185.093 34.5758 185.593 34.0291 185.953 33.3224C186.313 32.6158 186.493 31.7958 186.493 30.8624C186.493 29.9291 186.313 29.1158 185.953 28.4224C185.593 27.7158 185.093 27.1758 184.453 26.8024C183.813 26.4291 183.073 26.2424 182.233 26.2424C181.393 26.2424 180.646 26.4291 179.993 26.8024C179.353 27.1758 178.853 27.7158 178.493 28.4224C178.133 29.1158 177.953 29.9291 177.953 30.8624C177.953 31.7958 178.133 32.6158 178.493 33.3224C178.853 34.0291 179.353 34.5758 179.993 34.9624C180.646 35.3358 181.393 35.5224 182.233 35.5224ZM201.636 28.2424C201.636 28.9891 201.456 29.6891 201.096 30.3424C200.75 30.9958 200.196 31.5224 199.436 31.9224C198.69 32.3224 197.743 32.5224 196.596 32.5224H194.256V37.8824H191.456V23.9224H196.596C197.676 23.9224 198.596 24.1091 199.356 24.4824C200.116 24.8558 200.683 25.3691 201.056 26.0224C201.443 26.6758 201.636 27.4158 201.636 28.2424ZM196.476 30.2624C197.25 30.2624 197.823 30.0891 198.196 29.7424C198.57 29.3824 198.756 28.8824 198.756 28.2424C198.756 26.8824 197.996 26.2024 196.476 26.2024H194.256V30.2624H196.476ZM213.804 28.2424C213.804 28.9891 213.624 29.6891 213.264 30.3424C212.917 30.9958 212.364 31.5224 211.604 31.9224C210.857 32.3224 209.911 32.5224 208.764 32.5224H206.424V37.8824H203.624V23.9224H208.764C209.844 23.9224 210.764 24.1091 211.524 24.4824C212.284 24.8558 212.851 25.3691 213.224 26.0224C213.611 26.6758 213.804 27.4158 213.804 28.2424ZM208.644 30.2624C209.417 30.2624 209.991 30.0891 210.364 29.7424C210.737 29.3824 210.924 28.8824 210.924 28.2424C210.924 26.8824 210.164 26.2024 208.644 26.2024H206.424V30.2624H208.644ZM222.272 38.0224C220.965 38.0224 219.765 37.7158 218.672 37.1024C217.579 36.4891 216.712 35.6424 216.072 34.5624C215.432 33.4691 215.112 32.2358 215.112 30.8624C215.112 29.5024 215.432 28.2824 216.072 27.2024C216.712 26.1091 217.579 25.2558 218.672 24.6424C219.765 24.0291 220.965 23.7224 222.272 23.7224C223.592 23.7224 224.792 24.0291 225.872 24.6424C226.965 25.2558 227.825 26.1091 228.452 27.2024C229.092 28.2824 229.412 29.5024 229.412 30.8624C229.412 32.2358 229.092 33.4691 228.452 34.5624C227.825 35.6424 226.965 36.4891 225.872 37.1024C224.779 37.7158 223.579 38.0224 222.272 38.0224ZM222.272 35.5224C223.112 35.5224 223.852 35.3358 224.492 34.9624C225.132 34.5758 225.632 34.0291 225.992 33.3224C226.352 32.6158 226.532 31.7958 226.532 30.8624C226.532 29.9291 226.352 29.1158 225.992 28.4224C225.632 27.7158 225.132 27.1758 224.492 26.8024C223.852 26.4291 223.112 26.2424 222.272 26.2424C221.432 26.2424 220.685 26.4291 220.032 26.8024C219.392 27.1758 218.892 27.7158 218.532 28.4224C218.172 29.1158 217.992 29.9291 217.992 30.8624C217.992 31.7958 218.172 32.6158 218.532 33.3224C218.892 34.0291 219.392 34.5758 220.032 34.9624C220.685 35.3358 221.432 35.5224 222.272 35.5224ZM238.695 37.8824L235.615 32.4424H234.295V37.8824H231.495V23.9224H236.735C237.815 23.9224 238.735 24.1158 239.495 24.5024C240.255 24.8758 240.822 25.3891 241.195 26.0424C241.582 26.6824 241.775 27.4024 241.775 28.2024C241.775 29.1224 241.509 29.9558 240.975 30.7024C240.442 31.4358 239.649 31.9424 238.595 32.2224L241.935 37.8824H238.695ZM234.295 30.3424H236.635C237.395 30.3424 237.962 30.1624 238.335 29.8024C238.709 29.4291 238.895 28.9158 238.895 28.2624C238.895 27.6224 238.709 27.1291 238.335 26.7824C237.962 26.4224 237.395 26.2424 236.635 26.2424H234.295V30.3424ZM253.808 23.9224V26.1824H250.088V37.8824H247.288V26.1824H243.568V23.9224H253.808ZM258.611 23.9224V32.5624C258.611 33.5091 258.857 34.2358 259.351 34.7424C259.844 35.2358 260.537 35.4824 261.431 35.4824C262.337 35.4824 263.037 35.2358 263.531 34.7424C264.024 34.2358 264.271 33.5091 264.271 32.5624V23.9224H267.091V32.5424C267.091 33.7291 266.831 34.7358 266.311 35.5624C265.804 36.3758 265.117 36.9891 264.251 37.4024C263.397 37.8158 262.444 38.0224 261.391 38.0224C260.351 38.0224 259.404 37.8158 258.551 37.4024C257.711 36.9891 257.044 36.3758 256.551 35.5624C256.057 34.7358 255.811 33.7291 255.811 32.5424V23.9224H258.611ZM281.736 37.8824H278.936L272.596 28.3024V37.8824H269.796V23.9024H272.596L278.936 33.5024V23.9024H281.736V37.8824ZM287.303 23.9224V37.8824H284.503V23.9224H287.303ZM299.569 23.9224V26.1824H295.849V37.8824H293.049V26.1824H289.329V23.9224H299.569ZM304.412 23.9224V37.8824H301.612V23.9224H304.412ZM309.979 26.1824V29.6824H314.679V31.9024H309.979V35.6024H315.279V37.8824H307.179V23.9024H315.279V26.1824H309.979ZM322.643 38.0224C321.67 38.0224 320.79 37.8558 320.003 37.5224C319.23 37.1891 318.617 36.7091 318.163 36.0824C317.71 35.4558 317.477 34.7158 317.463 33.8624H320.463C320.503 34.4358 320.703 34.8891 321.063 35.2224C321.437 35.5558 321.943 35.7224 322.583 35.7224C323.237 35.7224 323.75 35.5691 324.123 35.2624C324.497 34.9424 324.683 34.5291 324.683 34.0224C324.683 33.6091 324.557 33.2691 324.303 33.0024C324.05 32.7358 323.73 32.5291 323.343 32.3824C322.97 32.2224 322.45 32.0491 321.783 31.8624C320.877 31.5958 320.137 31.3358 319.563 31.0824C319.003 30.8158 318.517 30.4224 318.103 29.9024C317.703 29.3691 317.503 28.6624 317.503 27.7824C317.503 26.9558 317.71 26.2358 318.123 25.6224C318.537 25.0091 319.117 24.5424 319.863 24.2224C320.61 23.8891 321.463 23.7224 322.423 23.7224C323.863 23.7224 325.03 24.0758 325.923 24.7824C326.83 25.4758 327.33 26.4491 327.423 27.7024H324.343C324.317 27.2224 324.11 26.8291 323.723 26.5224C323.35 26.2024 322.85 26.0424 322.223 26.0424C321.677 26.0424 321.237 26.1824 320.903 26.4624C320.583 26.7424 320.423 27.1491 320.423 27.6824C320.423 28.0558 320.543 28.3691 320.783 28.6224C321.037 28.8624 321.343 29.0624 321.703 29.2224C322.077 29.3691 322.597 29.5424 323.263 29.7424C324.17 30.0091 324.91 30.2758 325.483 30.5424C326.057 30.8091 326.55 31.2091 326.963 31.7424C327.377 32.2758 327.583 32.9758 327.583 33.8424C327.583 34.5891 327.39 35.2824 327.003 35.9224C326.617 36.5624 326.05 37.0758 325.303 37.4624C324.557 37.8358 323.67 38.0224 322.643 38.0224Z" fill="#989BA4"/>
<path d="M93.6013 12.7544L86.5813 37.8824H80.6413L75.9253 19.9904L70.9933 37.8824L65.0893 37.9184L58.3213 12.7544H63.7213L68.1493 32.2664L73.2613 12.7544H78.8773L83.7013 32.1584L88.1653 12.7544H93.6013ZM108.556 38.1344C106.204 38.1344 104.044 37.5824 102.076 36.4784C100.108 35.3744 98.5482 33.8504 97.3962 31.9064C96.2442 29.9384 95.6682 27.7184 95.6682 25.2464C95.6682 22.7984 96.2442 20.6024 97.3962 18.6584C98.5482 16.6904 100.108 15.1544 102.076 14.0504C104.044 12.9464 106.204 12.3944 108.556 12.3944C110.932 12.3944 113.092 12.9464 115.036 14.0504C117.004 15.1544 118.552 16.6904 119.68 18.6584C120.832 20.6024 121.408 22.7984 121.408 25.2464C121.408 27.7184 120.832 29.9384 119.68 31.9064C118.552 33.8504 117.004 35.3744 115.036 36.4784C113.068 37.5824 110.908 38.1344 108.556 38.1344ZM108.556 33.6344C110.068 33.6344 111.4 33.2984 112.552 32.6264C113.704 31.9304 114.604 30.9464 115.252 29.6744C115.9 28.4024 116.224 26.9264 116.224 25.2464C116.224 23.5664 115.9 22.1024 115.252 20.8544C114.604 19.5824 113.704 18.6104 112.552 17.9384C111.4 17.2664 110.068 16.9304 108.556 16.9304C107.044 16.9304 105.7 17.2664 104.524 17.9384C103.372 18.6104 102.472 19.5824 101.824 20.8544C101.176 22.1024 100.852 23.5664 100.852 25.2464C100.852 26.9264 101.176 28.4024 101.824 29.6744C102.472 30.9464 103.372 31.9304 104.524 32.6264C105.7 33.2984 107.044 33.6344 108.556 33.6344ZM138.118 37.8824L132.574 28.0904H130.198V37.8824H125.158V12.7544H134.59C136.534 12.7544 138.19 13.1024 139.558 13.7984C140.926 14.4704 141.946 15.3944 142.618 16.5704C143.314 17.7224 143.662 19.0184 143.662 20.4584C143.662 22.1144 143.182 23.6144 142.222 24.9584C141.262 26.2784 139.834 27.1904 137.938 27.6944L143.95 37.8824H138.118ZM130.198 24.3104H134.41C135.778 24.3104 136.798 23.9864 137.47 23.3384C138.142 22.6664 138.478 21.7424 138.478 20.5664C138.478 19.4144 138.142 18.5264 137.47 17.9024C136.798 17.2544 135.778 16.9304 134.41 16.9304H130.198V24.3104ZM162.404 37.8824L153.26 26.6864V37.8824H148.22V12.7544H153.26V24.0224L162.404 12.7544H168.488L158.12 25.2104L168.776 37.8824H162.404Z" fill="#389FFF"/>
</svg>
