<svg width="338" height="371" viewBox="0 0 338 371" fill="none" xmlns="http://www.w3.org/2000/svg">
<path d="M190.865 174.031H86.6309V316.532H190.865V174.031Z" fill="#E6E7E8"/>
<path d="M191.049 316.713H86.45V173.846H191.049V316.713ZM86.8153 316.344H190.684V174.215H86.8153V316.348V316.344Z" fill="#002346"/>
<path d="M182.289 180.798H93.8503V265.178H182.289V180.798Z" fill="white"/>
<path d="M182.47 265.359H93.6694V180.617H182.47V265.359ZM94.0311 264.997H182.108V180.978H94.0311V264.997Z" fill="#002346"/>
<path d="M138.748 220.107C138.748 220.107 146.195 211.933 152.058 210.58L153.867 213.738V209.397C153.867 209.397 162.092 206.081 171.518 207.437C171.518 207.437 172.284 211.6 170.071 220.122H167.282L169.782 221.8C169.905 224.896 162.24 235.411 160.377 238.207L138.448 245.325L138.748 220.107Z" fill="#7CD295"/>
<path d="M138.267 245.574L138.571 220.035L138.618 219.984C138.921 219.648 146.17 211.752 152.022 210.403L152.152 210.374L153.69 213.058V209.274L153.802 209.227C153.885 209.195 162.179 205.907 171.547 207.256L171.677 207.274L171.702 207.401C171.735 207.571 172.451 211.701 170.252 220.165L170.216 220.299H167.879L169.962 221.699V221.789C170.075 224.491 164.62 232.376 161.69 236.611C161.206 237.309 160.804 237.892 160.529 238.304L160.493 238.355L138.263 245.571L138.267 245.574ZM138.932 220.179L138.636 245.075L160.265 238.055C160.54 237.646 160.927 237.082 161.394 236.412C164.063 232.553 169.579 224.574 169.608 221.901L166.693 219.944H169.933C171.858 212.464 171.46 208.356 171.362 207.6C162.743 206.399 155.068 209.14 154.051 209.524V214.421L151.972 210.79C146.488 212.146 139.565 219.499 138.932 220.179Z" fill="#002346"/>
<path d="M141.67 233.161C141.631 233.161 141.594 233.15 141.562 233.124C141.482 233.063 141.468 232.951 141.526 232.871C152.691 218.183 171.084 207.549 171.268 207.444C171.355 207.393 171.467 207.422 171.514 207.509C171.565 207.596 171.532 207.708 171.449 207.755C171.264 207.86 152.934 218.461 141.815 233.088C141.779 233.135 141.725 233.161 141.67 233.161Z" fill="#002346"/>
<path d="M178.028 162.641C218.491 164.279 211.843 154.817 212.299 182.024C212.361 185.066 208.118 184.187 206.244 184.299C206.624 185.572 207.308 186.733 208.234 187.685C205.221 187.348 203.712 185.789 202.953 184.299C170.964 182.773 176.053 191.793 175.75 164.916C175.75 163.657 176.77 162.641 178.028 162.641Z" fill="#74BBFD"/>
<path d="M208.718 187.92L208.216 187.862C205.091 187.514 203.571 185.847 202.841 184.473C194.695 184.089 189.06 184.386 184.94 184.603C180.245 184.849 177.887 184.975 176.639 183.764C175.323 182.487 175.381 179.749 175.493 174.294C175.547 171.81 175.612 168.717 175.569 164.916C175.569 163.559 176.676 162.456 178.028 162.456H178.035C188.713 162.89 196.236 162.543 201.213 162.311C207.069 162.04 210.01 161.906 211.42 163.292C212.766 164.612 212.701 167.194 212.563 172.334C212.494 174.888 212.411 178.063 212.476 182.017C212.491 182.708 212.288 183.265 211.88 183.666C210.928 184.603 209.051 184.538 207.539 184.487C207.159 184.473 206.79 184.462 206.483 184.469C206.863 185.623 207.51 186.686 208.357 187.558L208.708 187.92H208.718ZM195.147 183.926C197.462 183.926 200.052 183.977 202.964 184.118H203.069L203.116 184.216C204.024 185.995 205.586 187.077 207.763 187.435C206.993 186.538 206.411 185.482 206.074 184.35L206.009 184.133L206.237 184.118C206.61 184.096 207.073 184.111 207.561 184.129C209 184.18 210.794 184.241 211.634 183.413C211.974 183.076 212.133 182.624 212.122 182.028C212.057 178.067 212.14 174.884 212.209 172.327C212.343 167.292 212.408 164.764 211.174 163.552C209.876 162.279 206.989 162.409 201.235 162.677C196.251 162.908 188.716 163.252 178.028 162.821C176.874 162.821 175.938 163.762 175.934 164.916C175.977 168.721 175.912 171.817 175.858 174.302C175.746 179.651 175.688 182.335 176.893 183.503C178.028 184.603 180.332 184.483 184.926 184.241C187.602 184.1 190.919 183.926 195.151 183.926H195.147Z" fill="#002346"/>
<path d="M186.253 239.458H182.937L186.257 241.038C184.358 250.287 175.077 259.311 175.077 259.311L170.114 256.606L172.809 260.661C171.908 262.918 167.601 265.175 167.601 265.175H147.096C146.969 264.6 140.668 239.111 140.806 239.422C151.172 226.368 158.504 225.786 158.504 225.786L161.311 230.43V224.802C180.481 220.078 189.523 222.313 189.523 222.313C189.964 233.143 186.253 239.458 186.253 239.458Z" fill="#7CD295"/>
<path d="M167.647 265.355H146.955L146.922 265.214C146.882 265.03 146.166 262.126 145.262 258.447C144.325 254.631 143.157 249.889 142.231 246.099C141.768 244.203 141.363 242.547 141.077 241.36C140.82 240.304 140.697 239.791 140.661 239.534L140.647 239.498H140.658C140.639 239.339 140.658 239.295 140.705 239.27C150.984 226.346 158.193 225.634 158.497 225.608L158.609 225.601L161.137 229.786V224.664L161.274 224.632C180.267 219.952 189.483 222.122 189.574 222.143L189.704 222.176L189.711 222.313C190.149 233.07 186.452 239.494 186.416 239.556L186.365 239.646H183.747L186.47 240.944L186.441 241.082C184.553 250.28 175.305 259.359 175.211 259.449L175.117 259.543L170.679 257.123L173.022 260.65L172.986 260.737C172.071 263.03 167.872 265.251 167.695 265.345L167.655 265.366L167.647 265.355ZM147.24 264.994H167.557C167.98 264.766 171.717 262.708 172.606 260.679L169.561 256.096L175.048 259.087C176.024 258.111 184.231 249.683 186.054 241.14L182.141 239.277H186.152C186.59 238.474 189.722 232.34 189.353 222.462C188.17 222.219 179.074 220.635 161.495 224.947V231.081L158.413 225.981C157.469 226.122 150.481 227.558 141.001 239.472C141.218 240.489 143.851 251.195 145.613 258.36C146.456 261.786 147.089 264.357 147.24 264.994Z" fill="#002346"/>
<path d="M79.4113 208.323C79.4113 208.323 77.1579 220.957 82.1204 229.533H88.9457L83.4696 231.786C83.4696 231.786 87.0865 242.38 98.8092 242.5L97.6807 210.699C97.6807 210.699 91.5969 207.871 79.4113 208.323Z" fill="#74BBFD"/>
<path d="M79.4113 208.323C79.4113 208.323 77.1579 220.957 82.1204 229.533H88.9457L83.4696 231.786C83.4696 231.786 87.0865 242.38 98.8092 242.5L97.6807 210.699C97.6807 210.699 91.5969 207.871 79.4113 208.323Z" fill="#7CD295"/>
<path d="M98.9973 242.68H98.8092C87.0938 242.561 83.3357 231.949 83.2996 231.844L83.2453 231.685L88.0342 229.714H82.0191L81.9685 229.623C77.0313 221.091 79.216 208.417 79.2377 208.29L79.263 208.146L79.4077 208.138C91.4956 207.693 97.6988 210.504 97.7602 210.533L97.8615 210.58L99.0009 242.68H98.9973ZM83.701 231.884C84.2147 233.193 88.0957 242.102 98.6211 242.312L97.5034 210.815C96.6679 210.46 90.6276 208.102 79.5668 208.493C79.3426 209.907 77.7005 221.416 82.2253 229.345H89.8608L83.701 231.88V231.884Z" fill="#002346"/>
<path d="M78.1489 233.533C78.1489 233.533 78.3406 262.343 100.538 264.657L102.169 245.936L97.6698 235.703C95.9445 235.031 94.1758 234.47 92.3781 234.032L91.6041 236.742L91.1122 234.032C91.1122 234.032 84.5546 232.586 78.1489 233.533Z" fill="#74BBFD"/>
<path d="M78.149 233.533C78.149 233.533 78.3408 262.343 100.538 264.657L102.169 245.936L97.6699 235.704C95.9446 235.031 94.1759 234.47 92.3782 234.032L91.7091 236.376C91.6838 236.467 91.5536 236.459 91.5355 236.369L91.1123 234.036C91.1123 234.036 84.5547 232.589 78.149 233.537V233.533Z" fill="#7CD295"/>
<path d="M100.704 264.856L100.52 264.838C88.9601 263.634 83.4442 255.174 80.8509 248.291C78.0477 240.854 77.9681 233.606 77.9681 233.533V233.378L78.1237 233.356C84.4896 232.416 91.0869 233.844 91.152 233.859L91.2714 233.884L91.6476 235.95L92.2552 233.819L92.4252 233.859C94.2265 234.3 96.0133 234.864 97.7386 235.537L97.8073 235.566L97.8362 235.635L102.354 245.911V245.958L100.704 264.864V264.856ZM78.3335 233.689C78.3624 234.785 78.6409 241.4 81.1945 248.171C83.7372 254.921 89.1301 263.2 100.375 264.459L101.989 245.969L97.536 235.848C95.9011 235.215 94.212 234.676 92.5048 234.253L91.8827 236.431C91.8465 236.55 91.7344 236.622 91.6114 236.626C91.4848 236.619 91.3835 236.528 91.3582 236.405L90.9567 234.192C90.0525 234.007 84.117 232.879 78.3335 233.696V233.689Z" fill="#002346"/>
<path d="M135.294 180.787C135.294 180.787 142.285 186.013 143.114 191.753C143.114 191.753 138.773 185.409 131.98 187.341L132.107 182.845C132.107 182.845 133.333 182.378 135.294 180.787Z" fill="#002346"/>
<path d="M143.407 192.495L142.969 191.855C142.925 191.793 138.618 185.644 132.035 187.514L131.796 187.583L131.933 182.722L132.046 182.678C132.046 182.678 133.275 182.197 135.182 180.649L135.29 180.559L135.402 180.642C135.692 180.855 142.463 185.981 143.294 191.728L143.407 192.498V192.495ZM134.52 186.795C138.73 186.795 141.703 189.764 142.799 191.059C141.641 186.129 136.151 181.68 135.297 181.015C133.713 182.284 132.628 182.816 132.284 182.964L132.169 187.098C132.99 186.889 133.775 186.795 134.52 186.795Z" fill="#002346"/>
<path d="M251.276 261.022C251.222 271.313 246.896 339.619 246.896 339.619C236.103 340.661 231.003 339.156 222.904 339.619L218.831 263.797L218.629 260.049L226.948 245.325L245.449 259.312L251.276 261.022Z" fill="#FBE493"/>
<path d="M239.271 340.176C236.732 340.176 234.5 340.053 232.305 339.93C229.248 339.76 226.358 339.601 222.912 339.797L222.731 339.807L222.72 339.627L218.441 260.002L218.466 259.955L226.887 245.05L245.525 259.142L251.449 260.881V261.019C251.395 271.197 247.113 338.943 247.069 339.627L247.058 339.782L246.907 339.797C243.999 340.079 241.51 340.173 239.264 340.173L239.271 340.176ZM226.16 339.344C228.286 339.344 230.268 339.453 232.327 339.569C236.414 339.797 240.638 340.028 246.726 339.453C246.954 335.829 251.008 271.526 251.095 261.156L245.34 259.453L227.006 245.589L218.813 260.089L219.012 263.782L223.074 339.424C224.149 339.366 225.169 339.341 226.16 339.341V339.344Z" fill="#002346"/>
<path d="M260.807 235.848L245.471 259.308C239.021 257.836 232.135 257.152 225.736 259.214C221.074 260.617 218.141 259.811 217.949 259.753L216.148 240.883C216.148 240.854 216.112 240.847 216.097 240.872C215.518 241.729 212.523 242.156 212.523 242.156C214.78 232.228 210.715 226.361 210.715 226.361C211.988 217.441 213.211 212.095 214.061 209.079C214.827 206.359 216.513 203.986 218.835 202.377C223.197 199.356 228.594 197.794 228.594 197.794L243.459 197.476C251.84 200.622 254.969 202.814 254.969 202.814C260.427 206.395 260.803 211.245 260.803 211.245C263.06 227.276 260.803 235.848 260.803 235.848H260.807Z" fill="#74BBFD"/>
<path d="M220.517 260.219C218.897 260.219 217.967 259.948 217.898 259.926L217.783 259.89L217.772 259.771L216.003 241.234C215.106 241.954 212.835 242.297 212.552 242.337L212.292 242.373L212.35 242.116C214.56 232.39 210.61 226.523 210.57 226.466L210.531 226.408L210.541 226.339C211.833 217.278 213.077 211.929 213.891 209.032C214.668 206.272 216.39 203.856 218.737 202.228C223.074 199.226 228.496 197.638 228.55 197.62L228.597 197.613L243.499 197.295L243.532 197.306C251.836 200.423 255.048 202.644 255.081 202.666C260.546 206.25 260.987 211.18 260.991 211.231C263.226 227.102 261.013 235.808 260.991 235.895L260.969 235.949L245.565 259.514L245.442 259.485C237.477 257.666 231.238 257.637 225.805 259.387C223.646 260.038 221.855 260.219 220.528 260.219H220.517ZM218.119 259.612C218.709 259.76 221.465 260.313 225.686 259.04C231.151 257.279 237.419 257.297 245.391 259.102L260.64 235.772C260.778 235.222 262.789 226.625 260.626 211.267C260.622 211.209 260.188 206.446 254.871 202.962C254.835 202.937 251.659 200.749 243.431 197.653L228.623 197.971C228.239 198.083 223.085 199.649 218.94 202.521C216.661 204.098 214.99 206.446 214.238 209.126C213.428 212.001 212.191 217.318 210.907 226.317C211.323 226.968 214.766 232.73 212.762 241.935C213.71 241.776 215.558 241.357 215.952 240.771L216.025 240.666L216.177 240.684C216.263 240.706 216.321 240.778 216.332 240.865L218.123 259.612H218.119Z" fill="#002346"/>
<path d="M237.571 193.041C236.356 194.199 234.605 194.947 232.106 195.078C231.773 195.085 231.444 195.078 231.122 195.045C227.067 194.644 223.866 191.215 223.874 187.037C223.602 180.537 223.396 172.924 231.914 172.471C236.421 172.367 240.157 176.005 240.15 180.516C240.342 185.109 240.501 190.256 237.571 193.041Z" fill="#F2B3C1"/>
<path d="M231.907 195.258C231.632 195.258 231.364 195.248 231.104 195.222C226.868 194.803 223.685 191.283 223.689 187.033C223.425 180.675 223.092 172.754 231.9 172.287C234.139 172.229 236.251 173.068 237.853 174.638C239.452 176.201 240.327 178.288 240.324 180.512C240.504 184.856 240.732 190.274 237.687 193.168C236.363 194.427 234.486 195.128 232.106 195.255C232.037 195.255 231.968 195.255 231.9 195.255L231.907 195.258ZM232.106 172.649C232.044 172.649 231.979 172.649 231.918 172.649C223.472 173.097 223.794 180.819 224.054 187.026C224.047 191.095 227.093 194.463 231.14 194.861C231.451 194.889 231.773 194.9 232.102 194.893C234.421 194.774 236.171 194.123 237.448 192.907C240.371 190.126 240.15 184.802 239.969 180.519C239.969 178.385 239.134 176.389 237.607 174.895C236.121 173.441 234.175 172.645 232.106 172.645V172.649Z" fill="#002346"/>
<path d="M242.349 188.017L241.173 190.187C241.394 195.512 237.556 192.151 237.556 192.151C240.027 188.173 238.895 186.364 238.895 186.364C235.488 187.395 236.891 181.72 236.891 181.72C236.565 173.726 228.981 181 226.579 175.886C224.955 175.365 223.87 180.067 223.87 180.067C221.645 177.832 222.904 171.321 222.904 171.321L224.713 171.77C224.26 169.961 225.613 168.612 225.613 168.612C226.517 170.869 230.576 170.421 230.576 170.421C238.15 171.176 248.093 170.091 243.662 179.897C248.621 183.507 242.349 188.017 242.349 188.017Z" fill="#002346"/>
<path d="M239.774 193.377C238.555 193.334 237.524 192.339 237.325 192.187C239.336 189.124 239.025 186.943 238.801 186.581C235.784 187.608 236.421 182.342 236.714 181.698C236.417 174.016 229.147 181.174 226.456 176.038C224.828 175.973 224.018 180.458 223.978 180.425C221.418 178.157 222.647 171.618 222.767 171.097L224.481 171.524C224.271 169.502 225.393 168.637 225.682 168.29C226.232 170.58 230.503 170.294 230.558 170.24C237.162 171.108 248.368 169.404 243.893 179.843C247.948 182.465 244.183 187.163 242.49 188.14L241.358 190.231C241.372 192.173 241.105 193.276 239.774 193.377ZM237.795 192.111C239.477 193.594 241.311 193.312 240.993 190.144L242.244 187.869C243.695 187.004 247.709 182.537 243.43 179.948C248.133 169.712 237.079 171.484 230.561 170.598C230.431 170.616 226.698 171.003 225.57 168.937C225.176 169.35 224.496 170.789 224.962 172.012L223.049 171.538C222.875 172.569 222.137 177.575 223.779 179.684C224.123 178.66 224.904 175.224 226.713 175.734C228.999 180.852 236.764 173.426 237.065 181.76C236.88 182.129 235.998 187.424 238.974 186.147C239.101 186.404 240.229 188.032 237.792 192.108L237.795 192.111Z" fill="#002346"/>
<path d="M238.334 187.377C239.401 184.024 243.326 185.319 242.19 188.647C241.123 192 237.199 190.705 238.334 187.377Z" fill="#F2B3C1"/>
<path d="M239.904 190.842C236.497 190.73 238.208 184.256 241.166 185.268C243.575 186.039 242.526 190.857 239.904 190.842ZM240.62 185.54C238.533 185.417 237.372 189.779 239.47 190.415C242.103 191.15 243.376 185.659 240.62 185.54Z" fill="#002346"/>
<path d="M239.239 198.076C239.123 201.751 234.24 202.789 234.225 202.789C228.171 203.071 230.171 198.304 231.122 195.045C231.444 195.074 231.773 195.085 232.106 195.078C234.605 194.947 236.356 194.199 237.571 193.041C238.233 194.767 239.155 196.694 239.239 198.076Z" fill="#F2B3C1"/>
<path d="M233.715 202.981C232.117 202.981 231.035 202.594 230.42 201.802C229.303 200.362 230.044 197.953 230.695 195.826C230.782 195.541 230.869 195.262 230.948 194.994L230.992 194.85L231.14 194.864C231.451 194.893 231.777 194.904 232.102 194.897C234.421 194.777 236.171 194.126 237.448 192.911L237.643 192.723L237.741 192.976C237.889 193.359 238.049 193.757 238.211 194.152C238.772 195.533 239.354 196.962 239.419 198.062V198.08C239.3 201.91 234.276 202.966 234.225 202.966C234.052 202.973 233.878 202.977 233.715 202.977V202.981ZM231.252 195.237C231.184 195.461 231.115 195.696 231.042 195.931C230.417 197.975 229.704 200.29 230.71 201.581C231.299 202.344 232.482 202.684 234.218 202.608C234.243 202.601 238.942 201.599 239.058 198.08C238.993 197.038 238.425 195.642 237.875 194.293C237.748 193.978 237.618 193.663 237.499 193.356C236.189 194.502 234.381 195.143 232.117 195.262C231.824 195.269 231.534 195.262 231.256 195.24L231.252 195.237Z" fill="#002346"/>
<path d="M231.929 202.666C231.929 202.666 229.437 203.212 228.88 205.545C228.822 205.784 228.493 205.802 228.417 205.57C227.682 203.364 226.416 197.935 230.836 195.949C230.836 195.949 230.229 198.257 230.113 199.299C230.127 199.299 229.505 201.874 231.932 202.666H231.929Z" fill="white"/>
<path d="M228.641 205.914C228.46 205.914 228.301 205.802 228.243 205.625C227.487 203.346 226.214 197.819 230.76 195.783L231.104 195.627L231.006 195.993C230.999 196.014 230.402 198.3 230.286 199.317C230.286 199.317 230.283 199.349 230.279 199.364C230.156 200.098 230.08 201.87 231.983 202.492L232.612 202.698L231.968 202.843C231.943 202.847 229.581 203.396 229.057 205.588C229.013 205.776 228.851 205.907 228.659 205.918C228.652 205.918 228.648 205.918 228.641 205.918V205.914ZM230.561 196.282C226.702 198.325 227.881 203.386 228.587 205.512C228.597 205.541 228.623 205.552 228.644 205.552C228.662 205.552 228.695 205.545 228.706 205.502C229.133 203.718 230.612 202.937 231.397 202.641C229.672 201.78 229.831 199.899 229.928 199.302V199.277C230.022 198.477 230.384 196.984 230.561 196.282Z" fill="#002346"/>
<path d="M222.673 339.63C222.673 339.63 210.227 347.273 213.764 350.069C213.927 351.129 234.793 350.698 235.643 351.002C235.643 351.002 238.244 350.46 237.343 347.302L236.348 339.757L222.673 339.63Z" fill="#74BBFD"/>
<path d="M235.632 351.19L235.582 351.172C235.303 351.078 232.352 351.056 229.227 351.038C217.62 350.966 214.021 350.778 213.623 350.185C213.146 349.794 212.921 349.295 212.954 348.705C213.156 345.298 222.192 339.71 222.579 339.475L222.622 339.446H222.673L236.508 339.576L237.52 347.277C237.824 348.34 237.77 349.255 237.343 349.968C236.786 350.908 235.792 351.15 235.679 351.176L235.629 351.187L235.632 351.19ZM213.938 350.015C214.578 350.586 223.74 350.644 229.227 350.677C233.064 350.702 235.173 350.72 235.643 350.814C235.828 350.763 236.598 350.521 237.036 349.783C237.408 349.157 237.452 348.34 237.17 347.349L236.189 339.934L222.723 339.807C222.033 340.238 213.5 345.62 213.316 348.723C213.287 349.208 213.471 349.602 213.876 349.924L213.934 349.968L213.941 350.011L213.938 350.015Z" fill="#002346"/>
<path d="M213.283 238.073C213.211 239.465 212.954 240.843 212.523 242.167C201.694 245.325 197.184 220.957 197.184 220.957C195.827 216.447 192.218 215.087 192.218 215.087C185.353 211.781 188.742 208.594 191.017 207.404C195.299 205.827 201.687 211.915 201.687 211.915C202.483 212.182 202.83 211.115 202.978 210.193C204.801 208.185 203.665 215.821 203.492 215.524C202.591 219.141 203.492 219.586 203.492 219.586C210.263 225.688 213.659 228.054 213.283 238.073Z" fill="#F2B3C1"/>
<path d="M210.621 242.63C209.388 242.63 208.19 242.275 207.047 241.57C200.096 237.288 197.13 221.655 197.007 220.99C195.697 216.635 192.189 215.267 192.153 215.257C189.393 213.929 187.986 212.486 187.961 210.96C187.928 208.97 190.225 207.614 190.93 207.245C195.176 205.679 201.231 211.242 201.777 211.755C201.915 211.795 202.034 211.781 202.143 211.716C202.432 211.542 202.664 210.992 202.797 210.168L202.805 210.113L202.841 210.074C202.957 209.943 203.311 209.553 203.676 209.715C204.165 209.932 204.302 211.151 204.078 213.336C203.915 214.931 203.76 215.448 203.651 215.622C202.841 218.917 203.568 219.427 203.575 219.434L203.608 219.456C204.02 219.828 204.421 220.187 204.808 220.534C210.805 225.901 213.815 228.592 213.46 238.083C213.388 239.494 213.127 240.887 212.693 242.228L212.665 242.319L212.574 242.344C211.916 242.536 211.261 242.634 210.621 242.634V242.63ZM192.558 207.325C192.044 207.325 191.549 207.401 191.082 207.574C189.747 208.276 188.304 209.538 188.326 210.952C188.348 212.33 189.686 213.665 192.297 214.924C192.319 214.931 195.99 216.363 197.357 220.906C197.394 221.087 200.421 237.067 207.235 241.263C208.859 242.261 210.588 242.518 212.382 242.019C212.791 240.738 213.033 239.407 213.102 238.065C213.449 228.744 210.483 226.089 204.573 220.798C204.19 220.454 203.792 220.1 203.383 219.731C203.202 219.615 202.461 218.906 203.315 215.477L203.42 215.047L203.456 215.105C203.698 213.98 204.074 210.421 203.546 210.048C203.477 210.001 203.329 210.081 203.145 210.272C202.989 211.198 202.714 211.788 202.327 212.019C202.117 212.146 201.879 212.168 201.626 212.081L201.557 212.041C201.503 211.987 196.551 207.321 192.55 207.321L192.558 207.325Z" fill="#002346"/>
<path d="M132.06 182.762C131.539 182.863 130.979 182.928 130.375 182.961C128.316 182.961 126.432 182.194 125 180.928C123.303 179.441 122.236 177.257 122.236 174.822C122.045 168.153 121.415 159.928 130.375 159.45C134.867 159.45 138.513 163.096 138.513 167.588C138.686 173.81 139.251 181.384 132.06 182.762Z" fill="#F2B3C1"/>
<path d="M130.382 183.141C128.345 183.141 126.396 182.404 124.88 181.065C123.086 179.492 122.055 177.217 122.055 174.826L122.03 174.027C121.831 167.664 121.585 159.743 130.364 159.273C134.961 159.273 138.694 163.006 138.694 167.592L138.719 168.417C138.907 174.594 139.12 181.597 132.096 182.942C131.575 183.044 131 183.112 130.385 183.145L130.382 183.141ZM130.375 159.631C121.961 160.08 122.189 167.48 122.392 174.012L122.417 174.819C122.417 177.112 123.401 179.289 125.119 180.794C126.569 182.074 128.436 182.783 130.375 182.783C130.964 182.751 131.521 182.686 132.027 182.588C138.748 181.3 138.542 174.461 138.357 168.428L138.332 167.596C138.332 163.205 134.762 159.635 130.375 159.635V159.631Z" fill="#002346"/>
<path d="M144.39 165.006C144.253 169.473 140.596 172.92 138.524 172.602C138.433 169.336 139.099 168.544 135.815 167.263C135.815 167.263 130.95 173.231 122.258 173.481C122.435 175.828 122.414 178.707 124.79 180.715C136.364 190.481 102.781 183.341 97.9195 209.679C93.9697 197.577 104.35 194.029 109.472 189.11C109.931 188.668 110.398 188.234 110.868 187.804C117.585 181.688 115.068 175.383 115.068 175.383C110.554 165.006 117.325 160.496 117.325 160.496C129.054 151.453 135.793 159.592 135.793 159.592C144.777 156.886 144.39 165.006 144.39 165.006Z" fill="#002346"/>
<path d="M97.9701 210.414L97.7494 209.737C94.6099 200.116 100.404 195.834 105.519 192.054C106.926 191.012 108.253 190.032 109.349 188.979C109.805 188.542 110.275 188.1 110.749 187.67C117.288 181.717 114.926 175.51 114.901 175.448C110.38 165.057 117.158 160.391 117.227 160.344C128.266 151.833 135.044 158.51 135.854 159.385C138.733 158.539 140.961 158.713 142.484 159.899C144.701 161.631 144.582 164.858 144.575 165.013C144.481 168.026 142.857 170.421 141.367 171.661C140.361 172.497 139.319 172.909 138.498 172.783L138.35 172.761V172.609C138.332 172.066 138.336 171.589 138.343 171.169C138.368 169.115 138.375 168.475 135.872 167.48C135.178 168.265 130.393 173.35 122.457 173.654C122.468 173.803 122.479 173.951 122.486 174.103C122.634 176.302 122.801 178.798 124.909 180.577C126.772 182.151 127.55 183.355 127.358 184.368C127.054 185.959 124.414 186.842 120.764 188.061C112.843 190.705 100.871 194.705 98.1003 209.716L97.9701 210.414ZM127.875 156.441C125.072 156.441 121.564 157.461 117.437 160.64C117.361 160.691 110.839 165.205 115.234 175.311C115.263 175.38 117.722 181.807 110.991 187.938C110.521 188.365 110.054 188.802 109.599 189.24C108.485 190.307 107.15 191.298 105.732 192.343C100.842 195.96 95.3116 200.044 97.8796 208.938C100.943 194.296 113.248 190.184 120.645 187.713C124.045 186.578 126.732 185.681 127 184.295C127.166 183.435 126.403 182.306 124.674 180.848C122.446 178.971 122.276 176.396 122.124 174.124C122.11 173.911 122.095 173.698 122.081 173.491L122.066 173.303L122.254 173.296C130.758 173.054 135.626 167.205 135.673 167.147L135.757 167.046L135.88 167.093C138.737 168.207 138.726 169.014 138.701 171.173C138.697 171.549 138.69 171.965 138.701 172.439C139.395 172.482 140.271 172.103 141.131 171.383C142.56 170.193 144.119 167.892 144.21 165.002C144.21 164.966 144.333 161.805 142.256 160.185C140.813 159.06 138.657 158.919 135.843 159.765L135.728 159.801L135.652 159.711C135.608 159.66 132.849 156.445 127.872 156.445L127.875 156.441Z" fill="#002346"/>
<path d="M134.266 194.426C129.915 199.291 121.918 192.202 121.111 186.415C121.459 186.368 124.305 184.396 125 180.928C126.432 182.194 128.316 182.96 130.375 182.96C130.979 182.928 131.539 182.863 132.06 182.762L132.143 187.044C134.675 186.932 136.552 191.797 134.266 194.426Z" fill="#F2B3C1"/>
<path d="M130.762 196.231C130.19 196.231 129.593 196.137 128.975 195.949C125.238 194.81 121.48 190.368 120.934 186.44L120.909 186.259L121.09 186.234C121.47 186.151 124.161 184.208 124.826 180.892L124.888 180.584L125.123 180.794C126.573 182.074 128.439 182.783 130.378 182.783C130.968 182.751 131.525 182.686 132.031 182.588L132.241 182.548L132.324 186.867C133.337 186.91 134.288 187.674 134.903 188.947C135.681 190.556 135.829 192.915 134.408 194.549C133.409 195.667 132.172 196.235 130.769 196.235L130.762 196.231ZM121.31 186.534C121.911 190.303 125.506 194.513 129.08 195.602C130.476 196.025 132.483 196.148 134.129 194.307C135.442 192.795 135.297 190.603 134.57 189.099C133.984 187.883 133.076 187.185 132.147 187.225L131.962 187.232L131.879 182.979C131.416 183.058 130.914 183.112 130.382 183.141C128.447 183.141 126.591 182.476 125.112 181.261C124.388 184.266 122.084 186.172 121.314 186.534H121.31Z" fill="#002346"/>
<path d="M141.229 241.263L147.096 265.178H100.621C98.3859 247.267 101.934 242.478 107.385 229.522C95.9119 233.917 94.4289 228.144 97.9084 209.668C98.4401 204.062 103.667 190.119 121.072 186.379C121.9 192.184 129.89 199.255 134.227 194.39C136.1 192.347 135.138 188.202 133.087 187.221C132.899 187.131 132.939 186.849 133.145 186.813C146.011 184.559 146.835 204.453 148.42 215.958L139.894 222.321C139.894 222.321 138.69 229.533 140.824 239.433C140.932 240.044 141.077 240.641 141.229 241.263Z" fill="#74BBFD"/>
<path d="M147.327 265.359H100.462L100.444 265.2C98.4872 249.502 101.034 243.672 105.255 234.011C105.833 232.687 106.43 231.323 107.056 229.837C102.73 231.439 99.9051 231.511 98.187 230.079C95.5104 227.844 95.3838 222.111 97.7349 209.632C98.0206 206.612 99.5614 201.751 103.023 197.211C107.284 191.623 113.512 187.818 121.039 186.201L121.227 186.162L121.256 186.353C121.802 190.173 125.452 194.481 129.069 195.573C130.458 195.993 132.462 196.108 134.096 194.271C134.925 193.367 135.243 191.92 134.946 190.393C134.671 188.976 133.93 187.822 133.015 187.388C132.856 187.312 132.769 187.153 132.794 186.975C132.82 186.798 132.946 186.668 133.12 186.635C135.851 186.158 138.22 186.65 140.173 188.097C145.711 192.209 147.038 203.169 148.105 211.972C148.275 213.376 148.434 214.7 148.604 215.933L148.619 216.038L140.068 222.418C139.952 223.192 139.015 230.159 141.008 239.393C141.113 239.982 141.247 240.543 141.414 241.219L147.335 265.359H147.327ZM100.78 264.997H146.864L141.052 241.306C140.885 240.626 140.748 240.058 140.643 239.465C138.527 229.652 139.703 222.364 139.714 222.292L139.724 222.219L148.224 215.879C148.058 214.671 147.902 213.379 147.74 212.016C146.683 203.277 145.367 192.405 139.952 188.386C138.086 187.001 135.807 186.531 133.178 186.99C133.17 186.99 133.152 186.994 133.149 187.022C133.149 187.048 133.16 187.055 133.167 187.059C134.187 187.543 135.001 188.795 135.297 190.325C135.616 191.963 135.265 193.529 134.36 194.513C132.964 196.079 131.098 196.568 128.96 195.92C125.285 194.81 121.578 190.491 120.923 186.596C113.465 188.238 107.537 191.884 103.305 197.432C99.8906 201.91 98.3715 206.699 98.0893 209.686C95.7962 221.872 95.8902 227.695 98.4185 229.804C100.079 231.189 102.907 231.045 107.323 229.352L107.718 229.2L107.555 229.591C106.864 231.229 106.217 232.716 105.587 234.155C101.265 244.051 98.8742 249.517 100.784 264.997H100.78Z" fill="#002346"/>
<path d="M96.9464 228.469C96.9464 228.469 96.8559 238.785 100.542 247.922C100.542 247.922 101.413 242.351 104.853 235.718C105.989 233.79 106.842 231.707 107.385 229.536C107.385 229.536 100.043 233.269 96.9464 228.469Z" fill="#F2B3C1"/>
<path d="M100.621 248.598L100.375 247.99C96.7185 238.926 96.7655 228.571 96.7655 228.47V227.865L97.0983 228.372C100.071 232.98 107.229 229.414 107.302 229.377L107.656 229.197L107.559 229.58C107.012 231.768 106.152 233.866 105.009 235.808C101.627 242.326 100.73 247.893 100.719 247.947L100.618 248.594L100.621 248.598ZM97.1345 229.041C97.1815 231.269 97.5504 239.639 100.48 247.274C100.817 245.632 101.938 240.948 104.694 235.638C105.761 233.826 106.575 231.888 107.117 229.866C105.656 230.509 100.021 232.662 97.1381 229.045L97.1345 229.041Z" fill="#002346"/>
<path d="M98.2341 268.723C96.5016 265.992 91.3944 269.349 95.0584 272.64L98.2305 275.143C100.064 273.635 105.215 269.953 101.07 267.902C101.07 267.895 99.2649 266.983 98.2341 268.723Z" fill="white"/>
<path d="M98.2341 275.375L98.1184 275.284C98.1184 275.284 94.9861 272.814 94.9463 272.781C93.4018 271.396 93.4995 270.137 93.6912 269.511C94.0022 268.509 94.9824 267.707 96.0784 267.562C96.9392 267.446 97.7096 267.75 98.2269 268.401C99.0443 267.272 100.22 267.439 100.708 267.573C100.95 267.638 101.081 267.692 101.157 267.743C102.169 268.245 102.726 268.893 102.81 269.667C103.012 271.533 100.386 273.642 98.8164 274.897C98.6428 275.038 98.4837 275.165 98.3426 275.28L98.2305 275.375H98.2341ZM95.1597 272.528C95.4165 272.691 96.1073 273.237 98.2305 274.908C98.3426 274.817 98.4656 274.72 98.5958 274.615C100.108 273.403 102.636 271.374 102.455 269.703C102.386 269.059 101.894 268.506 100.994 268.061L100.936 268.032C100.668 267.913 99.2505 267.363 98.3933 268.81L98.2413 269.063L98.0822 268.813C97.6518 268.133 96.9356 267.804 96.129 267.913C95.1669 268.039 94.3097 268.741 94.0384 269.613C93.7491 270.553 94.1542 271.577 95.1814 272.499L95.1597 272.521V272.528Z" fill="#002346"/>
<path d="M113.255 270.817C113.234 265.8 105.602 265.797 105.58 270.817C105.537 273.382 108.195 275.306 110.615 274.459L113.075 275.143V271.985C113.198 271.609 113.255 271.215 113.255 270.817Z" fill="white"/>
<path d="M113.255 275.382L110.619 274.651C109.44 275.042 108.116 274.825 107.067 274.065C106 273.295 105.378 272.079 105.399 270.817C105.41 268.108 107.49 266.875 109.418 266.875C111.346 266.875 113.425 268.108 113.436 270.817C113.436 271.226 113.378 271.627 113.255 272.014V275.382ZM110.608 274.271L112.894 274.904L112.901 271.931C113.017 271.573 113.075 271.197 113.075 270.817C113.064 268.354 111.172 267.233 109.418 267.233C107.664 267.233 105.772 268.354 105.761 270.817C105.743 271.964 106.311 273.067 107.28 273.768C108.25 274.47 109.476 274.662 110.554 274.286L110.608 274.268V274.271Z" fill="#002346"/>
<path d="M125.343 267.659L125.177 267.894L120.254 274.817C120.182 274.919 120.023 274.868 120.023 274.745V270.141C119.965 270.094 117.679 268.491 116.815 267.884C116.713 267.811 116.764 267.652 116.887 267.652C118.594 267.652 125.09 267.659 125.343 267.659Z" fill="white"/>
<path d="M120.153 275.052C120.12 275.052 120.092 275.049 120.059 275.038C119.929 274.998 119.846 274.879 119.846 274.745V270.235C119.535 270.014 118.287 269.135 117.426 268.535L116.713 268.036C116.601 267.96 116.554 267.819 116.598 267.692C116.637 267.562 116.757 267.479 116.891 267.479H119.6C122.085 267.482 125.173 267.486 125.347 267.486H125.698L120.406 274.929C120.348 275.013 120.254 275.06 120.157 275.06L120.153 275.052ZM117.061 267.833L117.632 268.234C119.021 269.211 120.088 269.96 120.135 269.996L120.204 270.05V274.575L124.993 267.84C124.088 267.84 121.636 267.84 119.592 267.837H117.057L117.061 267.833Z" fill="#002346"/>
<path d="M176.715 267.652V275.143L179.583 272.398L182.293 275.143V267.66L176.715 267.652Z" fill="white"/>
<path d="M182.474 275.584L179.58 272.651L176.534 275.566V267.471L182.474 267.479V275.584ZM176.896 267.833V274.72L179.587 272.145L182.112 274.702V267.84L176.896 267.833Z" fill="#002346"/>
<path d="M164.53 142.896H143.19C142.35 142.896 141.67 143.576 141.67 144.415V155.815C141.67 156.655 142.35 157.335 143.19 157.335H145.721C145.468 158.185 145.012 158.959 144.394 159.592C146.405 159.367 147.411 158.329 147.917 157.335H164.533C165.372 157.335 166.052 156.655 166.052 155.815V144.415C166.052 143.576 165.369 142.892 164.53 142.896Z" fill="#FBE493"/>
<path d="M143.913 159.827L144.267 159.465C144.806 158.911 145.222 158.242 145.475 157.515H143.193C142.256 157.515 141.493 156.752 141.493 155.815V144.415C141.493 143.478 142.256 142.715 143.193 142.715H164.537C164.989 142.715 165.416 142.892 165.738 143.21C166.06 143.532 166.237 143.959 166.237 144.415V155.815C166.237 156.752 165.474 157.515 164.537 157.515H148.029C147.53 158.438 146.503 159.537 144.416 159.772L143.913 159.83V159.827ZM143.193 143.076C142.455 143.076 141.855 143.677 141.855 144.415V155.815C141.855 156.553 142.455 157.154 143.193 157.154H145.967L145.899 157.385C145.689 158.094 145.334 158.763 144.868 159.338C146.217 159.074 147.19 158.376 147.761 157.255L147.812 157.157H164.541C165.278 157.157 165.879 156.557 165.879 155.819V144.418C165.879 144.06 165.738 143.724 165.485 143.471C165.231 143.217 164.895 143.08 164.541 143.08H143.197L143.193 143.076Z" fill="#002346"/>
<path d="M145.967 148.762C147.432 148.74 147.432 151.041 145.967 151.019C144.502 151.041 144.502 148.74 145.967 148.762Z" fill="white"/>
<path d="M145.967 151.2C144.267 151.225 144.267 148.556 145.967 148.581C147.667 148.556 147.667 151.225 145.967 151.2ZM145.967 148.943C144.738 148.925 144.738 150.856 145.967 150.838C147.197 150.856 147.197 148.925 145.967 148.943Z" fill="#002346"/>
<path d="M153.639 148.762C155.104 148.74 155.104 151.041 153.639 151.019C152.174 151.041 152.174 148.74 153.639 148.762Z" fill="white"/>
<path d="M153.639 151.2C151.939 151.225 151.939 148.556 153.639 148.581C155.339 148.556 155.339 151.225 153.639 151.2ZM153.639 148.943C152.409 148.925 152.409 150.856 153.639 150.838C154.869 150.856 154.869 148.925 153.639 148.943Z" fill="#002346"/>
<path d="M161.311 148.762C162.775 148.74 162.775 151.041 161.311 151.019C159.846 151.041 159.846 148.74 161.311 148.762Z" fill="white"/>
<path d="M161.311 151.2C159.611 151.225 159.611 148.556 161.311 148.581C163.011 148.556 163.011 151.225 161.311 151.2ZM161.311 148.943C160.081 148.925 160.081 150.856 161.311 150.838C162.54 150.856 162.54 148.925 161.311 148.943Z" fill="#002346"/>
<path d="M205.868 171.437C208.064 171.404 208.064 174.855 205.868 174.822C203.673 174.855 203.673 171.404 205.868 171.437Z" fill="#002346"/>
<path d="M205.868 175.003C203.438 175.036 203.438 171.224 205.868 171.256C208.299 171.224 208.299 175.036 205.868 175.003ZM205.868 171.618C203.908 171.589 203.908 174.67 205.868 174.642C207.829 174.67 207.829 171.589 205.868 171.618Z" fill="#002346"/>
<path d="M195.448 171.437C197.643 171.404 197.643 174.855 195.448 174.822C193.252 174.855 193.252 171.404 195.448 171.437Z" fill="#002346"/>
<path d="M195.448 175.003C193.017 175.036 193.017 171.224 195.448 171.256C197.878 171.224 197.878 175.036 195.448 175.003ZM195.448 171.618C193.487 171.589 193.487 174.67 195.448 174.642C197.408 174.67 197.408 171.589 195.448 171.618Z" fill="#002346"/>
<path d="M183.942 171.437C186.138 171.404 186.138 174.855 183.942 174.822C181.747 174.855 181.747 171.404 183.942 171.437Z" fill="#002346"/>
<path d="M183.942 175.003C181.511 175.036 181.511 171.224 183.942 171.256C186.373 171.224 186.373 175.036 183.942 175.003ZM183.942 171.618C181.982 171.589 181.982 174.67 183.942 174.642C185.903 174.67 185.903 171.589 183.942 171.618Z" fill="#002346"/>
<path d="M232.703 202.822C232.703 202.822 236.439 203.813 235.987 207.422C236.056 207.65 244.512 201.331 243.268 196.268C242.888 194.727 241.485 193.338 238.002 194.097C239.991 198.521 239.781 202.142 232.703 202.822Z" fill="white"/>
<path d="M235.893 207.647L235.802 207.437V207.397C236.236 203.983 232.692 203.002 232.656 202.995L231.683 202.738L232.685 202.641C235.726 202.348 237.607 201.516 238.428 200.098C239.217 198.742 239.021 196.803 237.835 194.17L237.745 193.967L237.962 193.92C242.168 193.001 243.195 195.226 243.441 196.224C244.678 201.248 236.812 207.393 236.059 207.599L235.889 207.647H235.893ZM233.455 202.916C234.507 203.404 236.345 204.619 236.197 207.111C237.578 206.167 244.183 200.738 243.091 196.311C242.823 195.219 241.835 193.522 238.258 194.228C239.412 196.872 239.571 198.854 238.743 200.279C237.929 201.682 236.193 202.55 233.455 202.916Z" fill="#002346"/>
<path d="M245.572 234.119C245.572 234.119 246.4 250.305 240.743 258.418L247.254 265.178C247.254 265.178 259.436 255.702 260.792 235.848C260.807 235.848 258.311 237.805 245.572 234.119Z" fill="#F2B3C1"/>
<path d="M247.239 265.421L240.512 258.436L240.599 258.313C246.154 250.341 245.402 234.289 245.395 234.126L245.38 233.873L245.623 233.946C258.069 237.548 260.651 235.729 260.676 235.711L260.792 235.848L260.973 235.859C259.627 255.564 247.489 265.225 247.366 265.319L247.239 265.421ZM240.978 258.4L247.272 264.932C248.556 263.858 259.233 254.4 260.593 236.148C259.584 236.557 256.01 237.302 245.767 234.362C245.84 236.445 246.133 250.848 240.982 258.4H240.978Z" fill="#002346"/>
<path d="M244.96 350.926C235.195 349.895 211.728 356.218 232.601 339.63C233.885 339.648 244.613 339.811 245.568 339.826L247.272 347.302C247.724 348.879 247.301 349.805 246.762 350.337C246.291 350.8 245.619 350.995 244.96 350.926Z" fill="#74BBFD"/>
<path d="M230.337 351.461C227.129 351.461 224.684 351.082 224.141 349.657C223.432 347.805 226.087 344.575 232.486 339.486L232.536 339.446L235.281 339.486C238.917 339.54 244.866 339.63 245.568 339.641H245.709L247.445 347.258C247.934 348.966 247.413 349.942 246.888 350.463C246.396 350.948 245.688 351.183 244.942 351.103C242.577 350.854 239.347 351.042 236.225 351.223C234.157 351.342 232.131 351.461 230.341 351.461H230.337ZM232.659 339.811C226.608 344.625 223.855 347.895 224.478 349.526C225.23 351.498 230.807 351.176 236.197 350.861C239.332 350.68 242.577 350.488 244.975 350.742C245.612 350.81 246.216 350.611 246.632 350.203C247.293 349.548 247.449 348.59 247.095 347.345L245.42 339.999C244.277 339.981 238.732 339.898 235.278 339.847L232.659 339.807V339.811Z" fill="#002346"/>
<path d="M151.469 231.001C150.977 232.275 149.783 233.161 148.42 233.244C142.43 233.11 139.717 227.981 139.099 216.895C139.153 214.038 137.442 209.256 139.421 206.514C140.896 204.785 142.231 202.51 142.043 200.174C141.801 198.897 141.385 195.656 143.953 197.494C151.856 202.684 143.457 206.276 146.658 210.128C146.644 210.128 155.603 220.306 151.469 231.001Z" fill="#F2B3C1"/>
<path d="M147.978 233.439C139.612 233.36 139.034 220.498 138.343 210.594C137.363 207.574 141.58 204.521 141.891 201.154C141.786 199.208 141.03 195.251 144.061 197.345C144.691 197.685 149.414 200.442 146.825 205.697C146.745 205.726 145.099 208.525 146.882 210.088L146.875 210.099C148.065 211.546 155.484 221.127 151.642 231.063C151.078 232.557 149.566 233.504 147.982 233.436L147.978 233.439ZM142.694 197.125C141.844 197.259 141.971 198.441 142.224 200.141C142.911 203.791 137.666 207.462 138.701 210.54C139.377 220.248 139.952 233.519 148.412 233.063C149.693 232.994 150.839 232.141 151.302 230.936C155.151 220.939 147.443 211.35 146.528 210.251C144.643 208.363 146.492 205.545 146.51 205.516C148.886 199.975 144.582 197.888 142.694 197.125Z" fill="#002346"/>
<path d="M122.732 171.325C125.654 171.252 125.654 177.712 122.732 177.64C119.809 177.712 119.809 171.252 122.732 171.325Z" fill="#F2B3C1"/>
<path d="M122.783 177.821H122.678C121.943 177.821 121.329 177.441 120.905 176.718C120.182 175.484 120.182 173.481 120.905 172.247C121.339 171.509 121.976 171.122 122.736 171.144C123.484 171.126 124.128 171.509 124.566 172.247C125.289 173.481 125.289 175.484 124.566 176.718C124.139 177.441 123.524 177.821 122.786 177.821H122.783ZM122.728 177.459C123.524 177.474 123.994 176.967 124.251 176.533C124.906 175.423 124.906 173.542 124.251 172.432C123.998 171.998 123.535 171.484 122.739 171.506H122.732C121.936 171.495 121.473 171.998 121.22 172.432C120.565 173.542 120.565 175.423 121.22 176.533C121.473 176.967 121.925 177.481 122.732 177.459H122.728Z" fill="#002346"/>
<path d="M216.484 233.161C216.383 233.161 216.303 233.081 216.303 232.98V216.457C216.303 216.356 216.383 216.277 216.484 216.277C216.585 216.277 216.665 216.356 216.665 216.457V232.98C216.665 233.081 216.585 233.161 216.484 233.161Z" fill="#002346"/>
<path d="M243.535 216.458C243.535 216.458 246.089 224.05 245.575 234.119L243.535 216.458Z" fill="#74BBFD"/>
<path d="M245.753 234.13L245.391 234.112C245.897 224.194 243.387 216.591 243.362 216.515L243.705 216.4C243.731 216.476 246.266 224.136 245.753 234.13Z" fill="#002346"/>
<path d="M232.496 336.017C232.406 336.017 232.326 335.948 232.316 335.858L225.91 280.38C224.731 270.455 223.201 268.524 222.391 268.256C222.025 268.133 221.779 268.383 221.772 268.394C221.703 268.466 221.591 268.47 221.515 268.401C221.443 268.332 221.436 268.22 221.504 268.148C221.519 268.13 221.902 267.717 222.496 267.909C224.058 268.412 225.364 272.709 226.268 280.337L232.674 335.814C232.685 335.912 232.612 336.002 232.515 336.013C232.507 336.013 232.5 336.013 232.493 336.013L232.496 336.017Z" fill="#002346"/>
<path d="M230.229 180.714C233.325 180.714 235.835 178.771 235.835 176.374C235.835 173.977 233.325 172.034 230.229 172.034C227.132 172.034 224.622 173.977 224.622 176.374C224.622 178.771 227.132 180.714 230.229 180.714Z" fill="#002346"/>
<path d="M230.229 180.895C227.038 180.895 224.441 178.866 224.441 176.374C224.441 173.882 227.038 171.853 230.229 171.853C233.419 171.853 236.016 173.882 236.016 176.374C236.016 178.866 233.419 180.895 230.229 180.895ZM230.229 172.214C227.237 172.214 224.803 174.081 224.803 176.374C224.803 178.667 227.237 180.534 230.229 180.534C233.22 180.534 235.654 178.667 235.654 176.374C235.654 174.081 233.22 172.214 230.229 172.214Z" fill="#002346"/>
<path d="M232.883 202.822H232.522V239.085H232.883V202.822Z" fill="#002346"/>
<path d="M248.494 266.618C248.447 266.618 248.4 266.6 248.364 266.564L240.617 258.545C240.548 258.472 240.548 258.357 240.62 258.288C240.692 258.219 240.808 258.219 240.877 258.292L248.625 266.31C248.693 266.383 248.693 266.498 248.621 266.567C248.585 266.6 248.541 266.618 248.494 266.618Z" fill="#002346"/>
<path d="M108.098 228.65C108.054 228.65 108.011 228.636 107.975 228.603C107.902 228.535 107.899 228.422 107.964 228.346C113.396 222.512 113.306 211.075 113.302 210.96C113.302 210.858 113.382 210.779 113.48 210.775C113.577 210.775 113.66 210.855 113.664 210.952C113.664 211.068 113.762 222.65 108.228 228.589C108.192 228.629 108.145 228.647 108.094 228.647L108.098 228.65Z" fill="#002346"/>
<path d="M129.344 198.355C123.51 198.355 120.978 193.746 120.952 193.696C120.905 193.609 120.938 193.497 121.028 193.45C121.115 193.403 121.224 193.435 121.274 193.526C121.3 193.576 124.023 198.517 130.36 197.946C130.458 197.939 130.548 198.011 130.555 198.109C130.563 198.206 130.49 198.297 130.393 198.304C130.035 198.336 129.684 198.351 129.347 198.351L129.344 198.355Z" fill="#002346"/>
<path d="M130.371 201.53C130.277 201.53 130.197 201.458 130.19 201.364C130.183 201.263 130.259 201.176 130.356 201.169C132.693 200.991 134.35 200.279 135.279 199.049C136.371 197.606 136.057 195.942 136.053 195.924C136.035 195.826 136.097 195.729 136.194 195.71C136.288 195.689 136.386 195.754 136.408 195.852C136.422 195.927 136.758 197.693 135.569 199.266C134.574 200.579 132.83 201.339 130.385 201.527C130.382 201.527 130.375 201.527 130.371 201.527V201.53Z" fill="#002346"/>
<path d="M140.614 201.53C140.564 201.53 140.517 201.509 140.48 201.469C138.357 199.096 139.229 195.128 139.269 194.958C139.29 194.861 139.392 194.799 139.486 194.821C139.583 194.842 139.645 194.94 139.623 195.038C139.616 195.078 138.755 198.995 140.752 201.226C140.817 201.302 140.813 201.415 140.737 201.483C140.705 201.512 140.661 201.53 140.618 201.53H140.614Z" fill="#002346"/>
<path d="M144.463 254.628C144.405 254.628 144.351 254.602 144.314 254.552C144.257 254.472 144.275 254.356 144.358 254.298L189.241 222.313C189.321 222.256 189.436 222.274 189.494 222.357C189.552 222.44 189.534 222.552 189.451 222.61L144.568 254.595C144.535 254.617 144.499 254.628 144.463 254.628Z" fill="#002346"/>
<path d="M167.268 238.376C167.242 238.376 167.217 238.373 167.192 238.358C167.101 238.315 167.062 238.21 167.105 238.119C169.735 232.434 168.425 227.912 168.414 227.865C168.385 227.771 168.44 227.67 168.534 227.641C168.628 227.612 168.729 227.666 168.758 227.76C168.772 227.807 170.118 232.459 167.434 238.268C167.405 238.333 167.336 238.373 167.271 238.373L167.268 238.376Z" fill="#002346"/>
<path d="M178.907 243.086C178.871 243.086 178.835 243.075 178.806 243.053C170.545 237.378 162.841 241.581 162.761 241.624C162.671 241.675 162.562 241.642 162.515 241.556C162.464 241.469 162.497 241.357 162.584 241.31C162.663 241.266 170.559 236.951 179.009 242.756C179.092 242.814 179.113 242.926 179.056 243.01C179.019 243.06 178.965 243.089 178.907 243.089V243.086Z" fill="#002346"/>
<path d="M151.592 249.546C151.559 249.546 151.527 249.538 151.498 249.517C151.415 249.462 151.386 249.35 151.44 249.267C154.992 243.57 152.597 238.579 152.572 238.528C152.529 238.438 152.565 238.329 152.655 238.286C152.742 238.242 152.854 238.279 152.898 238.369C152.923 238.42 155.408 243.585 151.747 249.459C151.711 249.513 151.653 249.546 151.595 249.546H151.592Z" fill="#002346"/>
<path d="M160.602 256.129C160.555 256.129 160.508 256.11 160.475 256.074C155.187 250.786 146.665 253.126 146.579 253.148C146.481 253.173 146.383 253.119 146.354 253.025C146.325 252.927 146.383 252.83 146.477 252.801C146.564 252.776 155.292 250.381 160.728 255.817C160.801 255.89 160.801 256.002 160.728 256.074C160.692 256.11 160.645 256.129 160.602 256.129Z" fill="#002346"/>
<path d="M157.165 217.68C157.133 217.68 157.104 217.673 157.075 217.655C156.988 217.604 156.959 217.492 157.014 217.409C159.448 213.307 157.129 210.432 157.028 210.309C156.963 210.233 156.974 210.117 157.053 210.055C157.133 209.994 157.245 210.001 157.307 210.077C157.332 210.11 159.889 213.267 157.325 217.593C157.292 217.651 157.231 217.684 157.169 217.684L157.165 217.68Z" fill="#002346"/>
<path d="M154.503 222.643C154.442 222.643 154.384 222.614 154.348 222.556C154.297 222.469 154.323 222.361 154.406 222.306C154.456 222.277 159.419 219.275 164.226 221.623C164.316 221.666 164.352 221.775 164.309 221.865C164.266 221.955 164.157 221.992 164.067 221.948C159.444 219.688 154.645 222.585 154.598 222.614C154.569 222.632 154.536 222.639 154.503 222.639V222.643Z" fill="#002346"/>
<path d="M99.9883 253.626C99.9521 253.626 99.9195 253.615 99.887 253.597C91.6186 248.07 78.1525 233.805 78.0187 233.66C77.95 233.588 77.9536 233.472 78.026 233.403C78.0983 233.334 78.214 233.338 78.2828 233.41C78.4166 233.555 91.8537 247.791 100.09 253.293C100.173 253.347 100.194 253.459 100.14 253.542C100.104 253.593 100.05 253.622 99.9883 253.622V253.626Z" fill="#002346"/>
<path d="M91.8862 247.13C91.85 247.13 91.8139 247.119 91.7813 247.097C87.0792 243.827 83.7191 247.003 83.6865 247.035C83.6142 247.104 83.4984 247.104 83.4297 247.035C83.361 246.963 83.361 246.851 83.4297 246.779C83.4659 246.743 87.0431 243.364 91.9839 246.804C92.0671 246.862 92.0851 246.974 92.0273 247.057C91.9911 247.108 91.9369 247.133 91.879 247.133L91.8862 247.13Z" fill="#002346"/>
<path d="M95.9047 250.566C95.836 250.566 95.7672 250.526 95.7383 250.457C93.069 244.341 95.0692 240.641 95.156 240.485C95.203 240.398 95.3151 240.366 95.4019 240.416C95.4887 240.463 95.5213 240.575 95.4706 240.662C95.4489 240.698 93.4741 244.373 96.0674 250.312C96.1072 250.403 96.0674 250.511 95.9734 250.551C95.9481 250.562 95.9264 250.566 95.9011 250.566H95.9047Z" fill="#002346"/>
<path d="M100.014 258.541C99.9666 258.541 99.9232 258.523 99.8871 258.49C95.6661 254.334 90.2623 255.691 90.208 255.705C90.1104 255.731 90.0127 255.673 89.9874 255.575C89.9621 255.477 90.0199 255.38 90.1176 255.354C90.1755 255.34 95.7782 253.933 100.144 258.234C100.216 258.302 100.216 258.418 100.144 258.49C100.108 258.527 100.061 258.545 100.014 258.545V258.541Z" fill="#002346"/>
<path d="M79.541 208.204L79.2806 208.455L96.1208 225.912L96.3811 225.661L79.541 208.204Z" fill="#002346"/>
<path d="M85.2925 225.388C85.2925 225.388 90.1573 221.225 95.0873 224.57L85.2925 225.388Z" fill="#7CD295"/>
<path d="M85.4119 225.525L85.1768 225.25C85.2274 225.207 90.2044 221.037 95.1886 224.422L94.986 224.722C90.2297 221.496 85.4589 225.486 85.4119 225.529V225.525Z" fill="#002346"/>
<path d="M120.023 270.322C119.954 270.322 119.885 270.282 119.856 270.213C119.817 270.123 119.856 270.014 119.95 269.974L125.105 267.728C125.195 267.688 125.304 267.728 125.343 267.822C125.383 267.913 125.343 268.021 125.249 268.061L120.095 270.307C120.07 270.318 120.048 270.322 120.023 270.322Z" fill="#002346"/>
<path d="M160.348 305.345C160.348 305.345 158.587 303.023 156.37 305.345C155.73 306.332 155.769 307.616 156.467 308.564C156.666 308.828 156.901 309.06 157.165 309.258L160.338 311.761L163.332 309.204C164.041 308.618 164.508 307.786 164.642 306.875C164.754 305.971 164.53 304.954 163.173 304.506C163.184 304.506 161.379 303.605 160.348 305.345Z" fill="white"/>
<path d="M160.341 311.997L157.053 309.403C156.779 309.197 156.533 308.951 156.323 308.676C155.585 307.671 155.541 306.296 156.218 305.251C156.967 304.462 157.733 304.097 158.511 304.14C159.39 304.191 160.037 304.748 160.327 305.052C161.405 303.526 163.115 304.285 163.242 304.343C164.432 304.741 164.978 305.627 164.823 306.904C164.682 307.866 164.193 308.734 163.448 309.349L160.341 312V311.997ZM158.384 304.495C157.751 304.495 157.119 304.824 156.496 305.472C155.921 306.365 155.961 307.577 156.609 308.459C156.797 308.705 157.017 308.929 157.27 309.117L160.33 311.53L163.213 309.07C163.893 308.51 164.334 307.721 164.461 306.853C164.598 305.754 164.143 305.023 163.115 304.683L162.931 304.622L162.938 304.607C162.511 304.452 161.274 304.144 160.504 305.443L160.367 305.674L160.204 305.461C160.204 305.461 159.506 304.56 158.486 304.502C158.453 304.502 158.417 304.502 158.384 304.502V304.495Z" fill="#002346"/>
<path d="M123.292 279.69H95.2319C94.6327 279.69 94.1469 280.176 94.1469 280.775V281.314C94.1469 281.913 94.6327 282.399 95.2319 282.399H123.292C123.892 282.399 124.378 281.913 124.378 281.314V280.775C124.378 280.176 123.892 279.69 123.292 279.69Z" fill="#FBE493"/>
<path d="M123.293 282.58H95.232C94.5339 282.58 93.9661 282.012 93.9661 281.314V280.775C93.9661 280.077 94.5339 279.509 95.232 279.509H123.293C123.991 279.509 124.558 280.077 124.558 280.775V281.314C124.558 282.012 123.991 282.58 123.293 282.58ZM95.232 279.87C94.7329 279.87 94.3278 280.276 94.3278 280.775V281.314C94.3278 281.813 94.7329 282.218 95.232 282.218H123.293C123.792 282.218 124.197 281.813 124.197 281.314V280.775C124.197 280.276 123.792 279.87 123.293 279.87H95.232Z" fill="#002346"/>
<path d="M138.184 284.656H95.2321C94.6328 284.656 94.147 285.142 94.147 285.741V286.28C94.147 286.879 94.6328 287.365 95.2321 287.365H138.184C138.783 287.365 139.269 286.879 139.269 286.28V285.741C139.269 285.142 138.783 284.656 138.184 284.656Z" fill="#FBE493"/>
<path d="M138.184 287.546H95.232C94.5339 287.546 93.9661 286.978 93.9661 286.28V285.741C93.9661 285.043 94.5339 284.475 95.232 284.475H138.184C138.882 284.475 139.45 285.043 139.45 285.741V286.28C139.45 286.978 138.882 287.546 138.184 287.546ZM95.232 284.837C94.7329 284.837 94.3278 285.242 94.3278 285.741V286.28C94.3278 286.779 94.7329 287.184 95.232 287.184H138.184C138.683 287.184 139.088 286.779 139.088 286.28V285.741C139.088 285.242 138.683 284.837 138.184 284.837H95.232Z" fill="#002346"/>
<path d="M158.489 295.485H95.2321C94.6328 295.485 94.147 295.971 94.147 296.57V297.109C94.147 297.708 94.6328 298.194 95.2321 298.194H158.489C159.089 298.194 159.575 297.708 159.575 297.109V296.57C159.575 295.971 159.089 295.485 158.489 295.485Z" fill="#FBE493"/>
<path d="M158.489 298.375H95.232C94.5339 298.375 93.9661 297.807 93.9661 297.109V296.57C93.9661 295.872 94.5339 295.304 95.232 295.304H158.489C159.187 295.304 159.755 295.872 159.755 296.57V297.109C159.755 297.807 159.187 298.375 158.489 298.375ZM95.232 295.666C94.7329 295.666 94.3278 296.071 94.3278 296.57V297.109C94.3278 297.608 94.7329 298.013 95.232 298.013H158.489C158.989 298.013 159.394 297.608 159.394 297.109V296.57C159.394 296.071 158.989 295.666 158.489 295.666H95.232Z" fill="#002346"/>
<path d="M177.891 290.519H95.2321C94.6328 290.519 94.147 291.005 94.147 291.604V292.143C94.147 292.742 94.6328 293.228 95.2321 293.228H177.891C178.49 293.228 178.976 292.742 178.976 292.143V291.604C178.976 291.005 178.49 290.519 177.891 290.519Z" fill="#FBE493"/>
<path d="M177.891 293.409H95.232C94.5339 293.409 93.9661 292.841 93.9661 292.143V291.604C93.9661 290.906 94.5339 290.338 95.232 290.338H177.891C178.589 290.338 179.157 290.906 179.157 291.604V292.143C179.157 292.841 178.589 293.409 177.891 293.409ZM95.232 290.7C94.7329 290.7 94.3278 291.105 94.3278 291.604V292.143C94.3278 292.642 94.7329 293.047 95.232 293.047H177.891C178.39 293.047 178.795 292.642 178.795 292.143V291.604C178.795 291.105 178.39 290.7 177.891 290.7H95.232Z" fill="#002346"/>
<path d="M97.1925 311.765H100.115V308.676H102.108V311.765H104.803V308.018L101.334 304.274L97.1925 308.018V311.765Z" fill="white"/>
<path d="M104.983 311.946H101.927V308.857H100.296V311.946H97.0116V307.938L101.345 304.021L104.983 307.949V311.949V311.946ZM102.289 311.584H104.622V308.09L101.323 304.531L97.3733 308.101V311.588H99.9341V308.499H102.289V311.588V311.584Z" fill="#002346"/>
<path d="M124.54 311.606L122.779 309.844C124.11 308.354 123.98 306.068 122.486 304.737C120.996 303.406 118.71 303.536 117.379 305.03C116.048 306.52 116.178 308.806 117.672 310.137C119.032 311.353 121.083 311.363 122.457 310.163L124.222 311.924C124.309 312.011 124.454 312.011 124.54 311.924C124.627 311.837 124.627 311.693 124.54 311.606ZM116.945 307.443C116.937 305.696 118.348 304.278 120.095 304.271C121.842 304.263 123.26 305.674 123.267 307.421C123.267 308.249 122.949 309.045 122.37 309.638C122.348 309.649 122.327 309.663 122.309 309.682C122.294 309.696 122.283 309.714 122.276 309.732C121.014 310.933 119.017 310.882 117.816 309.62C117.259 309.034 116.948 308.253 116.948 307.443H116.945Z" fill="#002346"/>
<path d="M142.354 304.057H137.54C136.751 304.057 136.111 304.697 136.111 305.486V310.3C136.111 311.089 136.751 311.729 137.54 311.729H142.354C143.143 311.729 143.783 311.089 143.783 310.3V305.486C143.783 304.697 143.143 304.057 142.354 304.057Z" fill="white"/>
<path d="M142.354 311.91H137.54C136.654 311.91 135.93 311.186 135.93 310.3V305.486C135.93 304.6 136.654 303.876 137.54 303.876H142.354C143.24 303.876 143.964 304.6 143.964 305.486V310.3C143.964 311.186 143.24 311.91 142.354 311.91ZM137.54 304.238C136.853 304.238 136.292 304.799 136.292 305.486V310.3C136.292 310.987 136.853 311.548 137.54 311.548H142.354C143.041 311.548 143.602 310.987 143.602 310.3V305.486C143.602 304.799 143.041 304.238 142.354 304.238H137.54Z" fill="#002346"/>
<path d="M141.518 307.667H140.177V306.206H139.724V307.667H138.372V308.119H139.724V309.58H140.177V308.119H141.518V307.667Z" fill="#002346"/>
<path d="M178.752 308.795C177.254 308.795 176.043 307.584 176.043 306.086C176.043 304.589 177.254 303.377 178.752 303.377C180.249 303.377 181.461 304.589 181.461 306.086C181.461 307.58 180.246 308.792 178.752 308.795ZM178.752 303.833C177.504 303.833 176.495 304.842 176.495 306.09C176.495 307.338 177.504 308.347 178.752 308.347C180 308.347 181.009 307.338 181.009 306.09C181.009 304.842 179.996 303.833 178.752 303.833Z" fill="#002346"/>
<path d="M183.266 311.729H182.814V311.483C182.814 310.43 181.96 309.577 180.907 309.573H176.412C175.359 309.573 174.505 310.43 174.505 311.483V311.729H174.053V311.483C174.053 310.181 175.109 309.128 176.412 309.125H180.907C182.21 309.125 183.266 310.181 183.266 311.483V311.729Z" fill="#002346"/>
<path d="M64.8088 0.922324C66.2755 0.922324 67.5622 1.20899 68.6688 1.78232C69.7888 2.35566 70.6488 3.17566 71.2488 4.24232C71.8622 5.29566 72.1688 6.52232 72.1688 7.92232C72.1688 9.32232 71.8622 10.549 71.2488 11.6023C70.6488 12.6423 69.7888 13.449 68.6688 14.0223C67.5622 14.5957 66.2755 14.8823 64.8088 14.8823H59.9288V0.922324H64.8088ZM64.7088 12.5023C66.1755 12.5023 67.3088 12.1023 68.1088 11.3023C68.9088 10.5023 69.3088 9.37566 69.3088 7.92232C69.3088 6.46899 68.9088 5.33566 68.1088 4.52232C67.3088 3.69566 66.1755 3.28232 64.7088 3.28232H62.7288V12.5023H64.7088ZM77.0648 0.922324V14.8823H74.2648V0.922324H77.0648ZM84.6512 15.0223C83.6778 15.0223 82.7978 14.8557 82.0112 14.5223C81.2378 14.189 80.6245 13.709 80.1712 13.0823C79.7178 12.4557 79.4845 11.7157 79.4712 10.8623H82.4712C82.5112 11.4357 82.7112 11.889 83.0712 12.2223C83.4445 12.5557 83.9512 12.7223 84.5912 12.7223C85.2445 12.7223 85.7578 12.569 86.1312 12.2623C86.5045 11.9423 86.6912 11.529 86.6912 11.0223C86.6912 10.609 86.5645 10.269 86.3112 10.0023C86.0578 9.73566 85.7378 9.52899 85.3512 9.38232C84.9778 9.22232 84.4578 9.04899 83.7912 8.86232C82.8845 8.59566 82.1445 8.33566 81.5712 8.08232C81.0112 7.81566 80.5245 7.42232 80.1112 6.90232C79.7112 6.36899 79.5112 5.66232 79.5112 4.78232C79.5112 3.95566 79.7178 3.23566 80.1312 2.62232C80.5445 2.00899 81.1245 1.54232 81.8712 1.22232C82.6178 0.888991 83.4712 0.722324 84.4312 0.722324C85.8712 0.722324 87.0378 1.07566 87.9312 1.78232C88.8378 2.47566 89.3378 3.44899 89.4312 4.70232H86.3512C86.3245 4.22232 86.1178 3.82899 85.7312 3.52232C85.3578 3.20232 84.8578 3.04232 84.2312 3.04232C83.6845 3.04232 83.2445 3.18232 82.9112 3.46232C82.5912 3.74232 82.4312 4.14899 82.4312 4.68232C82.4312 5.05566 82.5512 5.36899 82.7912 5.62232C83.0445 5.86232 83.3512 6.06232 83.7112 6.22232C84.0845 6.36899 84.6045 6.54232 85.2712 6.74232C86.1778 7.00899 86.9178 7.27566 87.4912 7.54232C88.0645 7.80899 88.5578 8.20899 88.9712 8.74232C89.3845 9.27566 89.5912 9.97566 89.5912 10.8423C89.5912 11.589 89.3978 12.2823 89.0112 12.9223C88.6245 13.5623 88.0578 14.0757 87.3112 14.4623C86.5645 14.8357 85.6778 15.0223 84.6512 15.0223ZM91.3387 7.88232C91.3387 6.50899 91.6453 5.28232 92.2587 4.20232C92.8853 3.10899 93.732 2.26232 94.7987 1.66232C95.8787 1.04899 97.0853 0.742324 98.4187 0.742324C99.9787 0.742324 101.345 1.14232 102.519 1.94232C103.692 2.74232 104.512 3.84899 104.979 5.26232H101.759C101.439 4.59566 100.985 4.09566 100.399 3.76232C99.8253 3.42899 99.1587 3.26232 98.3987 3.26232C97.5853 3.26232 96.8587 3.45566 96.2187 3.84232C95.592 4.21566 95.0987 4.74899 94.7387 5.44232C94.392 6.13566 94.2187 6.94899 94.2187 7.88232C94.2187 8.80232 94.392 9.61566 94.7387 10.3223C95.0987 11.0157 95.592 11.5557 96.2187 11.9423C96.8587 12.3157 97.5853 12.5023 98.3987 12.5023C99.1587 12.5023 99.8253 12.3357 100.399 12.0023C100.985 11.6557 101.439 11.149 101.759 10.4823H104.979C104.512 11.909 103.692 13.0223 102.519 13.8223C101.359 14.609 99.992 15.0023 98.4187 15.0023C97.0853 15.0023 95.8787 14.7023 94.7987 14.1023C93.732 13.489 92.8853 12.6423 92.2587 11.5623C91.6453 10.4823 91.3387 9.25566 91.3387 7.88232ZM113.85 15.0223C112.544 15.0223 111.344 14.7157 110.25 14.1023C109.157 13.489 108.29 12.6423 107.65 11.5623C107.01 10.469 106.69 9.23566 106.69 7.86232C106.69 6.50232 107.01 5.28232 107.65 4.20232C108.29 3.10899 109.157 2.25566 110.25 1.64232C111.344 1.02899 112.544 0.722324 113.85 0.722324C115.17 0.722324 116.37 1.02899 117.45 1.64232C118.544 2.25566 119.404 3.10899 120.03 4.20232C120.67 5.28232 120.99 6.50232 120.99 7.86232C120.99 9.23566 120.67 10.469 120.03 11.5623C119.404 12.6423 118.544 13.489 117.45 14.1023C116.357 14.7157 115.157 15.0223 113.85 15.0223ZM113.85 12.5223C114.69 12.5223 115.43 12.3357 116.07 11.9623C116.71 11.5757 117.21 11.029 117.57 10.3223C117.93 9.61566 118.11 8.79566 118.11 7.86232C118.11 6.92899 117.93 6.11566 117.57 5.42232C117.21 4.71566 116.71 4.17566 116.07 3.80232C115.43 3.42899 114.69 3.24232 113.85 3.24232C113.01 3.24232 112.264 3.42899 111.61 3.80232C110.97 4.17566 110.47 4.71566 110.11 5.42232C109.75 6.11566 109.57 6.92899 109.57 7.86232C109.57 8.79566 109.75 9.61566 110.11 10.3223C110.47 11.029 110.97 11.5757 111.61 11.9623C112.264 12.3357 113.01 12.5223 113.85 12.5223ZM135.613 0.922324L130.493 14.8823H127.093L121.973 0.922324H124.973L128.813 12.0223L132.633 0.922324H135.613ZM140.092 3.18232V6.68232H144.792V8.90232H140.092V12.6023H145.392V14.8823H137.292V0.902323H145.392V3.18232H140.092ZM155.137 14.8823L152.057 9.44232H150.737V14.8823H147.937V0.922324H153.177C154.257 0.922324 155.177 1.11566 155.937 1.50232C156.697 1.87566 157.263 2.38899 157.637 3.04232C158.023 3.68232 158.217 4.40232 158.217 5.20232C158.217 6.12232 157.95 6.95566 157.417 7.70232C156.883 8.43566 156.09 8.94232 155.037 9.22232L158.377 14.8823H155.137ZM150.737 7.34232H153.077C153.837 7.34232 154.403 7.16232 154.777 6.80232C155.15 6.42899 155.337 5.91566 155.337 5.26232C155.337 4.62232 155.15 4.12899 154.777 3.78232C154.403 3.42232 153.837 3.24232 153.077 3.24232H150.737V7.34232ZM214.535 48.9223C216.002 48.9223 217.289 49.209 218.395 49.7823C219.515 50.3557 220.375 51.1757 220.975 52.2423C221.589 53.2957 221.895 54.5223 221.895 55.9223C221.895 57.3223 221.589 58.549 220.975 59.6023C220.375 60.6423 219.515 61.449 218.395 62.0223C217.289 62.5957 216.002 62.8823 214.535 62.8823H209.655V48.9223H214.535ZM214.435 60.5023C215.902 60.5023 217.035 60.1023 217.835 59.3023C218.635 58.5023 219.035 57.3757 219.035 55.9223C219.035 54.469 218.635 53.3357 217.835 52.5223C217.035 51.6957 215.902 51.2823 214.435 51.2823H212.455V60.5023H214.435ZM226.791 48.9223V62.8823H223.991V48.9223H226.791ZM242.098 48.9223L236.978 62.8823H233.578L228.458 48.9223H231.458L235.298 60.0223L239.118 48.9223H242.098ZM246.576 51.1823V54.6823H251.276V56.9023H246.576V60.6023H251.876V62.8823H243.776V48.9023H251.876V51.1823H246.576ZM261.987 48.9223V62.8823H259.187V48.9223H261.987ZM276.693 62.8823H273.893L267.553 53.3023V62.8823H264.753V48.9023H267.553L273.893 58.5023V48.9023H276.693V62.8823Z" fill="#989BA4"/>
<path d="M71.0688 34.9623C74.0022 34.9623 76.5755 35.5357 78.7888 36.6823C81.0288 37.829 82.7488 39.469 83.9488 41.6023C85.1755 43.709 85.7888 46.1623 85.7888 48.9623C85.7888 51.7623 85.1755 54.2157 83.9488 56.3223C82.7488 58.4023 81.0288 60.0157 78.7888 61.1623C76.5755 62.309 74.0022 62.8823 71.0688 62.8823H61.3088V34.9623H71.0688ZM70.8688 58.1223C73.8022 58.1223 76.0688 57.3223 77.6688 55.7223C79.2688 54.1223 80.0688 51.869 80.0688 48.9623C80.0688 46.0557 79.2688 43.789 77.6688 42.1623C76.0688 40.509 73.8022 39.6823 70.8688 39.6823H66.9088V58.1223H70.8688ZM104.381 62.8823L98.2207 52.0023H95.5807V62.8823H89.9807V34.9623H100.461C102.621 34.9623 104.461 35.349 105.981 36.1223C107.501 36.869 108.634 37.8957 109.381 39.2023C110.154 40.4823 110.541 41.9223 110.541 43.5223C110.541 45.3623 110.007 47.029 108.941 48.5223C107.874 49.989 106.287 51.0023 104.181 51.5623L110.861 62.8823H104.381ZM95.5807 47.8023H100.261C101.781 47.8023 102.914 47.4423 103.661 46.7223C104.407 45.9757 104.781 44.949 104.781 43.6423C104.781 42.3623 104.407 41.3757 103.661 40.6823C102.914 39.9623 101.781 39.6023 100.261 39.6023H95.5807V47.8023ZM121.206 39.4823V46.4823H130.606V50.9223H121.206V58.3223H131.806V62.8823H115.606V34.9223H131.806V39.4823H121.206ZM154.015 57.5623H142.895L141.055 62.8823H135.175L145.215 34.9223H151.735L161.775 62.8823H155.855L154.015 57.5623ZM152.495 53.0823L148.455 41.4023L144.415 53.0823H152.495ZM195.968 34.9623V62.8823H190.368V44.7223L182.888 62.8823H178.648L171.128 44.7223V62.8823H165.528V34.9623H171.888L180.768 55.7223L189.648 34.9623H195.968Z" fill="#389FFF"/>
</svg>
