<svg width="176" height="32" viewBox="0 0 176 32" fill="none" xmlns="http://www.w3.org/2000/svg">
<g id="goodspace">
<path d="M8.01253 6.04985C9.28801 6.04985 10.4092 6.307 11.3761 6.82131C12.343 7.31505 13.1042 7.96308 13.6596 8.7654V6.32757H18.0107V23.5466C18.0107 25.1307 17.6918 26.5399 17.0541 27.7742C16.4163 29.0292 15.4597 30.0166 14.1842 30.7367C12.9087 31.4773 11.3658 31.8476 9.55545 31.8476C7.12792 31.8476 5.1324 31.2818 3.5689 30.1504C2.02597 29.0189 1.15165 27.4759 0.945927 25.5216H5.23526C5.46156 26.3033 5.94501 26.9205 6.68561 27.3731C7.44679 27.8463 8.36226 28.0828 9.43202 28.0828C10.6869 28.0828 11.7053 27.7022 12.487 26.9411C13.2688 26.2005 13.6596 25.069 13.6596 23.5466V20.8928C13.1042 21.6951 12.3327 22.3637 11.3452 22.8986C10.3783 23.4335 9.26744 23.7009 8.01253 23.7009C6.57246 23.7009 5.25583 23.3306 4.06264 22.59C2.86944 21.8494 1.92311 20.8105 1.22365 19.4733C0.544766 18.1155 0.205322 16.5623 0.205322 14.8137C0.205322 13.0856 0.544766 11.553 1.22365 10.2157C1.92311 8.87855 2.85916 7.84993 4.03178 7.1299C5.22498 6.40986 6.55189 6.04985 8.01253 6.04985ZM13.6596 14.8754C13.6596 13.8262 13.4539 12.9313 13.0425 12.1907C12.631 11.4295 12.0756 10.8535 11.3761 10.4626C10.6766 10.0512 9.92576 9.84545 9.12344 9.84545C8.32111 9.84545 7.58051 10.0409 6.90162 10.4318C6.22273 10.8226 5.66728 11.3987 5.23526 12.1598C4.82381 12.9004 4.61809 13.7851 4.61809 14.8137C4.61809 15.8423 4.82381 16.7475 5.23526 17.5292C5.66728 18.2904 6.22273 18.8767 6.90162 19.2882C7.60108 19.6996 8.34169 19.9053 9.12344 19.9053C9.92576 19.9053 10.6766 19.7099 11.3761 19.319C12.0756 18.9076 12.631 18.3315 13.0425 17.5909C13.4539 16.8298 13.6596 15.9246 13.6596 14.8754Z" fill="white"/>
<path d="M29.8213 23.7009C28.1755 23.7009 26.6943 23.3409 25.3777 22.6209C24.061 21.8803 23.0221 20.8414 22.261 19.5042C21.5204 18.167 21.1501 16.624 21.1501 14.8754C21.1501 13.1267 21.5306 11.5838 22.2918 10.2466C23.0736 8.9094 24.1331 7.88079 25.4703 7.16076C26.8075 6.42015 28.299 6.04985 29.9447 6.04985C31.5905 6.04985 33.082 6.42015 34.4192 7.16076C35.7564 7.88079 36.8056 8.9094 37.5668 10.2466C38.3485 11.5838 38.7394 13.1267 38.7394 14.8754C38.7394 16.624 38.3383 18.167 37.5359 19.5042C36.7542 20.8414 35.6844 21.8803 34.3266 22.6209C32.9894 23.3409 31.4877 23.7009 29.8213 23.7009ZM29.8213 19.9362C30.6031 19.9362 31.3334 19.751 32.0123 19.3807C32.7117 18.9899 33.2672 18.4138 33.6786 17.6527C34.0901 16.8915 34.2958 15.9657 34.2958 14.8754C34.2958 13.2502 33.8638 12.0055 32.9997 11.1415C32.1563 10.2569 31.1174 9.81459 29.883 9.81459C28.6487 9.81459 27.6098 10.2569 26.7663 11.1415C25.9434 12.0055 25.532 13.2502 25.532 14.8754C25.532 16.5006 25.9331 17.7555 26.7355 18.6401C27.5583 19.5042 28.587 19.9362 29.8213 19.9362Z" fill="white"/>
<path d="M49.4996 23.7009C47.8539 23.7009 46.3726 23.3409 45.056 22.6209C43.7394 21.8803 42.7005 20.8414 41.9393 19.5042C41.1987 18.167 40.8284 16.624 40.8284 14.8754C40.8284 13.1267 41.209 11.5838 41.9702 10.2466C42.7519 8.9094 43.8114 7.88079 45.1486 7.16076C46.4858 6.42015 47.9773 6.04985 49.6231 6.04985C51.2689 6.04985 52.7604 6.42015 54.0976 7.16076C55.4348 7.88079 56.484 8.9094 57.2451 10.2466C58.0269 11.5838 58.4178 13.1267 58.4178 14.8754C58.4178 16.624 58.0166 18.167 57.2143 19.5042C56.4325 20.8414 55.3628 21.8803 54.005 22.6209C52.6678 23.3409 51.166 23.7009 49.4996 23.7009ZM49.4996 19.9362C50.2814 19.9362 51.0117 19.751 51.6906 19.3807C52.3901 18.9899 52.9455 18.4138 53.357 17.6527C53.7684 16.8915 53.9741 15.9657 53.9741 14.8754C53.9741 13.2502 53.5421 12.0055 52.6781 11.1415C51.8346 10.2569 50.7957 9.81459 49.5614 9.81459C48.327 9.81459 47.2881 10.2569 46.4446 11.1415C45.6217 12.0055 45.2103 13.2502 45.2103 14.8754C45.2103 16.5006 45.6115 17.7555 46.4138 18.6401C47.2367 19.5042 48.2653 19.9362 49.4996 19.9362Z" fill="white"/>
<path d="M60.4759 14.8137C60.4759 13.0856 60.8153 11.553 61.4942 10.2157C62.1937 8.87855 63.14 7.84993 64.3332 7.1299C65.5264 6.40986 66.8533 6.04985 68.3139 6.04985C69.4248 6.04985 70.4843 6.29672 71.4924 6.79045C72.5004 7.26362 73.3027 7.90136 73.8993 8.70368V0.587891H78.2812V23.4232H73.8993V20.8928C73.3644 21.7363 72.6136 22.4152 71.6467 22.9295C70.6798 23.4438 69.5586 23.7009 68.2831 23.7009C66.843 23.7009 65.5264 23.3306 64.3332 22.59C63.14 21.8494 62.1937 20.8105 61.4942 19.4733C60.8153 18.1155 60.4759 16.5623 60.4759 14.8137ZM73.9302 14.8754C73.9302 13.8262 73.7245 12.9313 73.313 12.1907C72.9016 11.4295 72.3461 10.8535 71.6467 10.4626C70.9472 10.0512 70.1963 9.84545 69.394 9.84545C68.5917 9.84545 67.8511 10.0409 67.1722 10.4318C66.4933 10.8226 65.9378 11.3987 65.5058 12.1598C65.0944 12.9004 64.8886 13.7851 64.8886 14.8137C64.8886 15.8423 65.0944 16.7475 65.5058 17.5292C65.9378 18.2904 66.4933 18.8767 67.1722 19.2882C67.8716 19.6996 68.6122 19.9053 69.394 19.9053C70.1963 19.9053 70.9472 19.7099 71.6467 19.319C72.3461 18.9076 72.9016 18.3315 73.313 17.5909C73.7245 16.8298 73.9302 15.9246 73.9302 14.8754Z" fill="white"/>
<path d="M89.0427 23.7009C87.6437 23.7009 86.3888 23.4541 85.2779 22.9603C84.167 22.446 83.2824 21.7568 82.6241 20.8928C81.9864 20.0288 81.6366 19.0721 81.5749 18.023H85.926C86.0082 18.6813 86.3271 19.2264 86.8826 19.6585C87.4586 20.0905 88.1683 20.3065 89.0118 20.3065C89.8347 20.3065 90.4724 20.1419 90.925 19.8127C91.3982 19.4836 91.6348 19.0619 91.6348 18.5476C91.6348 17.9921 91.3468 17.5806 90.7707 17.3132C90.2153 17.0252 89.3204 16.7166 88.086 16.3875C86.8106 16.0789 85.7614 15.76 84.9385 15.4308C84.1362 15.1017 83.4367 14.5977 82.8401 13.9188C82.2641 13.2399 81.9761 12.3244 81.9761 11.1724C81.9761 10.226 82.2435 9.362 82.7784 8.58025C83.3338 7.7985 84.1156 7.18133 85.1236 6.72874C86.1522 6.27614 87.3557 6.04985 88.7341 6.04985C90.7707 6.04985 92.396 6.56416 93.6097 7.59277C94.8235 8.60082 95.4921 9.96888 95.6155 11.697H91.4805C91.4188 11.0181 91.1308 10.4832 90.6164 10.0923C90.1227 9.68087 89.4541 9.47514 88.6106 9.47514C87.8289 9.47514 87.222 9.61915 86.79 9.90716C86.3785 10.1952 86.1728 10.5963 86.1728 11.1106C86.1728 11.6867 86.4608 12.129 87.0369 12.4376C87.6129 12.7256 88.5078 13.0239 89.7215 13.3325C90.9559 13.641 91.9742 13.9599 92.7765 14.2891C93.5789 14.6182 94.268 15.1325 94.8441 15.832C95.4407 16.5109 95.7493 17.4161 95.7698 18.5476C95.7698 19.535 95.4921 20.4196 94.9366 21.2014C94.4018 21.9831 93.62 22.6003 92.5914 23.0529C91.5834 23.4849 90.4004 23.7009 89.0427 23.7009Z" fill="white"/>
<path d="M103.636 8.79626C104.192 8.01451 104.953 7.36648 105.92 6.85217C106.907 6.31729 108.029 6.04985 109.283 6.04985C110.744 6.04985 112.061 6.40986 113.233 7.1299C114.427 7.84993 115.363 8.87855 116.041 10.2157C116.741 11.5324 117.091 13.065 117.091 14.8137C117.091 16.5623 116.741 18.1155 116.041 19.4733C115.363 20.8105 114.427 21.8494 113.233 22.59C112.061 23.3306 110.744 23.7009 109.283 23.7009C108.029 23.7009 106.918 23.4438 105.951 22.9295C105.004 22.4152 104.233 21.7671 103.636 20.9854V31.5698H99.3161V6.32757H103.636V8.79626ZM112.678 14.8137C112.678 13.7851 112.462 12.9004 112.03 12.1598C111.618 11.3987 111.063 10.8226 110.363 10.4318C109.685 10.0409 108.944 9.84545 108.142 9.84545C107.36 9.84545 106.619 10.0512 105.92 10.4626C105.241 10.8535 104.686 11.4295 104.253 12.1907C103.842 12.9519 103.636 13.8468 103.636 14.8754C103.636 15.904 103.842 16.7989 104.253 17.5601C104.686 18.3213 105.241 18.9076 105.92 19.319C106.619 19.7099 107.36 19.9053 108.142 19.9053C108.944 19.9053 109.685 19.6996 110.363 19.2882C111.063 18.8767 111.618 18.2904 112.03 17.5292C112.462 16.768 112.678 15.8629 112.678 14.8137Z" fill="white"/>
<path d="M119.119 14.8137C119.119 13.0856 119.459 11.553 120.137 10.2157C120.837 8.87855 121.773 7.84993 122.946 7.1299C124.139 6.40986 125.466 6.04985 126.926 6.04985C128.202 6.04985 129.313 6.307 130.259 6.82131C131.226 7.33562 131.997 7.98365 132.573 8.7654V6.32757H136.924V23.4232H132.573V20.9237C132.018 21.726 131.247 22.3946 130.259 22.9295C129.292 23.4438 128.171 23.7009 126.895 23.7009C125.455 23.7009 124.139 23.3306 122.946 22.59C121.773 21.8494 120.837 20.8105 120.137 19.4733C119.459 18.1155 119.119 16.5623 119.119 14.8137ZM132.573 14.8754C132.573 13.8262 132.368 12.9313 131.956 12.1907C131.545 11.4295 130.989 10.8535 130.29 10.4626C129.59 10.0512 128.84 9.84545 128.037 9.84545C127.235 9.84545 126.494 10.0409 125.815 10.4318C125.137 10.8226 124.581 11.3987 124.149 12.1598C123.738 12.9004 123.532 13.7851 123.532 14.8137C123.532 15.8423 123.738 16.7475 124.149 17.5292C124.581 18.2904 125.137 18.8767 125.815 19.2882C126.515 19.6996 127.255 19.9053 128.037 19.9053C128.84 19.9053 129.59 19.7099 130.29 19.319C130.989 18.9076 131.545 18.3315 131.956 17.5909C132.368 16.8298 132.573 15.9246 132.573 14.8754Z" fill="white"/>
<path d="M140.033 14.8754C140.033 13.1062 140.393 11.5632 141.113 10.2466C141.833 8.9094 142.831 7.88079 144.106 7.16076C145.382 6.42015 146.842 6.04985 148.488 6.04985C150.607 6.04985 152.356 6.58473 153.734 7.65449C155.133 8.70368 156.069 10.1849 156.542 12.0981H151.883C151.636 11.3575 151.214 10.7815 150.617 10.37C150.041 9.93802 149.321 9.72201 148.457 9.72201C147.223 9.72201 146.246 10.1746 145.526 11.0798C144.806 11.9644 144.446 13.2296 144.446 14.8754C144.446 16.5006 144.806 17.7658 145.526 18.671C146.246 19.5556 147.223 19.9979 148.457 19.9979C150.206 19.9979 151.348 19.2162 151.883 17.6527H156.542C156.069 19.5042 155.133 20.9751 153.734 22.0654C152.335 23.1558 150.587 23.7009 148.488 23.7009C146.842 23.7009 145.382 23.3409 144.106 22.6209C142.831 21.8803 141.833 20.8517 141.113 19.535C140.393 18.1978 140.033 16.6446 140.033 14.8754Z" fill="white"/>
<path d="M175.599 14.5051C175.599 15.1223 175.558 15.6777 175.476 16.1714H162.978C163.081 17.4058 163.513 18.3727 164.274 19.0721C165.035 19.7716 165.972 20.1213 167.082 20.1213C168.687 20.1213 169.829 19.4322 170.508 18.0538H175.167C174.674 19.6996 173.727 21.0574 172.328 22.1271C170.929 23.1763 169.212 23.7009 167.175 23.7009C165.529 23.7009 164.048 23.3409 162.731 22.6209C161.435 21.8803 160.417 20.8414 159.676 19.5042C158.956 18.167 158.596 16.624 158.596 14.8754C158.596 13.1062 158.956 11.553 159.676 10.2157C160.396 8.87855 161.404 7.84993 162.701 7.1299C163.997 6.40986 165.488 6.04985 167.175 6.04985C168.8 6.04985 170.251 6.39958 171.526 7.09904C172.822 7.7985 173.82 8.79626 174.519 10.0923C175.239 11.3678 175.599 12.8387 175.599 14.5051ZM171.125 13.2707C171.104 12.1598 170.703 11.2752 169.921 10.6169C169.14 9.93802 168.183 9.59858 167.052 9.59858C165.982 9.59858 165.077 9.92774 164.336 10.5861C163.616 11.2238 163.174 12.1187 163.009 13.2707H171.125Z" fill="white"/>
</g>
</svg>
