<svg width="25" height="25" viewBox="0 0 25 25" fill="none" xmlns="http://www.w3.org/2000/svg">
<g id="basil:diamond-outline">
<path id="Vector" fill-rule="evenodd" clip-rule="evenodd" d="M6.80735 3.38538C6.50719 3.38547 6.21171 3.45969 5.94713 3.60143C5.68254 3.74317 5.45706 3.94805 5.29068 4.19788L1.55214 9.80413C1.32402 10.1479 1.29694 10.5875 1.48131 10.9562C3.52724 15.0479 6.37044 18.6894 9.84381 21.6666L11.6667 23.2302C11.8989 23.4292 12.1947 23.5386 12.5006 23.5386C12.8064 23.5386 13.1022 23.4292 13.3344 23.2302L15.1573 21.6677C18.6312 18.6903 21.4748 15.0484 23.5209 10.9562C23.7053 10.5875 23.6771 10.1479 23.449 9.80413L19.7084 4.19788C19.542 3.94839 19.3166 3.7438 19.0522 3.60226C18.7879 3.46071 18.4927 3.38657 18.1928 3.38642L6.80735 3.38538ZM6.59068 5.0635C6.6145 5.02789 6.64674 4.99871 6.68453 4.97854C6.72233 4.95837 6.76451 4.94784 6.80735 4.94788H9.24485L7.25006 9.73538C7.20437 9.84491 7.16948 9.95864 7.14589 10.075C6.41229 10.0202 5.67956 9.95421 4.94798 9.87704L3.48444 9.72392L6.59068 5.0635ZM3.41673 11.2875C5.2859 14.7167 7.7532 17.7841 10.7021 20.3448L7.44693 11.6635C6.55881 11.6025 5.67185 11.5254 4.78652 11.4323L3.41673 11.2875ZM9.15214 11.7604L12.5001 20.6916L15.849 11.7604C13.6175 11.8618 11.3826 11.8618 9.1511 11.7604H9.15214ZM17.5553 11.6635L14.3001 20.3448C17.249 17.7841 19.7163 14.7167 21.5855 11.2875L20.2157 11.4323C19.3303 11.525 18.4438 11.602 17.5553 11.6635ZM21.5167 9.72392L20.0521 9.87808C19.3206 9.95526 18.5878 10.0212 17.8542 10.076C17.8311 9.95936 17.7965 9.84528 17.7511 9.73538L15.7553 4.94788H18.1928C18.2356 4.94784 18.2778 4.95837 18.3156 4.97854C18.3534 4.99871 18.3856 5.02789 18.4094 5.0635L21.5167 9.72392ZM16.2428 10.177C13.7501 10.3062 11.2532 10.3062 8.75943 10.177L10.9376 4.94788H14.0626L16.2417 10.177H16.2428Z" fill="#297BCA"/>
</g>
</svg>
